<?xml version="1.0" standalone="no"?>
<!DOCTYPE svg PUBLIC "-//W3C//DTD SVG 20010904//EN"
 "http://www.w3.org/TR/2001/REC-SVG-20010904/DTD/svg10.dtd">
<svg version="1.0" xmlns="http://www.w3.org/2000/svg"
 width="200.000000pt" height="200.000000pt" viewBox="0 0 200.000000 200.000000"
 preserveAspectRatio="xMidYMid meet">
<metadata>
Created by potrace 1.14, written by Peter Selinger 2001-2017
</metadata>
<g transform="translate(0.000000,200.000000) scale(0.100000,-0.100000)"
fill="#000000" stroke="none">
<path d="M875 1894 c-11 -2 -51 -11 -88 -20 -341 -78 -610 -364 -673 -714 -82
-459 197 -902 647 -1030 94 -27 277 -37 378 -21 303 47 575 261 690 540 55
133 66 192 65 361 -1 136 -4 165 -27 235 -36 116 -62 170 -123 261 -123 186
-347 336 -566 379 -42 8 -276 15 -303 9z m250 -168 c11 -2 42 -9 70 -16 131
-30 288 -135 387 -260 160 -201 198 -506 93 -745 l-22 -50 2 80 c3 180 -64
351 -184 476 -209 216 -544 260 -807 105 -201 -117 -326 -347 -319 -587 l2
-74 -19 44 c-63 140 -80 332 -44 476 24 94 87 219 147 292 109 133 290 238
448 259 25 3 47 7 49 9 5 4 173 -3 197 -9z m8 -501 c33 -8 85 -31 116 -50 227
-137 305 -418 183 -651 l-21 -39 -1 35 c-9 251 -245 439 -490 389 -186 -38
-323 -200 -330 -389 l-1 -35 -23 45 c-101 194 -61 429 99 578 130 122 292 162
468 117z m-27 -499 c182 -85 183 -345 1 -438 -53 -27 -161 -26 -215 1 -146 75
-180 267 -69 390 63 69 190 90 283 47z"/>
</g>
</svg>
