<?xml version="1.0" encoding="utf-8"?>
<!-- Generator: Adobe Illustrator 18.0.0, SVG Export Plug-In . SVG Version: 6.00 Build 0)  -->
<!DOCTYPE svg PUBLIC "-//W3C//DTD SVG 1.1//EN" "http://www.w3.org/Graphics/SVG/1.1/DTD/svg11.dtd">
<svg version="1.1" id="Layer_1" xmlns="http://www.w3.org/2000/svg" xmlns:xlink="http://www.w3.org/1999/xlink" x="0px" y="0px"
	 viewBox="0 0 64 64" enable-background="new 0 0 64 64" xml:space="preserve">
<g>
	<g>
		<g>
			<path fill="#A4C639" d="M32,0c17.7,0,32,14.3,32,32S49.7,64,32,64S0,49.7,0,32S14.3,0,32,0z"/>
		</g>
	</g>
	<g>
		<g>
			<path fill="#FFFFFF" d="M16.6,24.6c-1.4,0-2.6,1.2-2.6,2.6L14,38c0,1.4,1.2,2.6,2.6,2.6c1.5,0,2.6-1.2,2.6-2.6l0-10.9
				C19.3,25.7,18.1,24.6,16.6,24.6 M37.8,14.8l1.8-3.3c0.1-0.2,0-0.4-0.1-0.5c-0.2-0.1-0.4,0-0.5,0.1l-1.9,3.3
				c-1.6-0.7-3.3-1.1-5.1-1.1c-1.8,0-3.6,0.4-5.1,1.1L25,11.2C24.9,11,24.7,11,24.5,11c-0.2,0.1-0.2,0.3-0.1,0.5l1.8,3.3
				c-3.6,1.8-6,5.3-6,9.3l23.6,0C43.8,20.2,41.4,16.7,37.8,14.8 M26.6,19.9c-0.5,0-1-0.4-1-1c0-0.5,0.4-1,1-1c0.5,0,1,0.4,1,1
				C27.6,19.5,27.2,19.9,26.6,19.9 M37.4,19.9c-0.5,0-1-0.4-1-1c0-0.5,0.4-1,1-1c0.5,0,1,0.4,1,1C38.4,19.5,37.9,19.9,37.4,19.9
				 M20.3,25.1l0,16.8c0,1.5,1.3,2.8,2.8,2.8l1.9,0l0,5.7c0,1.4,1.2,2.6,2.6,2.6c1.5,0,2.6-1.2,2.6-2.6l0-5.7l3.5,0l0,5.7
				c0,1.4,1.2,2.6,2.6,2.6c1.5,0,2.6-1.2,2.6-2.6l0-5.7l1.9,0c1.5,0,2.8-1.2,2.8-2.8l0-16.8L20.3,25.1z M50,27.2
				c0-1.4-1.2-2.6-2.6-2.6c-1.4,0-2.6,1.2-2.6,2.6l0,10.9c0,1.4,1.2,2.6,2.6,2.6c1.4,0,2.6-1.2,2.6-2.6L50,27.2z"/>
		</g>
	</g>
</g>
</svg>
