<svg width="64" height="64" version="1.1" viewBox="0 0 16.933 16.933" xmlns="http://www.w3.org/2000/svg">
 <defs>
  <linearGradient id="a" x1="49.571" x2="51.714" y1="52.714" y2="54.857" gradientTransform="matrix(2.3333,0,0,2.3333,-68.667,-72.001)" gradientUnits="userSpaceOnUse">
   <stop offset="0"/>
   <stop stop-opacity="0" offset="1"/>
  </linearGradient>
 </defs>
 <g transform="scale(.26458)">
  <rect x="8" y="4" width="48" height="56" ry="5" fill="#f46062" style="paint-order:stroke fill markers"/>
  <path d="m56 46-14 14h9c2.77 0 5-2.23 5-5z" fill="url(#a)" fill-rule="evenodd" opacity=".15" stroke-width="8.8191" style="paint-order:stroke fill markers"/>
 </g>
 <path d="M5.16 10.58c0-.123.016-.226.049-.309a.537.537 0 0 1 .359-.32.947.947 0 0 1 .516 0 .536.536 0 0 1 .359.32.787.787 0 0 1 .053.309.765.765 0 0 1-.054.301.539.539 0 0 1-.359.325.859.859 0 0 1-.516 0 .54.54 0 0 1-.358-.325.817.817 0 0 1-.05-.301" fill="#fff" font-family="Droid Sans" font-size="29.913" font-weight="700" letter-spacing="0" overflow="visible" stroke-linejoin="round" word-spacing="0"/>
 <path d="M8.83 8.843c0 .46.065.807.195 1.042.13.231.34.347.632.347.29 0 .5-.117.629-.351.13-.235.194-.58.194-1.038 0-.46-.065-.804-.194-1.03-.13-.228-.342-.343-.637-.343-.29 0-.499.115-.628.343-.127.226-.19.57-.19 1.03m2.935 0c0 .386-.05.727-.15 1.025a2.041 2.041 0 0 1-.42.753 1.8 1.8 0 0 1-.67.467 2.365 2.365 0 0 1-.885.157c-.306 0-.587-.053-.844-.157a1.882 1.882 0 0 1-.665-.467 2.186 2.186 0 0 1-.434-.753 3.082 3.082 0 0 1-.157-1.025c0-.383.048-.724.144-1.021.1-.298.24-.547.422-.749a1.8 1.8 0 0 1 .67-.463c.262-.104.558-.157.889-.157.305 0 .587.053.843.157.256.105.477.26.661.463.188.202.334.451.439.749.104.297.157.638.157 1.02" fill="#fff" font-family="Droid Sans" font-size="32" font-weight="700" letter-spacing="0" word-spacing="0"/>
</svg>
