<svg width="64" height="64" version="1.1" viewBox="0 0 64 64" xmlns="http://www.w3.org/2000/svg">
 <defs>
  <linearGradient id="a" x1="49.571" x2="51.714" y1="52.714" y2="54.857" gradientTransform="matrix(2.3333,0,0,2.3333,-68.667,-72.001)" gradientUnits="userSpaceOnUse">
   <stop offset="0"/>
   <stop stop-opacity="0" offset="1"/>
  </linearGradient>
 </defs>
 <g transform="scale(1)">
  <rect x="8" y="4" width="48" height="56" ry="5" fill="#808080" style="paint-order:stroke fill markers"/>
  <path d="m56 46-14 14h9c2.77 0 5-2.23 5-5z" fill="url(#a)" fill-rule="evenodd" opacity=".15" stroke-width="8.8191" style="paint-order:stroke fill markers"/>
 </g>
 <path d="m40 24.505-8 4e-3 -4.441 7.691-1.555-2.695h-2v1h1.428l2.133 3.693 5.02-8.693h6.42v1h1zm-5 3c-1.662 0-3 1.338-3 3s1.338 3 3 3c0.773 0 1.469-0.298 2-0.775v0.775h1v-6h-1v0.775c-0.531-0.477-1.227-0.775-2-0.775m0 1c1.108 0 2 0.892 2 2s-0.892 2-2 2-2-0.892-2-2 0.892-2 2-2m-11.99 6.99c-6e-3 0-0.01 0.223-0.01 0.5s4e-3 0.5 0.01 0.5h17.98c6e-3 0 0.01-0.223 0.01-0.5s-4e-3 -0.5-0.01-0.5zm8 3c-6e-3 0-0.01 0.223-0.01 0.5s4e-3 0.5 0.01 0.5h1.98c6e-3 0 0.01-0.223 0.01-0.5s-4e-3 -0.5-0.01-0.5z" color="#000000" color-rendering="auto" fill="#fff" image-rendering="auto" opacity=".75" shape-rendering="auto"/>
</svg>
