<svg width="64" height="64" version="1.1" viewBox="0 0 16.933 16.933" xmlns="http://www.w3.org/2000/svg">
 <defs>
  <linearGradient id="a" x1="49.571" x2="51.714" y1="52.714" y2="54.857" gradientTransform="matrix(2.3333,0,0,2.3333,-68.667,-72.001)" gradientUnits="userSpaceOnUse">
   <stop offset="0"/>
   <stop stop-opacity="0" offset="1"/>
  </linearGradient>
 </defs>
 <g transform="scale(.26458)">
  <rect x="8" y="4" width="48" height="56" ry="5" fill="#341c05" style="paint-order:stroke fill markers"/>
  <path d="m56 46-14 14h9c2.77 0 5-2.23 5-5z" fill="url(#a)" fill-rule="evenodd" opacity=".5" stroke-width="8.8191" style="paint-order:stroke fill markers"/>
 </g>
 <path class="st1" d="m6.8166 9.7034-0.3832 1.4552c-0.0097 0.03881-0.02425 0.0485-0.07276 0.0485h-0.71304c-0.04851 0-0.05821-0.01455-0.04851-0.07276l1.3776-4.8215c0.02425-0.08731 0.0388-0.16492 0.04851-0.4026 0-0.03395 0.01455-0.0485 0.0388-0.0485h1.0186c0.03395 0 0.04851 0.0097 0.05821 0.0485l1.5425 5.2338c0.0097 0.03881 0 0.06306-0.0388 0.06306h-0.8052c-0.0388 0-0.06306-0.0097-0.07276-0.04366l-0.4026-1.46zm1.3485-0.7858c-0.13582-0.53842-0.45596-1.7123-0.57722-2.2798h-0.0097c-0.10186 0.56752-0.35894 1.5279-0.56267 2.2798zm2.1828-2.6969c0-0.31044 0.21828-0.49476 0.49476-0.49476 0.29589 0 0.49476 0.19887 0.49476 0.49476 0 0.32014-0.20858 0.49476-0.50446 0.49476-0.28134 0-0.48506-0.17462-0.48506-0.49476zm0.05821 1.1011c0-0.0388 0.01455-0.05821 0.05821-0.05821h0.76154c0.0388 0 0.05821 0.01455 0.05821 0.05821v3.8271c0 0.0388-0.0097 0.05821-0.05821 0.05821h-0.75185c-0.04851 0-0.06306-0.02425-0.06306-0.06306v-3.8223z" enable-background="new" fill="#ff7c00" stroke-width=".048506"/>
</svg>
