<svg width="64" height="64" version="1.1" xmlns="http://www.w3.org/2000/svg">
 <defs>
  <linearGradient id="a" x1="49.571" x2="51.714" y1="52.714" y2="54.857" gradientTransform="matrix(2.3333,0,0,2.3333,-68.667,-72.001)" gradientUnits="userSpaceOnUse">
   <stop offset="0"/>
   <stop stop-opacity="0" offset="1"/>
  </linearGradient>
 </defs>
 <g transform="scale(1)">
  <rect x="8" y="4" width="48" height="56" ry="5" fill="#afdde9" style="paint-order:stroke fill markers"/>
  <path d="m56 46-14 14h9c2.77 0 5-2.23 5-5z" fill="url(#a)" fill-rule="evenodd" opacity=".15" stroke-width="8.8191" style="paint-order:stroke fill markers"/>
 </g>
 <g transform="translate(71.441 -.82775)">
  <path transform="translate(-71.441 .82775)" d="m31 21.801v20.4h7s1-6.56e-4 1-0.97266v-14.57s0-0.97266-1-0.97266h-4v-3.8848h-3zm3.002 5.8281h2v12.629h-2v-12.629z"/>
  <path d="m-45.441 43.028v-14.57h-1v-1.944h1v-2.914c0-0.971 1-0.971 1-0.971h3v1.943h-1v1.942h1v1.943h-1v14.57z" fill-rule="evenodd"/>
 </g>
 <rect x="15.983" y="4" width="1" height="56" ry="0" opacity=".15" style="paint-order:normal"/>
</svg>
