<svg width="64" height="64" version="1.1" viewBox="0 0 16.933 16.933" xmlns="http://www.w3.org/2000/svg">
 <defs>
  <linearGradient id="a" x1="49.571" x2="51.714" y1="52.714" y2="54.857" gradientTransform="matrix(2.3333,0,0,2.3333,-68.667,-72.001)" gradientUnits="userSpaceOnUse">
   <stop offset="0"/>
   <stop stop-opacity="0" offset="1"/>
  </linearGradient>
 </defs>
 <g transform="scale(.26458)">
  <rect x="8" y="4" width="48" height="56" ry="5" fill="#3374d4" style="paint-order:stroke fill markers"/>
  <path d="m56 46-14 14h9c2.77 0 5-2.23 5-5z" fill="url(#a)" fill-rule="evenodd" opacity=".15" stroke-width="8.8191" style="paint-order:stroke fill markers"/>
 </g>
 <g transform="translate(-20.002 1.3094)" fill="#fff" stroke-width=".088193">
  <path d="m28.768 3.453c-1.2902 0.22976-2.5811 0.53461-3.8713 0.76016 0 1.9626-8.5e-4 3.9261 0 5.8896 1.2835 0.22471 2.5677 0.52447 3.8486 0.75844h0.38441v-7.4082zm-0.49905 2.3996-0.5944 2.4951-0.48788-0.03847c-0.11193-0.55714-0.24233-1.1109-0.34248-1.6706-0.09847 0.54368-0.2265 1.0823-0.33928 1.6226-0.16159-0.0084-0.32392-0.01852-0.48635-0.02946-0.13971-0.74062-0.30388-1.4762-0.43432-2.2185 0.14392-0.0067 0.28868-0.01258 0.4326-0.01763 0.08668 0.53611 0.18512 1.0697 0.26087 1.6066 0.11867-0.55041 0.23994-1.1008 0.35777-1.6512 0.15991-0.0093 0.31979-0.01599 0.47969-0.02441 0.11193 0.56809 0.22634 1.1352 0.34753 1.7008 0.0951-0.58408 0.20033-1.1664 0.30217-1.7496 0.16832-0.0059 0.33662-0.01517 0.5041-0.02527z" enable-background="new"/>
  <path d="m29.395 4.5113h2.6458v5.2916h-2.6458v-0.52916h2.1166v-0.26458h-2.1166v-0.52916h2.1166v-0.26458h-2.1166v-0.52916h2.1166v-0.26458h-2.1166v-0.52916h2.1166v-0.26458h-2.1166v-0.52823h2.1166v-0.2655h-2.1166v-0.52916h2.1166v-0.26458h-2.1166z" enable-background="new"/>
 </g>
</svg>
