<svg width="64" height="64" version="1.1" viewBox="0 0 64 64" xmlns="http://www.w3.org/2000/svg">
 <defs>
  <linearGradient id="a" x1="49.571" x2="51.714" y1="52.714" y2="54.857" gradientTransform="matrix(2.3333,0,0,2.3333,-68.667,-72.001)" gradientUnits="userSpaceOnUse">
   <stop offset="0"/>
   <stop stop-opacity="0" offset="1"/>
  </linearGradient>
 </defs>
 <g transform="scale(1)">
  <rect x="8" y="4" width="48" height="56" ry="5" fill="#3d58a5" style="paint-order:stroke fill markers"/>
  <path d="m56 46-14 14h9c2.77 0 5-2.23 5-5z" fill="url(#a)" fill-rule="evenodd" opacity=".15" stroke-width="8.8191" style="paint-order:stroke fill markers"/>
 </g>
 <path d="m22 21c-0.554 0-1 0.446-1 1v20c0 0.554 0.446 1 1 1h20c0.554 0 1-0.446 1-1v-20c0-0.554-0.446-1-1-1h-20zm15.5 2.5 3 2.9961-2.5 2.5v9h-3v2h-5v-2h-4v-9.0508c-1.1624-0.23728-1.998-1.2589-2-2.4453 0-1.3807 1.1193-2.5 2.5-2.5 1.1879 1.38e-4 2.2116 0.83613 2.4492 2h6.0508l2.5-2.5zm-8.5605 3.5c-0.1999 0.9805-0.96522 1.7474-1.9453 1.9492v8.0508h3v-2h5v2h2v-8l-2-2h-6.0488-0.005859z" fill="#fff" opacity=".75"/>
</svg>
