<svg width="64" height="64" version="1.1" viewBox="0 0 16.933 16.933" xmlns="http://www.w3.org/2000/svg" xmlns:xlink="http://www.w3.org/1999/xlink">
 <defs>
  <linearGradient id="a" x1="49.571" x2="51.714" y1="52.714" y2="54.857" gradientTransform="matrix(2.3333 0 0 2.3333 -68.667 -72.001)" gradientUnits="userSpaceOnUse">
   <stop offset="0"/>
   <stop stop-opacity="0" offset="1"/>
  </linearGradient>
 </defs>
 <g transform="scale(.26458)">
  <rect x="8" y="4" width="48" height="56" ry="5" fill="#84c835" style="paint-order:stroke fill markers"/>
  <path d="m56 46-14 14h9c2.77 0 5-2.23 5-5z" fill="url(#a)" fill-rule="evenodd" opacity=".15" stroke-width="8.8191" style="paint-order:stroke fill markers"/>
 </g>
 <path d="m8.4664 10.961-2.4942-2.4944 2.4942-2.4941 0.83147 0.83132-1.6629 1.6627 0.83142 0.83147 2.4942-2.4941-2.1727-2.1727c-0.17742-0.17757-0.4652-0.17757-0.64277 0l-3.5142 3.5142c-0.17742 0.17742-0.17742 0.4652 0 0.64277l3.5142 3.5141c0.17757 0.17757 0.46535 0.17757 0.64277 0l3.5142-3.5141c0.17742-0.17757 0.17742-0.46535 0-0.64277l-0.51016-0.51001z" enable-background="new" fill="#fff" stroke-width=".050576"/>
</svg>
