<svg width="64" height="64" version="1.1" viewBox="0 0 64 64" xmlns="http://www.w3.org/2000/svg">
 <defs>
  <linearGradient id="a" x1="49.571" x2="51.714" y1="52.714" y2="54.857" gradientTransform="matrix(2.3333,0,0,2.3333,-68.667,-72.001)" gradientUnits="userSpaceOnUse">
   <stop offset="0"/>
   <stop stop-opacity="0" offset="1"/>
  </linearGradient>
 </defs>
 <g transform="scale(1)">
  <rect x="8" y="4" width="48" height="56" ry="5" fill="#56cc56" style="paint-order:stroke fill markers"/>
  <path d="m56 46-14 14h9c2.77 0 5-2.23 5-5z" fill="url(#a)" fill-rule="evenodd" opacity=".15" stroke-width="8.8191" style="paint-order:stroke fill markers"/>
 </g>
 <path d="m35 21c-0.554 0-1 0.446-1 1v2h-12c-0.554 0-1 0.446-1 1v17c0 0.554 0.446 1 1 1h17c0.554 0 1-0.446 1-1v-4h2c0.554 0 1-0.446 1-1v-15c0-0.554-0.446-1-1-1h-7zm0 1h7v15h-2v-12c0-0.554-0.446-1-1-1-1.556-0.611-4.061-0.985-4-2zm-12 5h15v4h-15v-4zm0 6h7v1h-7v-1zm8 0h7v1h-7v-1zm-8 3h7v1h-7v-1zm8 0h7v1h-7v-1zm-8 3h7v1h-7v-1zm8 0h7v1h-7v-1z" color="#000000" color-rendering="auto" fill="#fff" image-rendering="auto" opacity=".9" shape-rendering="auto" solid-color="#000000" stroke-width="2" style="isolation:auto;mix-blend-mode:normal"/>
</svg>
