<svg width="64" height="64" version="1.1" viewBox="0 0 16.933 16.933" xmlns="http://www.w3.org/2000/svg">
 <defs>
  <linearGradient id="a" x1="49.571" x2="51.714" y1="52.714" y2="54.857" gradientTransform="matrix(2.3333,0,0,2.3333,-68.667,-72.001)" gradientUnits="userSpaceOnUse">
   <stop offset="0"/>
   <stop stop-opacity="0" offset="1"/>
  </linearGradient>
 </defs>
 <g transform="scale(.26458)">
  <rect x="8" y="4" width="48" height="56" ry="5" fill="#262626" style="paint-order:stroke fill markers"/>
  <path d="m56 46-14 14h9c2.77 0 5-2.23 5-5z" fill="url(#a)" fill-rule="evenodd" opacity=".5" stroke-width="8.8191" style="paint-order:stroke fill markers"/>
 </g>
 <path class="st1" d="m5.4058 5.8326c0-0.03396 0.06791-0.05821 0.10671-0.05821 0.31044-0.01455 0.77124-0.02425 1.2515-0.02425 1.3436 0 1.8675 0.73729 1.8675 1.6832 0 1.2321-0.89251 1.7608-1.9887 1.7608-0.18432 0-0.24738-0.0097-0.37835-0.0097v1.8626c0 0.0388-0.01455 0.05821-0.05821 0.05821h-0.74214c-0.0388 0-0.05821-0.01455-0.05821-0.05821zm0.86341 2.5757c0.11156 0.0097 0.19888 0.0097 0.3929 0.0097 0.56752 0 1.1011-0.19887 1.1011-0.97012 0-0.61603-0.3832-0.92646-1.0283-0.92646-0.19402 0-0.37835 0.0097-0.46566 0.01455zm4.1715-0.57722c-0.3832 0-0.51416 0.19402-0.51416 0.35409 0 0.17462 0.08731 0.29589 0.60147 0.56267 0.76154 0.36865 0.99922 0.72274 0.99922 1.2418 0 0.7761-0.59177 1.1932-1.3921 1.1932-0.422 0-0.7858-0.08731-0.99437-0.20858-0.03395-0.01455-0.03881-0.0388-0.03881-0.07761v-0.71304c0-0.04851 0.02425-0.06306 0.05821-0.0388 0.30559 0.19888 0.65483 0.28618 0.97497 0.28618 0.3832 0 0.54327-0.16007 0.54327-0.37835 0-0.17462-0.11156-0.32984-0.60148-0.58207-0.68878-0.32984-0.97497-0.66453-0.97497-1.2224 0-0.62573 0.48991-1.1447 1.3388-1.1447 0.41715 0 0.70819 0.06306 0.86826 0.13582 0.03881 0.02425 0.04851 0.06306 0.04851 0.09701v0.66453c0 0.0388-0.02425 0.06306-0.07276 0.04851-0.21343-0.13582-0.52872-0.21828-0.844-0.21828z" enable-background="new" fill="#00c8ff" stroke-width=".048506"/>
</svg>
