<?xml version="1.0" encoding="utf-8"?>
<!-- Generator: Adobe Illustrator 25.0.0, SVG Export Plug-In . SVG Version: 6.00 Build 0)  -->
<svg version="1.1" xmlns="http://www.w3.org/2000/svg" xmlns:xlink="http://www.w3.org/1999/xlink" x="0px" y="0px"
	 viewBox="0 0 64 64" style="enable-background:new 0 0 64 64;" xml:space="preserve">
<style type="text/css">
	.st0{fill:#F4F4F4;}
	.st1{opacity:0.1;fill-rule:evenodd;clip-rule:evenodd;fill:url(#SVGID_1_);enable-background:new    ;}
	.st2{fill:#999999;}
</style>
<g id="图层_1">
	<g transform="scale(.26458)">
		<path class="st0" d="M49.1,15.1h143.6c10.4,0,18.9,8.5,18.9,18.9v173.9c0,10.4-8.5,18.9-18.9,18.9H49.1
			c-10.4,0-18.9-8.5-18.9-18.9V34C30.2,23.6,38.7,15.1,49.1,15.1z"/>
		
			<linearGradient id="SVGID_1_" gradientUnits="userSpaceOnUse" x1="-957.3084" y1="2609.5137" x2="-955.1654" y2="2607.3706" gradientTransform="matrix(2.3333 0 0 -2.3333 2411.3325 6281.5693)">
			<stop  offset="0" style="stop-color:#000000"/>
			<stop  offset="1" style="stop-color:#000000;stop-opacity:0"/>
		</linearGradient>
		<path class="st1" d="M211.7,173.9l-52.9,52.9h34c10.5,0,18.9-8.4,18.9-18.9V173.9z"/>
	</g>
</g>
<g id="图层_2">
	<path class="st2" d="M41.1,31.4c0-4.2,3.4-6.2,3.6-6.3c-2-2.9-5-3.3-6.1-3.3c-2.6-0.3-5.1,1.5-6.4,1.5c-1.3,0-3.3-1.5-5.5-1.4
		c-2.8,0-5.4,1.6-6.9,4.2c-2.9,5.1-0.8,12.6,2.1,16.8c1.4,2,3.1,4.3,5.3,4.2c2.1-0.1,2.9-1.4,5.4-1.4c2.5,0,3.3,1.4,5.5,1.3
		c2.3,0,3.7-2.1,5.1-4.1c1.6-2.3,2.3-4.6,2.3-4.7C45.5,38.1,41.1,36.4,41.1,31.4L41.1,31.4z M36.9,19c1.2-1.4,1.9-3.4,1.7-5.3
		c-1.7,0.1-3.7,1.1-4.9,2.5c-1.1,1.2-2,3.2-1.8,5.1C33.8,21.5,35.7,20.5,36.9,19L36.9,19z"/>
</g>
</svg>
