<svg width="64" height="64" version="1.1" viewBox="0 0 64 64" xmlns="http://www.w3.org/2000/svg">
 <defs>
  <linearGradient id="a" x1="49.571" x2="51.714" y1="52.714" y2="54.857" gradientTransform="matrix(2.3333,0,0,2.3333,-68.667,-72.001)" gradientUnits="userSpaceOnUse">
   <stop offset="0"/>
   <stop stop-opacity="0" offset="1"/>
  </linearGradient>
 </defs>
 <g transform="scale(1)">
  <rect x="8" y="4" width="48" height="56" ry="5" fill="#8542c2" style="paint-order:stroke fill markers"/>
  <path d="m56 46-14 14h9c2.77 0 5-2.23 5-5z" fill="url(#a)" fill-rule="evenodd" opacity=".15" stroke-width="8.8191" style="paint-order:stroke fill markers"/>
 </g>
 <path d="m32 22a11 3 0 0 0 -2.125 .05859c-.02.001-.041.001-.061.002-.059.003-.113.008-.172.012a11 3 0 0 0 -1.923828 .164062 11 3 0 0 0 -.002 0A11 3 0 0 0 25.933594 22.5c-.036.007-.075.011-.111.018a11 3 0 0 0 -1.517578 .34375c-.037.01-.077.017-.113.027a11 3 0 0 0 -1.214844 .40039c-.057.022-.119.044-.174.066a11 3 0 0 0 -.222656 .101562c-.11.05-.22.1-.32.152a11 3 0 0 0 -.19336 .109375c-.093.054-.186.107-.268.162a11 3 0 0 0 -.138672 .103516c-.079.06-.155.12-.221.182a11 3 0 0 0 -.0957 .101562c-.057.062-.112.124-.154.188a11 3 0 0 0 -.06836 .121094c-.029.055-.057.11-.074.166A11 3 0 0 0 21 25v10a11 3 0 0 0 1 1.242188 11 3 0 0 0 .01172 .0059 11 3 0 0 0 .476562 .251953 11 3 0 0 0 .03125 .01367 11 3 0 0 0 .550781 .232422 11 3 0 0 0 .06445 .02344 11 3 0 0 0 .589843 .201172 11 3 0 0 0 .132813 .04102 11 3 0 0 0 .65039 .179687 11 3 0 0 0 .09961 .02539 11 3 0 0 0 .773437 .175781 11 3 0 0 0 .05273 .0098 11 3 0 0 0 .814453 .15039 11 3 0 0 0 .138672 .02344 11 3 0 0 0 .779297 .115234 11 3 0 0 0 .220703 .0293 11 3 0 0 0 .736328 .08203 11 3 0 0 0 .367187 .03711 11 3 0 0 0 .539063 .04492 11 3 0 0 0 .591797 .04102 11 3 0 0 0 .490234 .02539 11 3 0 0 0 .576172 .02344 11 3 0 0 0 .462891 .01367A11 3 0 0 0 32 38a11 3 0 0 0 .958984 -.01367 11 3 0 0 0 .414063 -.01367 11 3 0 0 0 .716797 -.0293 11 3 0 0 0 .345703 -.02148 11 3 0 0 0 .707031 -.04883 11 3 0 0 0 .31836 -.0293 11 3 0 0 0 .767578 -.07617 11 3 0 0 0 .179687 -.02148 11 3 0 0 0 .808594 -.107422 11 3 0 0 0 .212891 -.03516 11 3 0 0 0 .677734 -.111328 11 3 0 0 0 .3125 -.06055 11 3 0 0 0 .595703 -.125 11 3 0 0 0 .195313 -.04687 11 3 0 0 0 .662109 -.167969 11 3 0 0 0 .01367 -.0039 11 3 0 0 0 .02344 -.0078 11 3 0 0 0 .701172 -.21875 11 3 0 0 0 .636719 -.24414 11 3 0 0 0 .002 0 11 3 0 0 0 .0059 -.002 11 3 0 0 0 .535157 -.253906 11 3 0 0 0 .0059 -.0039A11 3 0 0 0 42 36.24219 11 3 0 0 0 43 35v-4h-2.385C38.883 31.596 35.693 32 32 32 26.477 32 22 31.1 22 30v-3.758c.001.001.003.001.004.002a11 3 0 0 0 .744141 .371093c.011.005.02.009.031.014a11 3 0 0 0 .929687 .339844 11 3 0 0 0 1.058594 .287109c.029.007.058.013.088.02a11 3 0 0 0 2.511719 .441406c.036.005.073.009.109.014a11 3 0 0 0 1.316407 .136719c.039.003.076.007.115.01a11 3 0 0 0 1.398438 .08594c.108.005.217.006.326.01A11 3 0 0 0 32 28 11 3 0 0 0 35 27.882812v-.977a10 2 0 0 1 -1 .05273v-.01C33.35 26.979 32.693 27 32 27 31.31 27 30.635 26.986 29.984 26.959 29.389 26.935 28.819 26.898 28.27 26.854a10 2 0 0 1 -.289062 -.02344c-.524-.046-1.028-.101-1.5-.164-.031-.004-.065-.008-.096-.012-.486-.066-.934-.143-1.354-.225a10 2 0 0 1 -.138672 -.02539c-.393-.08-.746-.166-1.068-.258a10 2 0 0 1 -.171875 -.04883c-.293-.089-.544-.183-.764-.281a10 2 0 0 1 -.177735 -.07813c-.029-.015-.054-.03-.082-.045a10 2 0 0 1 -.232422 -.140625c-.031-.022-.057-.044-.084-.066a10 2 0 0 1 -.132813 -.117187c-.027-.029-.047-.058-.068-.088a10 2 0 0 1 -.06836 -.113281C22.02 25.11 22 25.06 22 25a10 2 0 0 1 .199219 -.396484 10 2 0 0 1 .623047 -.396485c.228-.106.505-.206.816-.301a10 2 0 0 1 .103516 -.0332 10 2 0 0 1 .0039 -.002c.342-.1.729-.192 1.154-.277.016-.003.029-.007.045-.01.422-.084.884-.161 1.375-.229a10 2 0 0 1 .142579 -.01953c.456-.061.946-.113 1.451-.158a10 2 0 0 1 .34961 -.03125c.512-.041 1.044-.074 1.594-.098a10 2 0 0 1 .220703 -.0098C30.701 23.01 31.342 23 32 23c.693 0 1.353.021 2 .051v-.01a10 2 0 0 1 1 .05273v-.979A11 3 0 0 0 32 22m0 16h-1v3h1v1h-8v-1h-3v3h3v-1h16v1h3v-3h-3v1h-7v-1h1v-3zm7-16V25h1v-1.219c.611.545 1 1.331 1 2.219 0 1.662-1.338 3-3 3h-2v1h2c2.216 0 4-1.784 4-4 0-1.205-.534-2.272-1.373-3H42V22zM22 31.24C23.784 32.31 27.692 32.999 32 33 36.31 32.999 40.22 32.31 42 31.24V35A10 2 0 0 1 32 37 10 2 0 0 1 22 35V33zM32 39h1v1h-1zm-10 3h1v1h-1zm19 0h1v1h-1z" fill="#fff" opacity=".75"/>
</svg>
