<svg width="64" height="64" version="1.1" viewBox="0 0 64 64" xmlns="http://www.w3.org/2000/svg">
 <defs>
  <linearGradient id="a" x1="49.571" x2="51.714" y1="52.714" y2="54.857" gradientTransform="matrix(2.3333,0,0,2.3333,-68.667,-72.001)" gradientUnits="userSpaceOnUse">
   <stop offset="0"/>
   <stop stop-opacity="0" offset="1"/>
  </linearGradient>
 </defs>
 <g transform="scale(1)">
  <rect x="8" y="4" width="48" height="56" ry="5" fill="#51db51" style="paint-order:stroke fill markers"/>
  <path d="m56 46-14 14h9c2.77 0 5-2.23 5-5z" fill="url(#a)" fill-rule="evenodd" opacity=".15" stroke-width="8.8191" style="paint-order:stroke fill markers"/>
 </g>
 <g color="#000000" color-rendering="auto" fill="#fff" image-rendering="auto" shape-rendering="auto" text-rendering="auto">
  <path d="m35.734 22.01c-3.983 0-7.211 3.228-7.211 7.207 0 1.082.245 2.103.672 3.02l-1.234 1.461-.107 1.369c-.011.01-1.344.049-1.344.049l-.686.496c0 0 .006 1.495 0 1.475l-.002.002-1.467.023-.621.709-.014 1.34c0 0-1.266-.083-1.395.035-.81.746-1.355 1.277-1.355 1.277l.006 3.506c0 0 .469-.002.688-.002l9.338-9.336c.495.431 1.049.794 1.648 1.078l.002-.002c.936.444 1.979.701 3.084.701 3.983 0 7.211-3.227 7.211-7.207 0-3.979-3.228-7.206-7.213-7.205m1.377 3.434c1.327 0 2.402 1.077 2.402 2.404 0 1.327-1.075 2.402-2.402 2.402-1.328 0-2.404-1.075-2.404-2.402 0-1.327 1.076-2.404 2.404-2.404" opacity=".75"/>
  <path d="m37.11 25.445c-1.328 0-2.404 1.077-2.404 2.404s1.076 2.402 2.404 2.402c1.327 0 2.402-1.075 2.402-2.402s-1.075-2.404-2.402-2.404m0 1.373c0.569 0 1.029 0.462 1.029 1.031s-0.461 1.029-1.029 1.029c-0.569 0-1.031-0.461-1.031-1.029 0-0.569 0.463-1.031 1.031-1.031m-6.109 7.828-9.342 9.34h3.434l8.154-8.01c-0.832-0.307-1.59-0.757-2.246-1.328" opacity=".5"/>
 </g>
</svg>
