<?xml version="1.0" encoding="UTF-8"?>
<svg width="64" height="64" version="1.1" viewBox="0 0 16.933 16.933" xmlns="http://www.w3.org/2000/svg" xmlns:cc="http://creativecommons.org/ns#" xmlns:dc="http://purl.org/dc/elements/1.1/" xmlns:rdf="http://www.w3.org/1999/02/22-rdf-syntax-ns#">
 <metadata>
  <rdf:RDF>
   <cc:Work rdf:about="">
    <dc:format>image/svg+xml</dc:format>
    <dc:type rdf:resource="http://purl.org/dc/dcmitype/StillImage"/>
    <dc:title/>
   </cc:Work>
  </rdf:RDF>
 </metadata>
 <defs>
  <linearGradient id="a" x1="49.571" x2="51.714" y1="52.714" y2="54.857" gradientTransform="matrix(.61734 0 0 .61734 -18.168 -19.05)" gradientUnits="userSpaceOnUse">
   <stop offset="0"/>
   <stop stop-opacity="0" offset="1"/>
  </linearGradient>
 </defs>
 <rect x="2.1166" y="1.0583" width="12.7" height="14.816" ry="1.3229" fill="#8f76e4" stroke-width=".26458" style="paint-order:stroke fill markers"/>
 <g transform="matrix(.066145 0 0 .066145 -1.0583 -1.852)" enable-background="new" fill="none" stroke="#8f76e4" stroke-width="8">
  <path transform="matrix(4 0 0 4 16 27.999)" d="m34 17c-5.3575 0-10.312 2.8604-12.99 7.5-2.6786 4.6396-2.6786 10.36 0 15 2.6786 4.6396 7.633 7.5 12.99 7.5h22v-2h-22c-4.6458 0-8.9349-2.4765-11.258-6.5-2.3229-4.0235-2.3229-8.9765 0-13 2.3229-4.0235 6.6117-6.5 11.258-6.5v-2zm-0.58008 4.0156c-2.665 0.14145-5.2478 1.2484-7.209 3.2148-3.138 3.1463-4.0744 7.8801-2.3711 11.984 1.7032 4.1042 5.7165 6.7852 10.16 6.7852h22v-2h-22c-3.6409 0-6.9189-2.1879-8.3145-5.5508-1.3956-3.3628-0.62968-7.2268 1.9414-9.8047 2.5711-2.5779 6.4344-3.3534 9.8008-1.9668l0.76172-1.8496c-1.5407-0.63463-3.1705-0.89737-4.7695-0.8125zm0.36719 3.9902c-1.1298 0.033356-2.2597 0.33851-3.2871 0.93164-2.7398 1.5817-4.0806 4.8194-3.2617 7.875 0.81876 3.0556 3.5984 5.1875 6.7617 5.1875h22v-2h-22c-2.2677 0-4.2431-1.5146-4.8301-3.7051-0.58708-2.1905 0.36586-4.491 2.3301-5.625 1.9643-1.134 4.4315-0.80873 6.0352 0.79492l1.4141-1.4141c-1.398-1.398-3.2791-2.1005-5.1621-2.0449z" color="#000000" color-rendering="auto" dominant-baseline="auto" enable-background="accumulate" fill="#fff" image-rendering="auto" shape-rendering="auto" solid-color="#000000" stroke="none" style="font-feature-settings:normal;font-variant-alternates:normal;font-variant-caps:normal;font-variant-ligatures:normal;font-variant-numeric:normal;font-variant-position:normal;isolation:auto;mix-blend-mode:normal;shape-padding:0;text-decoration-color:#000000;text-decoration-line:none;text-decoration-style:solid;text-indent:0;text-orientation:mixed;text-transform:none;white-space:normal"/>
 </g>
 <path d="m14.816 12.171-3.7041 3.7041h2.3812c0.73288 0 1.3229-0.59001 1.3229-1.3229z" fill="url(#a)" fill-rule="evenodd" opacity=".15" stroke-width="2.3333" style="paint-order:stroke fill markers"/>
</svg>
