<svg width="64" height="64" version="1.1" viewBox="0 0 64 64" xmlns="http://www.w3.org/2000/svg">
 <defs>
  <linearGradient id="a" x1="49.571" x2="51.714" y1="52.714" y2="54.857" gradientTransform="matrix(2.3333,0,0,2.3333,-68.667,-72.001)" gradientUnits="userSpaceOnUse">
   <stop offset="0"/>
   <stop stop-opacity="0" offset="1"/>
  </linearGradient>
 </defs>
 <g transform="scale(1)">
  <rect x="8" y="4" width="48" height="56" ry="5" fill="#326796" style="paint-order:stroke fill markers"/>
  <path d="m56 46-14 14h9c2.77 0 5-2.23 5-5z" fill="url(#a)" fill-rule="evenodd" opacity=".15" stroke-width="8.8191" style="paint-order:stroke fill markers"/>
 </g>
 <path d="m32 21c-6.094 0-11 4.906-11 11s4.906 11 11 11 11-4.906 11-11-4.906-11-11-11m0 1c1.662 0 3.222 0.408 4.598 1.119 4e-3 0.04 3e-3 0.069 0 0.113 0.058 0.026 0.092 0.134 0.189 0.188 0.036 0.02 0.06 0.029 0.094 0.047 0.058 0.032 0.106 0.085 0.094 0.141-0.016 0.082-0.132 0.079-0.188 0.139 8e-3 0.116-0.064 0.111-0.094 0.189 0.018 0.05 0.086 0.034 0.094 0.094-0.01 0.064-0.118 0.073-0.094 0.139 0.108 0.084 0.226 0.014 0.328 0 0.224-0.028 0.423 0.014 0.561-0.094-0.018-0.106 0.153-0.138 0.141-0.234-0.01-0.072-0.134-0.089-0.188-0.139-0.012-0.011-0.028-0.039-0.041-0.061 0.165 0.108 0.322 0.226 0.48 0.344-0.039 0.032-0.071 0.072-0.111 0.09-0.042 0.018-0.103 0.023-0.141 0.047-0.056 0.038-0.077 0.097-0.141 0.139-0.046 0.032-0.186 0.141-0.234 0.141-0.058 0-0.145-0.059-0.188-0.045-0.06 0.018-0.026 0.115-0.094 0.139-0.132 0.048-0.376-0.104-0.422 0.094 0.056 0.114 0.228 0.079 0.328 0.141 0.062 0.04 0.172 0.213 0.188 0.281 0.016 0.056 0.024 0.268 0 0.328-0.062 0.16-0.238 0.145-0.422 0.141-0.05 0-0.095 4e-3 -0.141 0-0.31-0.02-0.608-0.128-0.748 0.094 0.01 0.17 0.038 0.274 0 0.422-0.028 0.108-0.147 0.187-0.141 0.281 2e-3 0.048 0.082 0.122 0.094 0.188 8e-3 0.036-0.016 0.109 0 0.141 0.052 0.098 0.189-0.016 0.281 0 0.088 0.014 0.189 0.136 0.189 0.234 0 0.07-0.052 0.213-0.096 0.281-0.088 0.132-0.249 0.116-0.375 0.188-0.104 0.06-0.126 0.179-0.188 0.283-0.066 0.112-0.12 0.168-0.094 0.328-0.09 0.178-0.191 0.289-0.377 0.375-0.054 0.024-0.138 0.058-0.188 0.094-0.04 0.028-0.085 0.077-0.141 0.141-0.07 0.078-0.15 0.128-0.188 0.188-0.028 0.046-0.017 0.126-0.047 0.188-0.044 0.084-0.132 0.15-0.188 0.234-0.026 0.04-0.066 0.089-0.094 0.141-0.064 0.116-0.153 0.226-0.141 0.328 0.01 0.098 0.135 0.102 0.141 0.188 6e-3 0.048-0.049 0.087-0.047 0.139 2e-3 0.076 0.041 0.129 0.047 0.189 0.014 0.148-0.066 0.179-0.094 0.281-0.014 0.048 0.012 0.103 0 0.141-0.024 0.074-0.139 0.144-0.141 0.232-2e-3 0.062 0.088 0.101 0.094 0.189 4e-3 0.06-0.057 0.132-0.045 0.188 0.022 0.108 0.244 0.244 0.328 0.328 0.114 0.114 0.231 0.208 0.281 0.328 0.042 0.102 0.063 0.252 0.141 0.328 0.058 0.056 0.16 0.081 0.234 0.139 0.07 0.054 0.158 0.083 0.232 0.141 0.122 0.096 0.275 0.295 0.469 0.281 0.102-8e-3 0.214-0.074 0.328-0.094 0.118-0.02 0.255-0.057 0.375-0.045 0.092 0.01 0.187 0.051 0.283 0.045 0.1-6e-3 0.214-0.044 0.328-0.094 0.198-0.086 0.507-0.229 0.795-0.188 0.22 0.032 0.223 0.277 0.377 0.375 0.176 0.016 0.327-0.034 0.467 0 0.106 0.026 0.224 0.199 0.234 0.283 0.01 0.086-0.082 0.178-0.094 0.232-0.028 0.116-0.027 0.254-0.047 0.328-0.016 0.058-0.047 0.13-0.045 0.188 0 0.052 0.087 0.166 0.141 0.234 0.066 0.084 0.152 0.142 0.232 0.234 0.146 0.168 0.226 0.387 0.328 0.609 0.026 0.056-0.024 0.071 0 0.141-0.044 0.336-0.155 0.566-0.375 0.938-0.104 0.12-0.236 0.272-0.234 0.422-8e-3 0.36 0.203 0.541 0.188 0.889-0.036 0.468-9e-3 0.547-0.045 0.797 0.158 0.08 0.091 0.301 0.045 0.467-0.068 0.198-0.15 0.245-0.188 0.377 0.124 0.054 0.26 0.041 0.398 6e-3 -1.822 1.942-4.408 3.158-7.293 3.158-1.228 0-2.398-0.23-3.482-0.631-0.04-0.016-0.084-0.025-0.123-0.047-0.062-0.036-0.102-0.112-0.094-0.188 0.104-0.044 0.301 0.099 0.377-0.047 0.038-0.07-0.05-0.211 0-0.281 0.036-0.048 0.254-0.082 0.328-0.094 0.106-0.018 0.221-9e-3 0.281-0.047 0.066-0.042 0.153-0.157 0.141-0.281-6e-3 -0.058-0.048-0.089-0.094-0.141-0.038-0.044-0.021-0.099-0.047-0.139-0.048-0.07-0.121-0.086-0.141-0.188 0.144-0.028 0.355 0.152 0.563 0.094 0.098-0.028 0.235-0.236 0.281-0.328 0.014-0.028-0.016-0.107 0-0.141 0.018-0.038 0.09-0.074 0.096-0.094 0.014-0.054-0.012-0.06 0-0.094 0.036-0.102 0.128-0.16 0.188-0.234 0.046-0.056 0.099-0.13 0.141-0.188 0.048-0.062 0.062-0.087 0.094-0.141 0.03-0.182-0.091-0.307-0.047-0.467 0.048-0.18 0.295-0.295 0.469-0.377 0.06-0.028 0.138-0.076 0.188-0.094 0.12-0.042 0.263-0.054 0.375-0.094 0.188-0.068 0.236-0.25 0.328-0.422 0.044-0.08 0.088-0.176 0.096-0.234 8e-3 -0.052-0.01-0.079 0-0.139s0.029-0.123 0.045-0.189c0.022-0.086 0.047-0.23 0.047-0.326 0-0.08-0.045-0.117-0.047-0.189-0.014-0.26 0.092-0.28 0.188-0.422 0.048-0.07 0.06-0.182 0.094-0.232 0.162-0.24 0.442-0.341 0.422-0.705-8e-3 -0.12-0.051-0.384-0.139-0.422-0.05-0.022-0.16-0.017-0.234-0.045-0.236-0.088-0.41-0.357-0.656-0.377-0.052-2e-3 -0.083 2e-3 -0.141 0-0.096-2e-3 -0.218-0.082-0.326-0.094-0.068-8e-3 -0.194 0.02-0.234 0-0.062-0.03-0.044-0.154-0.094-0.188-0.04-0.028-0.127-0.025-0.189-0.047-0.098-0.038-0.167-0.086-0.281-0.094-0.036-2e-3 -0.101 6e-3 -0.141 0-0.062-0.01-0.13-0.058-0.188-0.094-0.072-0.044-0.111-0.077-0.141-0.139 0.066-0.216-0.143-0.251-0.188-0.377-0.02-0.058 0.02-0.136 0-0.188-0.026-0.074-0.106-0.126-0.188-0.188-0.144-0.112-0.263-0.208-0.469-0.234-0.092-0.01-0.218 8e-3 -0.328 0-0.116-8e-3 -0.24-0.087-0.328-0.188-0.084-0.098-0.114-0.188-0.188-0.234-0.07-0.044-0.186-0.048-0.234-0.094-0.022-0.02-0.025-0.048-0.045-0.094-0.036-0.072-0.091-0.101-0.047-0.189-0.08-0.04-0.053 0.063-0.139 0.047-0.078-0.11-0.152-0.175-0.328-0.141-0.08 0.016-0.14 0.139-0.234 0.141-0.078 2e-3 -0.132-0.127-0.234-0.141-0.078-0.01-0.18 0.059-0.234 0.047-0.086-0.016-0.11-0.089-0.188-0.141-0.058-0.038-0.155-0.141-0.188-0.139-0.1 2e-3 -0.19 0.213-0.328 0.139-0.068-0.086 0.125-0.108 0.045-0.188-0.06-0.06-0.091 0.015-0.139 0.047-0.056 0.038-0.126 0.072-0.188 0.094-0.138 0.052-0.22 0.038-0.328 0.094-0.1 0.052-0.131 0.132-0.189 0.234-0.046 0.084-0.118 0.228-0.188 0.232-0.084 6e-3 -0.158-0.107-0.234-0.139-0.23-0.1-0.371 0.043-0.561 0.045-0.176 2e-3 -0.43-0.256-0.422-0.422 6e-3 -0.102 0.082-0.249 0.094-0.375 0.01-0.1 0.092-0.191 0.094-0.283 2e-3 -0.122-0.203-0.218-0.283-0.232-0.188-0.034-0.44 0.084-0.654 0-0.04-0.068 0.07-0.123 0.094-0.189 0.014-0.038-0.014-0.052 0-0.094 0.024-0.064 0.109-0.12 0.139-0.188 0.022-0.052 0.025-0.124 0.047-0.188 0.026-0.072 0.088-0.136 0.094-0.188 8e-3 -0.068-0.04-0.145-0.094-0.189-0.166 0.01-0.281 3e-3 -0.377 0.047-0.216 0.098-0.157 0.401-0.375 0.469-0.074 0.024-0.197 0.031-0.281 0.045-0.037 7e-3 -0.078 0.013-0.119 0.023 0.14-0.726 0.356-1.424 0.643-2.084 0.048 0 0.098-6e-3 0.131 0 0.076 0.014 0.123 0.088 0.189 0.094 0.184 0.014 0.223-0.154 0.375-0.234 0.156 0.022 0.235-0.016 0.377 0 0.096 0.01 0.205 0.135 0.281 0.141 0.064 2e-3 0.081-0.057 0.141-0.047s0.177 0.116 0.188 0.188c0.01 0.09-0.073 0.183-0.047 0.283 0.094 0.096 0.288 0.132 0.422 0.188 0.088-0.072 0.014-0.224 0-0.328-2e-3 -0.046 6e-3 -0.099 0-0.141-0.01-0.072-0.045-0.126-0.045-0.188 0-0.286 0.23-0.404 0.422-0.516 0.082-0.048 0.162-0.152 0.234-0.188 0.102-0.05 0.15-0.046 0.234-0.094 0.152-0.086 0.304-0.185 0.422-0.283 0.054-0.13-6e-3 -0.294 0-0.422 0.054-0.034 0.081 6e-3 0.139 0 0.092-0.02 0.137-0.136 0.189-0.188 0.03-0.03 0.103-0.064 0.139-0.094 0.092-0.072 0.108-0.156 0.188-0.188 0.028-0.01 0.097-0.035 0.141-0.047 0.06-0.016 0.138-0.06 0.234-0.094 0.062-0.022 0.21-0.021 0.234-0.045 0.03-0.03-8e-3 -0.143 0-0.189 0.048-0.226 0.407-0.25 0.609-0.326 0.14-0.054 0.266-0.171 0.422-0.141-0.03 0.108-0.167 0.104-0.141 0.234 0.034 0.182 0.264-0.068 0.328-0.094 0.122-0.052 0.356-0.083 0.516-0.141 0.14-0.05 0.366-0.119 0.234-0.281-0.11-8e-3 -0.138 0.099-0.234 0.139-0.066 0.01-0.083-0.041-0.139-0.045-0.054-2e-3 -0.087 0.055-0.141 0.045s-0.133-0.124-0.141-0.188c-0.022-0.168 0.166-0.204 0.234-0.328-0.046-0.152-0.247-0.034-0.375-0.094 0.014-0.09 0.081-0.169 0.188-0.188 0.086-0.014 0.276 3e-3 0.328 0.045 0.03 0.026-1e-3 0.099 0.045 0.141 0.052 0.046 0.121 0.01 0.189 0 0.024-0.114-0.161-0.067-0.141-0.141 0.136-0.088 0.397-0.023 0.563-0.045 0.096-0.014 0.195-0.095 0.281-0.141 0.08-0.046 0.15-0.121 0.234-0.045 0.024 0.082-0.048 0.146-0.094 0.188-0.154 0.136-0.302 0.264-0.422 0.422 0.074 0.072 0.204 0.031 0.328 0.045 0.048 6e-3 0.089 0.039 0.139 0.047 0.06 0.01 0.141-0.01 0.189 0 0.084 0.02 0.104 0.141 0.188 0.141 0.136 0 0.123-0.142 0.045-0.234 0.024-0.094 0.081-0.168 0.047-0.234-0.062-0.124-0.316 0.017-0.328-0.141-8e-3 -0.1 0.105-0.112 0.141-0.188-0.016-0.192 0.159-0.201 0.139-0.375-0.01-0.072-0.089-0.073-0.139-0.141-0.026-0.036-0.017-0.115-0.047-0.141-0.104-0.088-0.316-0.064-0.328-0.232-6e-3 -0.1 0.014-0.175 0-0.283-0.014-0.102-0.099-0.402-0.188-0.422-0.112-0.024-0.194 0.172-0.328 0.234-0.072 0.034-0.207 0.061-0.281 0.047-0.048-0.01-0.135-0.049-0.141-0.141-0.01-0.106 0.074-0.122 0.094-0.234 0.862-0.24 1.767-0.379 2.707-0.379m-4.03 0.847c-0.029 0.411-0.396 0.624-0.828 0.613-0.092 0.088-0.044 0.253-0.094 0.375-0.042 0.102-0.179 0.197-0.281 0.189-0.074-6e-3 -0.188-0.119-0.188-0.189 0-0.086 0.119-0.134 0.045-0.232 3e-3 -0.02 0.03-0.041 0.051-0.063 0.414-0.26 0.843-0.495 1.295-0.693m8.348 0.477c-0.037 7e-3 -0.057 0.026-0.09 0.045-0.076 0.046-0.083 0.119-0.141 0.141-0.082 0.03-0.175 0.02-0.188 0.094-0.01 0.062 0.049 0.083 0.047 0.139-0.03 0.074-0.078 0.098-0.094 0.188 0.102 0.166 0.341-9e-3 0.467-0.045 0.056-0.016 0.111-3e-3 0.141-0.047 0.034-0.054 0.019-0.156 0.045-0.232 0.028-0.084 0.104-0.067 0.094-0.141-8e-3 -0.074-0.157-0.153-0.281-0.141m-10.947 1.193c0.097 0.05 0.261 0.275 0.074 0.355-0.02 0.01-0.28 0.055-0.328 0.045-0.039-6e-3 -0.071-0.041-0.104-0.076 0.115-0.112 0.237-0.218 0.357-0.324m0.354 0.447c0.048 2e-3 0.085 0.09 0.141 0.094 0.054 4e-3 0.109-0.057 0.141-0.047 0.084 0.022 0.125 0.172 0.045 0.234-0.066 8e-3 -0.091-0.055-0.139-0.045-0.136 0.024-0.181 0.289-0.283 0.281-0.096-0.01-0.143-0.211-0.045-0.281 2e-3 -0.06-0.051-0.081-0.047-0.141 0.03-0.038 0.108-0.1 0.188-0.094zm-0.467 0.047c0.028 0 0.035-0.012 0.045 0-0.014 0.106-0.057 0.139-0.139 0.189-0.142 0.086-0.237 0.191-0.283 0.375-0.014 0.054-0.164 0.201-0.232 0.188-0.158-0.034 0.058-0.329 0.094-0.375 0.04-0.05 0.093-0.085 0.139-0.141s0.05-0.156 0.094-0.188c0.048-0.034 0.199-0.051 0.283-0.047zm14.15 0.268c0.063 0.07 0.128 0.138 0.189 0.209-0.063-0.074-0.166-0.102-0.189-0.209m-0.611 0.02c0.158-0.01 0.256 0.185 0.328 0.281 0.06 0.078 0.23 0.18 0.328 0.234 0.056 0.03 0.126 0.066 0.188 0.094 0.13 0.058 0.369 0.247 0.375 0.375 2e-3 0.064-0.055 0.129-0.045 0.189 0.098 0.016 0.185-0.136 0.188-0.234 0-0.023-8e-3 -0.038-0.018-0.053 0.283 0.396 0.538 0.812 0.762 1.248-0.088 0.026-0.164 0.068-0.178 0.154-0.02 0.112 0.074 0.261-0.094 0.281-0.106 0.014-0.231-0.109-0.377-0.141-0.06-0.014-0.14 0.016-0.188 0-0.11-0.038-0.093-0.166-0.188-0.232-0.054-0.038-0.197-0.084-0.283-0.094-0.054-6e-3 -0.083 8e-3 -0.139 0-0.068-8e-3 -0.178-0.013-0.234-0.047-0.054-0.034-0.173-0.095-0.188-0.141-0.022-0.074 0.135-0.17 0.139-0.232 4e-3 -0.048-0.035-0.069-0.045-0.141-8e-3 -0.044 0.01-0.113 0-0.141-0.014-0.052-0.107-0.092-0.189-0.094-0.072 0-0.126 0.047-0.188 0.047-0.088 2e-3 -0.265-0.057-0.375-0.047-0.066 6e-3 -0.127 0.043-0.189 0.047-0.174 0.014-0.286-0.01-0.422 0-0.098 6e-3 -0.283 0.052-0.375 0.094-0.046 0.022-0.081 0.064-0.141 0.094-0.028 0.014-0.058 0.029-0.094 0.045-0.056 0.026-0.133 0.082-0.188 0.096-0.078 0.02-0.186-6e-3 -0.328 0-0.102 6e-3 -0.279-0.019-0.281-0.141-2e-3 -0.186 0.34-0.109 0.516-0.141 0.066-0.014 0.108-0.093 0.188-0.139 0.038-0.022 0.058-0.023 0.094-0.047 0.06-0.042 0.178-0.14 0.188-0.188 8e-3 -0.044-0.051-0.109-0.045-0.141 8e-3 -0.042 0.085-0.085 0.139-0.139 0.084-0.084 0.13-0.18 0.234-0.234 0.07-0.038 0.202-0.038 0.234-0.094 8e-3 -0.064-2e-3 -0.083 0-0.141 0.044-0.04 0.058-0.086 0.094-0.094 0.108-0.024 0.202 0.051 0.328 0.045 0.054-2e-3 0.13-7e-3 0.188-0.045 0.048-0.032 0.093-0.07 0.141-0.094 0.052-0.028 0.077-0.09 0.141-0.094m-12.514 0.096h2e-3c0.046-2e-3 0.091 0 0.141 0s0.119-0.02 0.139 0c-0.032 0.132-0.318 0.093-0.422 0.045 6e-3 -0.05 0.077-0.039 0.141-0.045m13.314 0.096c0.057 0.067 0.116 0.131 0.172 0.199-9e-3 -5e-3 -0.023-7e-3 -0.031-0.014-0.056-0.044-0.085-0.118-0.141-0.186m-13.783 0.139c0.034 0 0.06-0.014 0.096 0-0.092 0.078-0.217 0.138-0.377 0.188-0.076 0.024-0.174 0.037-0.188-0.047-0.016-0.104 0.073-0.084 0.141-0.094 0.088-0.01 0.224-0.043 0.326-0.045zm13.03 2e-3c-0.066 0.022-0.098 0.17 0 0.188 0.046-0.028 0.059-0.104 0.047-0.188-0.026-0.028-0.027-8e-3 -0.047 0m-0.045 0.281c-0.032 0.01-0.06 9e-3 -0.094 0.045 2e-3 0.112 0.022 0.185 0 0.283 0.064 0.124 0.2 0.037 0.232-0.047 0.038-0.208-0.043-0.307-0.139-0.281m0.889 0.563c-0.088-4e-3 -0.18 3e-3 -0.232 0.045 0.074 0.12 0.209 0.158 0.375 0.188 0.06-0.044 0.066-0.156 0.094-0.232-0.072 0-0.146 4e-3 -0.234 0zm-17.572 4.119c0.113 0.102 0.191 0.273 0.326 0.34 0.05 0.026 0.123 0.033 0.188 0.047 0.052 0.01 0.091 0.029 0.141 0.045 0.106 0.036 0.244 0.058 0.328 0.096 0.128 0.056 0.218 0.262 0.328 0.326 6e-3 0.064-0.02 0.141 0 0.189 0.052 0.07 0.15 0.093 0.234 0.139 0.102 0.056 0.136 0.19 0.232 0.234 0.034 0.014 0.089-0.016 0.141 0 0.132 0.04 0.169 0.221 0.283 0.188 0.074-0.022 0.082-0.116 0.094-0.188 0.05-0.054 0.11-0.141 0.188-0.141 0.124-2e-3 0.142 0.161 0.188 0.283 0.026 0.068 0.076 0.116 0.094 0.188 0.03 0.124 0.026 0.489 0 0.563-0.032 0.092-0.158 0.132-0.234 0.232-0.036 0.048-0.066 0.109-0.094 0.141-0.048 0.06-0.103 0.087-0.139 0.141-0.02 0.03-0.029 0.097-0.047 0.139-0.06 0.128-0.144 0.223-0.094 0.377 0.02 0.062 0.094 0.114 0.094 0.188 0 0.088-0.174 0.138-0.188 0.234-0.01 0.07 0.072 0.187 0.094 0.281 0.016 0.07 0.145 0.142 0.188 0.188 0.07 0.078 0.125 0.183 0.189 0.283 0.126 0.194 0.202 0.419 0.326 0.609 0.066 0.098 0.19 0.177 0.234 0.281 0.022 0.052-0.02 0.14 0 0.188 0.072 0.162 0.401 0.342 0.563 0.422 0.076 0.038 0.164 0.056 0.234 0.096 0.106 0.06 0.321 0.187 0.375 0.281 0.048 0.084 0.07 0.288 0.094 0.422 0.03 0.176-8e-3 0.326 0 0.516 6e-3 0.104 0.047 0.177 0.047 0.281 0 0.036 2e-3 0.105 0 0.141-2e-3 0.124 0.01 0.249 0 0.375-6e-3 0.068-4e-3 0.131 0 0.189 6e-3 0.062 0.041 0.085 0.045 0.139 4e-3 0.058-0.051 0.143-0.045 0.189 0.014 0.126 0.117 0.21 0.141 0.326 0.02 0.092 0.057 0.312 0.045 0.422-8e-3 0.058-0.037 0.125-0.045 0.189-6e-3 0.05 8e-3 0.093 0 0.139-6e-3 0.045-0.017 0.082-0.029 0.121-2.782-1.772-4.627-4.875-4.627-8.432 0-0.479 0.045-0.946 0.109-1.406m3.891 1.096c0.096-0.044 0.078 0.129 0 0.141-0.074 0.01-0.072-0.107 0-0.141" color="#000000" color-rendering="auto" fill="#fff" image-rendering="auto" opacity=".75" shape-rendering="auto"/>
</svg>
