<svg width="64" height="64" version="1.1" viewBox="0 0 16.933 16.933" xmlns="http://www.w3.org/2000/svg">
 <defs>
  <linearGradient id="a" x1="49.571" x2="51.714" y1="52.714" y2="54.857" gradientTransform="matrix(2.3333,0,0,2.3333,-68.667,-72.001)" gradientUnits="userSpaceOnUse">
   <stop offset="0"/>
   <stop stop-opacity="0" offset="1"/>
  </linearGradient>
 </defs>
 <g transform="scale(.26458)">
  <rect x="8" y="4" width="48" height="56" ry="5" fill="#c92429" style="paint-order:stroke fill markers"/>
  <path d="m56 46-14 14h9c2.77 0 5-2.23 5-5z" fill="url(#a)" fill-rule="evenodd" opacity=".15" stroke-width="8.8191" style="paint-order:stroke fill markers"/>
 </g>
 <path d="m8.6318 4.7624c-1.2902 0.22976-2.5811 0.53459-3.8713 0.76014 0 1.9626-8.5e-4 3.9261 0 5.8896 1.2835 0.22471 2.5676 0.5245 3.8485 0.75847h0.38446v-7.4082zm1.5215 1.0251c-0.29991 0.0029-0.59981 0.02779-0.89515 0.06847v1.0954c0.82989 0.12523 1.6951 0.09973 2.495-0.17014 0.16933-0.07408 0.38355-0.1667 0.41883-0.37219-0.04762-0.25135-0.32974-0.34576-0.54052-0.42426-0.47844-0.14607-0.97833-0.20218-1.4782-0.19727zm2.0179 1.0475c-0.31397 0.25223-0.71884 0.33605-1.1069 0.39338-0.59883 0.07849-1.2074 0.07934-1.8062 0.0035v1.1429c0.74788 0.09613 1.516 0.09183 2.2524-0.08191 0.22577-0.06438 0.47632-0.1315 0.63419-0.31935 0.05644-0.3757 0.0071-0.75931 0.02648-1.1385zm-5.0809 0.25747c0.29544 0.98776 0.57597 1.9809 0.86789 2.9695-0.20372-0.01323-0.40755-0.02825-0.60951-0.04677-0.0538-0.22048-0.11103-0.44094-0.16924-0.66054-0.27075-8.75e-4 -0.54156-0.0098-0.81143-0.023-0.05203 0.20902-0.10498 0.41714-0.15877 0.62527-0.17286-0.01323-0.34478-0.02548-0.51675-0.03695 0.25752-0.92867 0.52557-1.8538 0.78133-2.7825 0.20549-0.01499 0.41012-0.02921 0.61649-0.04509zm-0.33163 0.52838c-0.05909 0.41892-0.19139 0.82191-0.28047 1.2347 0.19402 0.0017 0.38812 0.0026 0.58303 0.0035-0.10054-0.41274-0.22319-0.82011-0.30256-1.2381zm5.4125 0.62527c-0.3122 0.25135-0.71442 0.33515-1.1016 0.39247-0.60059 0.07938-1.2109 0.08112-1.8115 0.0044v1.1438c0.74964 0.09525 1.5204 0.09089 2.2586-0.08462 0.22489-0.06438 0.47533-0.1314 0.62967-0.32013 0.05203-0.3757 0.0072-0.75761 0.02481-1.136zm0 1.411c-0.31397 0.25135-0.71703 0.33603-1.1051 0.39247-0.59971 0.07938-1.2083 0.08112-1.808 0.0044 0 0.38011 0.0027 0.75933-0.0035 1.1394 0.6297 0.09084 1.2726 0.08915 1.9014-7e-3 0.34307-0.06967 0.73909-0.11994 0.98868-0.39157 0.05556-0.3757 8e-3 -0.75942 0.02648-1.1378z" enable-background="new" fill="#fff" stroke-width=".088193"/>
</svg>
