<svg width="64" height="64" version="1.1" viewBox="0 0 16.933 16.933" xmlns="http://www.w3.org/2000/svg">
 <defs>
  <linearGradient id="a" x1="49.571" x2="51.714" y1="52.714" y2="54.857" gradientTransform="matrix(.61734 0 0 .61734 -18.168 -19.05)" gradientUnits="userSpaceOnUse">
   <stop offset="0"/>
   <stop stop-opacity="0" offset="1"/>
  </linearGradient>
 </defs>
 <rect x="2.1166" y="1.0583" width="12.7" height="14.816" ry="1.3229" fill="#f4f4f4" stroke-width=".26458" style="paint-order:stroke fill markers"/>
 <g transform="matrix(.066145 0 0 .066145 -1.5792 -1.3221)" enable-background="new" fill="#f09020">
  <path class="cls-1" d="m192 228-7.9539 0.0344v-21.156c-3.7298 3.5759-12.115 10.687-12.115 10.687l-11.931-10.687v21.121l-8-0.0436v-31.956s5.5277 0.0342 7.6495 0.0671c0.26076 0 0.54932 0.28 0.76305 0.4916 3.1847 3.1605 11.546 10.21 11.546 10.21s8.9156-7.5065 11.489-10.108c0.37683-0.42619 0.92817-0.65618 1.4962-0.62412 1.6266 0.0299 5.3591-0.0374 7.0562-0.0374z"/>
  <path class="cls-1" d="m127.14 205.1s5.7412-5.7006 8.6278-8.536c0.25822-0.25395 0.6402-0.53564 0.96457-0.54204 2.4669-0.0285 7.2676-0.0234 7.2676-0.0234v32h-8.0012v-20.803s-13.572 13.58-20.054 20.069c-0.45057 0.49497-1.0984 0.76332-1.767 0.73197-3.0218-0.0405-9.9551-9e-3 -9.9551-9e-3z"/>
  <path class="cls-1" d="m100.53 212.63-16.655-16.627s6.5 0 8.6803 7e-3c0.59603-0.0362 1.1765 0.19884 1.5795 0.63947 3.4446 3.4915 6.9149 6.9447 10.385 10.404 0.24512 0.24514 0.50518 0.47322 0.79081 0.73967 3.6834-3.6642 7.339-7.2751 10.956-10.924 0.59257-0.59897 1.1745-0.88247 2.0314-0.86542 1.6766-8e-4 8.413-8e-4 8.413-8e-4s-12.197 12.203-17.364 17.354c-4.6511 4.6319-9.3236 9.2447-13.962 13.892-0.47434 0.51688-1.1563 0.79249-1.8566 0.75032-2.3544 0.00441-8.2599 0.00441-8.2599 0.00441z"/>
  <path class="cls-1" d="m200 196h8v26s10.45 0.0106 15.257-0.015c0.60169-0.0383 1.1884 0.19759 1.596 0.64183 1.5105 1.564 3.043 3.1481 4.5791 4.6864 0.19255 0.19254 0.36157 0.40649 0.60761 0.68677l-30.04 2e-5z"/>
 </g>
 <g transform="matrix(.066145 0 0 .066145 -1.5875 -1.8513)" enable-background="new" fill="none" stroke="#999" stroke-width="8">
  <ellipse cx="152" cy="115.98" rx="52" ry="20" stroke-dashoffset="1" stroke-linejoin="round"/>
  <path d="m99.999 115.99v48"/>
  <g stroke-dashoffset="1" stroke-linejoin="round">
   <path d="m204 131.98a52 20 0 0 1-26 17.32 52 20 0 0 1-52 0 52 20 0 0 1-26-17.32"/>
   <path d="m204 147.98a52 20 0 0 1-26 17.321 52 20 0 0 1-52 0 52 20 0 0 1-26-17.321"/>
   <path d="m204 163.98a52 20 0 0 1-26 17.321 52 20 0 0 1-52 0 52 20 0 0 1-26-17.321"/>
  </g>
  <path d="m204 115.99v48"/>
 </g>
 <path d="m14.816 12.171-3.7041 3.7041h2.3812c0.73288 0 1.3229-0.59001 1.3229-1.3229z" fill="url(#a)" fill-rule="evenodd" opacity=".1" stroke-width="2.3333" style="paint-order:stroke fill markers"/>
</svg>
