<svg width="64" height="64" version="1.1" viewBox="0 0 16.933 16.933" xmlns="http://www.w3.org/2000/svg">
 <defs>
  <linearGradient id="a" x1="49.571" x2="51.714" y1="52.714" y2="54.857" gradientTransform="matrix(2.3333,0,0,2.3333,-68.667,-72.001)" gradientUnits="userSpaceOnUse">
   <stop offset="0"/>
   <stop stop-opacity="0" offset="1"/>
  </linearGradient>
 </defs>
 <g transform="scale(.26458)">
  <rect x="8" y="4" width="48" height="56" ry="5" fill="#e34e2b" style="paint-order:stroke fill markers"/>
  <path d="m56 46-14 14h9c2.77 0 5-2.23 5-5z" fill="url(#a)" fill-rule="evenodd" opacity=".15" stroke-width="8.8191" style="paint-order:stroke fill markers"/>
 </g>
 <g transform="translate(-17.672 1.3286)" fill="#fff" stroke-width=".088193">
  <path d="m26.438 3.4338c-1.2902 0.22976-2.5811 0.53459-3.8713 0.76014 0 1.9626-8.5e-4 3.9261 0 5.8896 1.2835 0.22471 2.5676 0.5245 3.8485 0.75847h0.38446v-7.4082zm-1.9413 2.3328c0.25455-0.0054 0.4988 0.03123 0.69723 0.21071 0.38011 0.46125 0.27959 1.3096-0.28396 1.5857-0.2002 0.1023-0.42953 0.08832-0.64736 0.08126-8.75e-4 0.34483-0.0018 0.68958-9e-4 1.0344-0.17462-0.01499-0.35001-0.02994-0.52463-0.04405-0.0079-0.9419-0.0098-1.8411 7.75e-4 -2.783 0.24834-0.03094 0.50431-0.07957 0.75885-0.08497zm-0.02933 0.51107c-0.06946-0.0018-0.14052 0.0045-0.20567 0.0075-0.0026 0.29633-0.0043 0.59169 0.01421 0.88714 0.1755-0.02117 0.40304-0.0035 0.50358-0.18513 0.08378-0.17815 0.08904-0.40578-0.0115-0.57864-0.07331-0.10197-0.18485-0.12777-0.30062-0.13087z" enable-background="new"/>
  <path d="m27.065 4.4921v0.87939c0.124-0.02662 0.25872-0.0767 0.39674-0.085v1.19h1.1827c-0.04202 0.36101-0.20295 0.73206-0.52128 0.92073-0.3122 0.2099-0.70894 0.2126-1.0582 0.10413 8.75e-4 0.17286-8.75e-4 0.52205 0 0.6949h2.1165v0.26458h-2.1165v0.52916h2.1165v0.26458h-2.1165v0.79374h2.6457v-5.5561zm0.66132 0.63406c0.56254 0.05826 1.0277 0.52454 1.0889 1.0857h-1.0889z" enable-background="new"/>
 </g>
</svg>
