<svg width="64" height="64" version="1.1" viewBox="0 0 16.933 16.933" xmlns="http://www.w3.org/2000/svg">
 <defs>
  <linearGradient id="a" x1="49.571" x2="51.714" y1="52.714" y2="54.857" gradientTransform="matrix(2.3333,0,0,2.3333,-68.667,-72.001)" gradientUnits="userSpaceOnUse">
   <stop offset="0"/>
   <stop stop-opacity="0" offset="1"/>
  </linearGradient>
 </defs>
 <g transform="scale(.26458)">
  <rect x="8" y="4" width="48" height="56" ry="5" fill="#f4f4f4" style="paint-order:stroke fill markers"/>
  <path d="m56 46-14 14h9c2.77 0 5-2.23 5-5z" fill="url(#a)" fill-rule="evenodd" opacity=".1" stroke-width="8.8191" style="paint-order:stroke fill markers"/>
 </g>
 <g transform="translate(-1.4e-4,-1.5875)" fill="#b3b3b3">
  <path d="m5.7553 8.1738h-0.30961v-1.6044q0-0.33776 0.014073-0.6333l-0.47849 0.40813-0.16888-0.2111 0.67552-0.53479h0.26739z"/>
  <path d="m6.656 6.879q0-0.66145 0.19703-0.98513 0.2111-0.33776 0.61923-0.33776 0.4222 0 0.61923 0.33776 0.2111 0.32369 0.2111 0.98513 0 0.66145-0.2111 0.9992-0.19703 0.32369-0.61923 0.32369-0.40813 0-0.61923-0.32369-0.19703-0.33776-0.19703-0.9992zm1.3229 0q0-0.59108-0.14073-0.81625-0.12666-0.22517-0.36591-0.22517-0.22517 0-0.36591 0.22517-0.12666 0.2111-0.12666 0.81625 0 0.61923 0.12666 0.8444 0.14073 0.2111 0.36591 0.2111 0.23925 0 0.36591-0.22517 0.14073-0.22517 0.14073-0.83032z"/>
  <path d="m8.6404 6.879q0-0.66145 0.19703-0.98513 0.2111-0.33776 0.61923-0.33776 0.4222 0 0.61923 0.33776 0.2111 0.32369 0.2111 0.98513 0 0.66145-0.2111 0.9992-0.19703 0.32369-0.61923 0.32369-0.40813 0-0.61923-0.32369-0.19703-0.33776-0.19703-0.9992zm1.3229 0q0-0.59108-0.14073-0.81625-0.12666-0.22517-0.36591-0.22517-0.22517 0-0.36591 0.22517-0.12666 0.2111-0.12666 0.81625 0 0.61923 0.12666 0.8444 0.14073 0.2111 0.36591 0.2111 0.23925 0 0.36591-0.22517 0.14073-0.22517 0.14073-0.83032z"/>
  <path d="m10.625 6.879q0-0.66145 0.19703-0.98513 0.2111-0.33776 0.61922-0.33776 0.4222 0 0.61923 0.33776 0.2111 0.32369 0.2111 0.98513 0 0.66145-0.2111 0.9992-0.19703 0.32369-0.61923 0.32369-0.40812 0-0.61922-0.32369-0.19703-0.33776-0.19703-0.9992zm1.3229 0q0-0.59108-0.14073-0.81625-0.12666-0.22517-0.36591-0.22517-0.22517 0-0.36591 0.22517-0.12666 0.2111-0.12666 0.81625 0 0.61923 0.12666 0.8444 0.14073 0.2111 0.36591 0.2111 0.23925 0 0.36591-0.22517 0.14073-0.22517 0.14073-0.83032z"/>
  <path d="m4.6717 10.054q0-0.66145 0.19703-0.98513 0.2111-0.33776 0.61923-0.33776 0.4222 0 0.61923 0.33776 0.2111 0.32369 0.2111 0.98513 0 0.66145-0.2111 0.9992-0.19703 0.32369-0.61923 0.32369-0.40813 0-0.61923-0.32369-0.19703-0.33776-0.19703-0.9992zm1.3229 0q0-0.59108-0.14073-0.81625-0.12666-0.22517-0.36591-0.22517-0.22517 0-0.36591 0.22517-0.12666 0.2111-0.12666 0.81625 0 0.61923 0.12666 0.8444 0.14073 0.2111 0.36591 0.2111 0.23925 0 0.36591-0.22517 0.14073-0.22517 0.14073-0.83032z"/>
  <path d="m7.7397 11.349h-0.30961v-1.6044q0-0.33776 0.014073-0.6333l-0.47849 0.40813-0.16888-0.2111 0.67552-0.53479h0.26739z"/>
  <path d="m8.6404 10.054q0-0.66145 0.19703-0.98513 0.2111-0.33776 0.61923-0.33776 0.4222 0 0.61923 0.33776 0.2111 0.32369 0.2111 0.98513 0 0.66145-0.2111 0.9992-0.19703 0.32369-0.61923 0.32369-0.40813 0-0.61923-0.32369-0.19703-0.33776-0.19703-0.9992zm1.3229 0q0-0.59108-0.14073-0.81625-0.12666-0.22517-0.36591-0.22517-0.22517 0-0.36591 0.22517-0.12666 0.2111-0.12666 0.81625 0 0.61923 0.12666 0.8444 0.14073 0.2111 0.36591 0.2111 0.23925 0 0.36591-0.22517 0.14073-0.22517 0.14073-0.83032z"/>
  <path d="m10.625 10.054q0-0.66145 0.19703-0.98513 0.2111-0.33776 0.61922-0.33776 0.4222 0 0.61923 0.33776 0.2111 0.32369 0.2111 0.98513 0 0.66145-0.2111 0.9992-0.19703 0.32369-0.61923 0.32369-0.40812 0-0.61922-0.32369-0.19703-0.33776-0.19703-0.9992zm1.3229 0q0-0.59108-0.14073-0.81625-0.12666-0.22517-0.36591-0.22517-0.22517 0-0.36591 0.22517-0.12666 0.2111-0.12666 0.81625 0 0.61923 0.12666 0.8444 0.14073 0.2111 0.36591 0.2111 0.23925 0 0.36591-0.22517 0.14073-0.22517 0.14073-0.83032z"/>
  <path d="m4.6617 13.229q0-0.66145 0.19703-0.98513 0.2111-0.33776 0.61923-0.33776 0.4222 0 0.61923 0.33776 0.2111 0.32369 0.2111 0.98513t-0.2111 0.9992q-0.19703 0.32369-0.61923 0.32369-0.40813 0-0.61923-0.32369-0.19703-0.33776-0.19703-0.9992zm1.3229 0q0-0.59108-0.14073-0.81625-0.12666-0.22517-0.36591-0.22517-0.22517 0-0.36591 0.22517-0.12666 0.2111-0.12666 0.81625 0 0.61922 0.12666 0.8444 0.14073 0.2111 0.36591 0.2111 0.23925 0 0.36591-0.22517 0.14073-0.22517 0.14073-0.83032z"/>
  <path d="m6.6461 13.229q0-0.66145 0.19703-0.98513 0.2111-0.33776 0.61923-0.33776 0.4222 0 0.61923 0.33776 0.2111 0.32369 0.2111 0.98513t-0.2111 0.9992q-0.19703 0.32369-0.61923 0.32369-0.40813 0-0.61923-0.32369-0.19703-0.33776-0.19703-0.9992zm1.3229 0q0-0.59108-0.14073-0.81625-0.12666-0.22517-0.36591-0.22517-0.22517 0-0.36591 0.22517-0.12666 0.2111-0.12666 0.81625 0 0.61922 0.12666 0.8444 0.14073 0.2111 0.36591 0.2111 0.23925 0 0.36591-0.22517 0.14073-0.22517 0.14073-0.83032z"/>
  <path d="m9.7141 14.524h-0.30961v-1.6044q0-0.33776 0.014073-0.6333l-0.47849 0.40813-0.16888-0.2111 0.67552-0.53478h0.26739z"/>
  <path d="m10.615 13.229q0-0.66145 0.19703-0.98513 0.2111-0.33776 0.61923-0.33776 0.4222 0 0.61922 0.33776 0.2111 0.32369 0.2111 0.98513t-0.2111 0.9992q-0.19703 0.32369-0.61922 0.32369-0.40813 0-0.61923-0.32369-0.19703-0.33776-0.19703-0.9992zm1.3229 0q0-0.59108-0.14073-0.81625-0.12666-0.22517-0.36591-0.22517-0.22517 0-0.36591 0.22517-0.12666 0.2111-0.12666 0.81625 0 0.61922 0.12666 0.8444 0.14073 0.2111 0.36591 0.2111 0.23925 0 0.36591-0.22517 0.14073-0.22517 0.14073-0.83032z"/>
 </g>
</svg>
