<?xml version="1.0" encoding="UTF-8"?>
<svg version="1.1" viewBox="0 0 64 64" xmlns="http://www.w3.org/2000/svg" xmlns:cc="http://creativecommons.org/ns#" xmlns:dc="http://purl.org/dc/elements/1.1/" xmlns:rdf="http://www.w3.org/1999/02/22-rdf-syntax-ns#">
 <metadata>
  <rdf:RDF>
   <cc:Work rdf:about="">
    <dc:format>image/svg+xml</dc:format>
    <dc:type rdf:resource="http://purl.org/dc/dcmitype/StillImage"/>
    <dc:title/>
   </cc:Work>
  </rdf:RDF>
 </metadata>
 <defs>
  <linearGradient id="a" x1="49.571" x2="51.714" y1="52.714" y2="54.857" gradientTransform="matrix(2.3333,0,0,2.3333,-68.667,-72.001)" gradientUnits="userSpaceOnUse">
   <stop offset="0"/>
   <stop stop-opacity="0" offset="1"/>
  </linearGradient>
 </defs>
 <rect x="8" y="4" width="48" height="56" ry="5" fill="#f9d351" style="paint-order:stroke fill markers"/>
 <path d="m56 46-14 14h9c2.77 0 5-2.23 5-5z" fill="url(#a)" fill-rule="evenodd" opacity=".1" stroke-width="8.8191" style="paint-order:stroke fill markers"/>
 <path d="m41.001 20c-0.35521-0.0038-0.82743 0.05144-1.4557 0.14586l-10.455 1.5986c-2.5242 0.5375-2.5155 0.70467-2.5241 2.8372v17.303c-0.10526-0.07374-0.20912-0.1479-0.31794-0.22084v7.49e-4c-0.80196-0.53742-1.6567-0.91988-2.8047-0.91988-1.438 0-2.2955 0.55061-2.8147 1.2759-0.51913 0.72527-0.69129 1.6394-0.69129 2.3461 0 0.85215 0.29095 1.7616 0.92211 2.4546 0.63116 0.69303 1.6015 1.1784 2.9967 1.1784 1.5755 0 2.6837-0.43994 3.3103-1.2991 0.49328-0.67647 0.76605-1.5803 0.86337-2.695v-0.0032c0.01361-0.13524 0.02343-0.27417 0.03213-0.41727 0.01323-0.22035 0.0102-0.63259 0.0102-0.63259v-13.249c0-1.8927-9.1e-5 -2.0056 2.5248-2.4373l7.4349-1.1662c2.5294-0.33094 2.53-0.1008 2.53 1.3206v12.159c-0.10243-0.07178-0.20361-0.144-0.30947-0.21491v7.49e-4c-0.80196-0.53742-1.6563-0.91988-2.8044-0.91988-1.438 0-2.2959 0.55061-2.815 1.2759-0.51913 0.72523-0.69129 1.6394-0.69129 2.3461 0 0.85215 0.29133 1.7616 0.92245 2.4546 0.63116 0.69306 1.6015 1.1787 2.9967 1.1787 1.5755 0 2.6837-0.44032 3.3103-1.2995 0.49328-0.67647 0.76567-1.5799 0.863-2.6947v-0.0035c0.01361-0.13523 0.02343-0.27379 0.03213-0.41693 0.01323-0.22035 0.01058-0.63293 0.01058-0.63293v-18.432c0-1.66-0.01096-2.2097-1.0765-2.2216z" enable-background="new" fill="#fff" stroke-width="3.7796"/>
</svg>
