<svg width="64" height="64" version="1.1" viewBox="0 0 64 64" xmlns="http://www.w3.org/2000/svg">
 <defs>
  <linearGradient id="a" x1="49.571" x2="51.714" y1="52.714" y2="54.857" gradientTransform="matrix(2.3333 0 0 2.3333 -68.668 -72.001)" gradientUnits="userSpaceOnUse">
   <stop offset="0"/>
   <stop stop-opacity="0" offset="1"/>
  </linearGradient>
 </defs>
 <rect x="7.9999" y="4" width="48.001" height="55.999" ry="5" fill="#f85879" style="paint-order:stroke fill markers"/>
 <path d="m55.999 46.002-14 14h9c2.77 0 5-2.23 5-5z" fill="url(#a)" fill-rule="evenodd" opacity=".15" stroke-width="8.8193" style="paint-order:stroke fill markers"/>
 <path d="m30.002 25v6.5002c0 0.277 0.223 0.5 0.5 0.5h3c0.27701 0 0.5-0.223 0.5-0.5v-6.5002zm1 4h2v2h-2z" color="#000000" fill="#fff" stroke-width="3.7796"/>
 <path d="m32.002 4h-2v2h2zm0 2v2h2v-2zm0 2h-2v2h2zm0 2v2h2v-2zm0 2h-2v2h2zm0 2v2h2v-2zm0 2h-2v2h2zm0 2v2h2v-2zm0 2h-2v2h2zm0 2v2h2v-2z" color="#000000" fill="#fff" stroke-width="3.7796"/>
 <path d="m25.354 34.799c-0.6899 0.05743-1.3772 0.09387-2.0547 0.17969l0.29688 0.04102c0.49799-0.18211 1.2278-0.10088 1.7578-0.2207zm-3.0098 0.31445c-1.1208 0.06757-2.6794 0.65311-2.1992 0.12109-1.8285 0.81627-5.0739 1.9648-6.8965 3.6738l-0.05859-0.38476c-0.83509 1.0023-3.6397 2.9896-3.8633 4.2891l-0.22656 0.05273c-0.43384 0.73586-0.71608 1.5716-1.0605 2.3281-0.014093 0.02403-0.025344 0.03645-0.039062 0.05859v5.9941c0.30021-0.8219 0.94987-1.7497 1.4727-3.0605l-0.39648-0.07031c0.76099-1.3265 4.3399-5.3323 6-5.127 0.80401-1.0097-0.15705-0.0021-0.31445-0.25586 1.7663-1.8275 2.3179-1.29 3.5098-1.6191 1.2846-0.76256-1.0972 0.29773-0.48828-0.29102 2.2223-0.56704 1.5703-1.2884 4.4688-1.5762 0.30598 0.17379-0.7063 0.26855-0.96095 0.49414 1.8507-0.90614 5.8533-0.70176 8.4571 0.5 3.0189 1.4119 6.4126 5.5848 6.5469 9.5099l0.15625 0.04102c-0.07658 1.5604 0.23584 3.3642-0.3125 5.0215l0.37109-0.78516c0.04392 1.1923-0.34828 1.7685-0.70312 2.793l-0.63477 0.32031c-0.52167 1.0137 0.04737 0.64332-0.32617 1.4492-0.40421 0.35897-1.015 0.91842-1.5918 1.4082h2.2734c0.30196-0.29251 0.55329-0.52279 0.66797-0.5293-0.28559 0.42965-0.1267 0.38839-0.13086 0.5293h0.04297c0.47622-0.92521-0.40688-0.41366 0.70508-2.0254l0.44922 0.61719c-0.16782-1.1075 1.3718-2.4511 1.2148-4.2012 0.35385-0.53494 0.39842 0.57962 0.02344 1.8105 0.52064-1.3656 0.13435-1.5857 0.26758-2.7129 0.14359 0.37896 0.33443 0.7814 0.43164 1.1816-0.33956-1.3201 0.34685-2.2248 0.51758-2.9922-0.16884-0.07435-0.52358 0.58197-0.60547-0.97657 0.01247-0.67708 0.18817-0.35081 0.25586-0.51758-0.13221-0.07657-0.47971-0.60026-0.69142-1.5957 0.15247-0.23449 0.41381 0.60661 0.62305 0.64062-0.13467-0.79116-0.36911-1.3945-0.37891-2.002-0.612-1.2782-0.21555 0.17266-0.71094-0.54688-0.6515-2.0303 0.53619-0.46872 0.61719-1.3906 0.98609 1.4287 1.5515 3.645 1.8105 4.5625-0.19741-1.1188-0.51872-2.2051-0.90821-3.2539 0.30059 0.12681-0.47698-2.2994 0.39648-0.69142-0.93226-3.4274-3.9882-6.6345-6.7988-8.1368 0.34304 0.31432 0.77214 0.71128 0.61719 0.77345-1.3986-0.83159-1.1493-0.89864-1.3496-1.25-1.1376-0.46343-1.2142 0.03715-1.9668 0-2.147-1.139-2.5576-1.0159-4.5332-1.7285l0.08594 0.41797c-1.4218-0.47379-1.657 0.1776-3.1934 0-0.09347-0.07208 0.49386-0.26048 0.97657-0.33008-1.375 0.18166-1.3089-0.27571-2.6543 0.04492 0.33062-0.23211 0.68238-0.38525 1.0352-0.58203zm1.1074 0.25586c0.39382 0.06982 0.85085 0.12644 0.78516 0.2207 0.43234-0.09573 0.52955-0.1832-0.78516-0.2207zm0.78516 0.2207-0.27344 0.05859 0.25586-0.02344 0.01758-0.03516zm0.98439 11.479c-2.1819 0.03591-4.2252 1.4201-4.9062 2.9258-1.1173 0.7033-1.2477 2.7119-1.7344 3.0801-0.43951 3.2276 0.2826 5.2193 1.7559 6.9238h1.7207c-1.3374-1.3635-2.233-3.214-2.2031-5.2949-0.04392 0.33166-0.12405 0.2496-0.21484 0.38281-0.21215-2.6901 1.2473-5.3891 3.7012-6.4941 2.4001-1.1875 5.2137-0.70114 6.9316 0.90235-0.94363-1.2368-2.8245-2.5472-5.0508-2.4258zm6.3359 5.5684c-0.0912 0.0023-0.20862 0.22946-0.26758 0.48242 0.1372 0.07208 0.24624 0.9373 0.37891 0.40234 0.04505-0.664-0.02001-0.88703-0.11133-0.88477zm8.0606 2.2344-0.10352 0.27344c-0.19847 1.4104-0.62982 2.8091-1.2871 4.1035 0.7265-1.3656 1.1917-2.8634 1.3906-4.377zm-8.5372 0.5c-0.0991 0.48854-0.36651 0.90939-0.61719 1.3555-1.3785 0.86807-0.12934-0.51441 0-1.041-1.4815 1.867-0.20158 1.1191-0.25586 1.6406 0.44069-0.60657 0.76008-1.2691 0.87306-1.9551zm-3.0078 2.8457c-0.59868 0.14654-1.2074 0.14882-1.8223 0.09375-0.73733 0.0098 0.1367 0.38075 1.0996 0.5293 0.26701-0.20822 0.50744-0.41865 0.72267-0.62305zm-9.3067 0.09961c0.16284 0.59767 0.49913 1.1058 0.8086 1.6289l-0.23242-0.66798c-0.25667-0.28426-0.40546-0.62139-0.57617-0.96095zm-0.56446 1.0059-0.10547 0.51953c0.03809 0.05172 0.07235 0.10398 0.10938 0.15625h0.38281c-0.12618-0.21645-0.23059-0.37445-0.38672-0.67578z" fill="#d70751" stroke-width=".49352"/>
</svg>
