<?xml version="1.0" encoding="UTF-8"?>
<svg width="64" height="64" version="1.1" viewBox="0 0 16.933 16.933" xmlns="http://www.w3.org/2000/svg" xmlns:cc="http://creativecommons.org/ns#" xmlns:dc="http://purl.org/dc/elements/1.1/" xmlns:rdf="http://www.w3.org/1999/02/22-rdf-syntax-ns#">
 <metadata>
  <rdf:RDF>
   <cc:Work rdf:about="">
    <dc:format>image/svg+xml</dc:format>
    <dc:type rdf:resource="http://purl.org/dc/dcmitype/StillImage"/>
    <dc:title/>
   </cc:Work>
  </rdf:RDF>
 </metadata>
 <defs>
  <linearGradient id="a" x1="49.571" x2="51.714" y1="52.714" y2="54.857" gradientTransform="matrix(2.3333,0,0,2.3333,-68.667,-72.001)" gradientUnits="userSpaceOnUse">
   <stop offset="0"/>
   <stop stop-opacity="0" offset="1"/>
  </linearGradient>
 </defs>
 <g transform="scale(.26458)">
  <rect x="8" y="4" width="48" height="56" ry="5" fill="#71cd4f" style="paint-order:stroke fill markers"/>
  <path d="m56 46-14 14h9c2.77 0 5-2.23 5-5z" fill="url(#a)" fill-rule="evenodd" opacity=".1" stroke-width="8.8191" style="paint-order:stroke fill markers"/>
 </g>
 <path d="m7.7527 4.4038c-0.48833-0.03224-1.0378 0.31461-1.0183 0.84901-0.05775 0.31806 0.24896 0.55539 0.23561 0.84243-0.18067 0.0792-0.31804 0.0792-0.44525 0.0792h-2.1166c0 0.61015 1e-6 1.4849 1e-6 2.095 0.16525 0.35983 0.50265-0.15404 0.76917-0.09846 0.50926-0.1066 0.96764 0.3398 0.99203 0.83311 0.06771 0.47064-0.11443 1.0824-0.64776 1.1771-0.28767 0.04857-0.59728-0.0047-0.83352-0.18047-0.28447-0.17171-0.30258 0.20506-0.27993 0.38962v2.134h2.4342c0.35983-0.16525-0.15404-0.50265-0.09846-0.76917-0.10654-0.50914 0.33976-0.96791 0.83311-0.99209 0.47065-0.06757 1.0824 0.11445 1.1771 0.64782 0.04857 0.28767-0.0047 0.59728-0.18047 0.83352-0.17171 0.28447 0.20506 0.30258 0.38962 0.27993l1.7948 1e-6v-2.4231c0.16921-0.36295 0.50633 0.16805 0.78146 0.08895 0.44172 0.08689 0.88936-0.2288 0.956-0.67343 0.11271-0.49203-0.02706-1.1447-0.56572-1.3173-0.34122-0.11621-0.68122 0.03221-0.96926 0.20758-0.26514 0.03742-0.19416-0.28348-0.20248-0.4489 0-0.50636-1e-6 -1.2773-1e-6 -1.7837l-1.852-1e-6h-0.23185c-0.36296-0.1692 0.16805-0.50633 0.08895-0.78146 0.08689-0.44172-0.2288-0.88936-0.67342-0.956-0.1106-0.02387-0.22396-0.03314-0.33697-0.03317z" color="#000000" fill="#fff"/>
</svg>
