<svg width="64" height="64" version="1.1" viewBox="0 0 64 64" xmlns="http://www.w3.org/2000/svg">
 <defs>
  <linearGradient id="a" x1="49.571" x2="51.714" y1="52.714" y2="54.857" gradientTransform="matrix(2.3333,0,0,2.3333,-68.667,-72.001)" gradientUnits="userSpaceOnUse">
   <stop offset="0"/>
   <stop stop-opacity="0" offset="1"/>
  </linearGradient>
 </defs>
 <g transform="scale(1)">
  <rect x="8" y="4" width="48" height="56" ry="5" fill="#576dab" style="paint-order:stroke fill markers"/>
  <path d="m56 46-14 14h9c2.77 0 5-2.23 5-5z" fill="url(#a)" fill-rule="evenodd" opacity=".15" stroke-width="8.8191" style="paint-order:stroke fill markers"/>
 </g>
 <g transform="translate(-52.837 -2.8601)">
  <path transform="translate(52.837 2.8601)" d="m32 17.301-13.363 10.025c-0.02875 0.0187-0.054801 0.0418-0.082031 0.0625l-0.015626 0.011719v0.001953c-0.3259 0.2559-0.53906 0.64931-0.53906 1.0977v12.199c2e-6 2 1.5771 2 2 2h24s2 0 2-2v-12.199c0-0.45851-0.22189-0.86016-0.56055-1.1152l0.005859-0.007813-13.445-10.076zm0 6.3984a5 5 0 0 1 5 5v1.5c0 0.831-0.669 1.5-1.5 1.5-0.61296 0-1.1359-0.36612-1.3691-0.89062a3 3 0 0 1-2.1309 0.89062 3 3 0 0 1-3-3 3 3 0 0 1 3-3 3 3 0 0 1 3 3v1.5c0 0.277 0.223 0.5 0.5 0.5s0.5-0.223 0.5-0.5v-1.5a4 4 0 0 0-4-4 4 4 0 0 0-4 4 4 4 0 0 0 4 4h3.5c0.277 0 0.5 0.223 0.5 0.5s-0.223 0.5-0.5 0.5h-3.5a5 5 0 0 1-5-5 5 5 0 0 1 5-5zm0 3a2 2 0 0 0-2 2 2 2 0 0 0 2 2 2 2 0 0 0 2-2 2 2 0 0 0-2-2z" enable-background="new" fill="#fff" opacity=".75"/>
  <path transform="translate(52.837 2.8601)" d="m22.5 20.699c-0.831 0-1.5 0.66967-1.5 1.5v15.002c0 0.83033 0.669 1.498 1.5 1.498h19c0.831 0 1.5-0.66772 1.5-1.498v-15.002c0-0.83033-0.669-1.5-1.5-1.5h-19zm9.5 3a5 5 0 0 1 5 5v1.5c0 0.831-0.669 1.5-1.5 1.5-0.61296 0-1.1359-0.36612-1.3691-0.89062a3 3 0 0 1-2.1309 0.89062 3 3 0 0 1-3-3 3 3 0 0 1 3-3 3 3 0 0 1 3 3v1.5c0 0.277 0.223 0.5 0.5 0.5s0.5-0.223 0.5-0.5v-1.5a4 4 0 0 0-4-4 4 4 0 0 0-4 4 4 4 0 0 0 4 4h3.5c0.277 0 0.5 0.223 0.5 0.5s-0.223 0.5-0.5 0.5h-3.5a5 5 0 0 1-5-5 5 5 0 0 1 5-5zm0 3a2 2 0 0 0-2 2 2 2 0 0 0 2 2 2 2 0 0 0 2-2 2 2 0 0 0-2-2z" enable-background="new" fill="#fff"/>
  <path d="m70.837 31.36 26.6 18.2-24.6-2e-4c-1 0-2-0.5-2-2z" enable-background="new" fill="#e8ebf0"/>
  <path d="m96.837 49.56c2-2e-5 2-2 2-2l-1e-5 -16.2-26.6 18.2z" enable-background="new" fill="#f2f2fa"/>
 </g>
</svg>
