<svg width="64" height="64" version="1.1" viewBox="0 0 64 64" xmlns="http://www.w3.org/2000/svg">
 <defs>
  <linearGradient id="a" x1="49.571" x2="51.714" y1="52.714" y2="54.857" gradientTransform="matrix(2.3333,0,0,2.3333,-68.667,-72.001)" gradientUnits="userSpaceOnUse">
   <stop offset="0"/>
   <stop stop-opacity="0" offset="1"/>
  </linearGradient>
 </defs>
 <g transform="scale(1)">
  <rect x="8" y="4" width="48" height="56" ry="5" fill="#fad65c" style="paint-order:stroke fill markers"/>
  <path d="m56 46-14 14h9c2.77 0 5-2.23 5-5z" fill="url(#a)" fill-rule="evenodd" opacity=".15" stroke-width="8.8191" style="paint-order:stroke fill markers"/>
 </g>
 <path d="m32 21c-1.876 7-7 11.134-7 15s3.134 7 7 7 7-3.134 7-7-5.124-8-7-15m4.8125 11.428c0.7688 1.0325 1.1851 2.285 1.1875 3.5723 0 3.3137-2.6863 6-6 6-1.2849-0.0025-2.535-0.41738-3.5664-1.1836 0.51355 0.12001 1.039 0.1816 1.5664 0.18359 3.866 0 7-3.134 7-7-0.0028-0.52949-0.06574-1.057-0.1875-1.5723" color="#4d4d4d" color-rendering="auto" fill="#fff" fill-rule="evenodd" image-rendering="auto" opacity=".9" shape-rendering="auto" solid-color="#000000" style="isolation:auto;mix-blend-mode:normal"/>
</svg>
