<svg width="64" height="64" version="1.1" xmlns="http://www.w3.org/2000/svg">
 <defs>
  <linearGradient id="a" x1="49.571" x2="51.714" y1="52.714" y2="54.857" gradientTransform="matrix(2.3333,0,0,2.3333,-68.667,-72.001)" gradientUnits="userSpaceOnUse">
   <stop offset="0"/>
   <stop stop-opacity="0" offset="1"/>
  </linearGradient>
 </defs>
 <rect x="8" y="4" width="48" height="56" ry="5" fill="#ff5959" style="paint-order:stroke fill markers"/>
 <path d="m56 46-14 14h9c2.77 0 5-2.23 5-5z" fill="url(#a)" fill-rule="evenodd" opacity=".15" stroke-width="8.8191" style="paint-order:stroke fill markers"/>
 <path d="m39.534 20-6.406 0.818c0.934 0.466 2.216 0.35 2.608 1.719zm1.641 0.109-3.683 2.132 6.318-0.06zm-9.529 2.236c-0.76 0.044-1.672 0.303-2.689 0.81-3.252 1.62-6.313 5.102-6.84 7.774-0.527 2.67 1.68 3.52 4.933 1.9 3.252-1.62 6.313-5.094 6.84-7.765 0.362-1.836-0.57-2.814-2.244-2.719zm3.034 5.02 7.64-0.11-6.296-3.806c-0.01 1.211-0.66 3.289-1.344 3.915zm9.239-0.037 0.081-3.91-6.582-0.415zm-0.355 0.955-7.63 0.118 5.541 3.746zm-9.284 0.409c-4.078 5.45-13.744 10.95-13.83 2.734l-0.45 9.65c0.103 0.584 0.85 2.321 3.343 2.791 6.32 0.22 10.643 0.303 19.34-0.882 0.734-4.066 0.69-8.264 0.881-12.42-2.806 4.36-5.9 7.708-9.94 9.76 2.83-2.35 5.143-4.92 7.297-7.523l-6.64-4.11z" fill="#fff"/>
</svg>
