<svg width="64" height="64" version="1.1" viewBox="0 0 64 64" xmlns="http://www.w3.org/2000/svg">
 <defs>
  <linearGradient id="a" x1="49.571" x2="51.714" y1="52.714" y2="54.857" gradientTransform="matrix(2.3333,0,0,2.3333,-68.667,-72.001)" gradientUnits="userSpaceOnUse">
   <stop offset="0"/>
   <stop stop-opacity="0" offset="1"/>
  </linearGradient>
 </defs>
 <g transform="scale(1)">
  <rect x="8" y="4" width="48" height="56" ry="5" fill="#84603e" style="paint-order:stroke fill markers"/>
  <path d="m56 46-14 14h9c2.77 0 5-2.23 5-5z" fill="url(#a)" fill-rule="evenodd" opacity=".15" stroke-width="8.8191" style="paint-order:stroke fill markers"/>
 </g>
 <path d="m24 28.667c-2.9454 0-5.333 2.3877-5.333 5.3334 0 2.9455 2.3878 5.3334 5.333 5.3334 2.9454 0 5.333-2.3877 5.333-5.3334h-5.333zm8.0003 1.333v2h13v-2zm0.14351 6.0001-0.14351 2h13v-2zm-12.143 7.9999v1.9999h19.999l5.07e-4 -1.9999z" color="#000000" enable-background="new" fill="#fff" stroke-width="3.7796" style="text-decoration-line:none;text-indent:0;text-transform:none"/>
</svg>
