<svg width="64" height="64" version="1.1" viewBox="0 0 64 64" xmlns="http://www.w3.org/2000/svg">
 <defs>
  <linearGradient id="a" x1="49.571" x2="51.714" y1="52.714" y2="54.857" gradientTransform="matrix(2.3333,0,0,2.3333,-68.667,-72.001)" gradientUnits="userSpaceOnUse">
   <stop offset="0"/>
   <stop stop-opacity="0" offset="1"/>
  </linearGradient>
 </defs>
 <g transform="scale(1)">
  <rect x="8" y="4" width="48" height="56" ry="5" fill="#656565" style="paint-order:stroke fill markers"/>
  <path d="m56 46-14 14h9c2.77 0 5-2.23 5-5z" fill="url(#a)" fill-rule="evenodd" opacity=".15" stroke-width="8.8191" style="paint-order:stroke fill markers"/>
 </g>
 <path d="m30.006 18.802c0.84206 0 1.5277 0.67036 1.5277 1.4936v5.9156c-0.41986-0.32577-0.95026-0.52217-1.5277-0.52217-0.25873 0-0.46807 0.20464-0.46807 0.45749s0.20934 0.45749 0.46807 0.45749c0.84206 0 1.5277 0.67036 1.5277 1.4936v10.989c-0.58098-0.73387-1.4007-1.2866-2.3639-1.5406-0.24933-0.06586-0.50688 0.0788-0.57392 0.32342-0.06704 0.24345 0.08115 0.49512 0.33048 0.56098 1.5359 0.40339 2.6073 1.77 2.6073 3.3236 0 1.8993-1.5806 3.4447-3.5223 3.4447-1.3113 0-2.505-0.70799-3.1166-1.8452-0.06115-0.1129-0.16818-0.19523-0.29402-0.22816-1.5348-0.40339-2.605-1.7688-2.605-3.3212 0-0.23169 0.02352-0.46572 0.07056-0.6927 0.04351-0.21052-0.06821-0.42221-0.26814-0.50924-1.0926-0.47513-1.7982-1.5336-1.7982-2.7002 0-0.53041 0.13995-1.0373 0.4081-1.4865 0.69858 0.60215 1.6124 0.96908 2.6144 0.96908 0.25874 0 0.46808-0.20464 0.46808-0.45749 0-0.25286-0.20934-0.45749-0.46808-0.45749-1.6677 0-3.0225-1.3278-3.0225-2.9578 0-0.87735 0.39634-1.7053 1.0867-2.2686 0.15642-0.12702 0.20934-0.33871 0.1329-0.52217-0.14818-0.35517-0.22228-0.72916-0.22228-1.1102 0-1.63 1.3548-2.9555 3.0225-2.9555s3.0248 1.3254 3.0248 2.9555c0 0.25286 0.20934 0.45749 0.46807 0.45749s0.46808-0.20464 0.46808-0.45749c0-2.0511-1.6406-3.7328-3.7058-3.861-0.187-0.30578-0.28461-0.65507-0.28461-1.0161 0-0.81501 0.50571-1.5148 1.2266-1.8182 0.02823-0.0082 0.0541-0.01999 0.07997-0.03411 0.22345-0.0835 0.46455-0.12819 0.7174-0.12819 0.78326 0 1.483 0.42809 1.8253 1.1161 0.1129 0.22698 0.39163 0.32107 0.62332 0.21052 0.23286-0.11055 0.32812-0.38222 0.21522-0.61038-0.39046-0.78679-1.1302-1.3513-1.9817-1.5512 1.1937-0.71152 2.3639-1.1161 3.3071-1.1161m3.9904 0c0.9385 0 2.1134 0.40457 3.3071 1.1161-0.85147 0.19993-1.5912 0.76562-1.9817 1.5512-0.1129 0.22698-0.01646 0.49983 0.21522 0.61038 0.23286 0.11055 0.51277 0.01647 0.62567-0.21052 0.34224-0.68918 1.0408-1.1161 1.8229-1.1161 0.25285 0 0.49512 0.04469 0.7174 0.12819 0.02587 0.01294 0.05528 0.02587 0.08232 0.03411 0.72093 0.30342 1.2266 1.0032 1.2266 1.8182 0 0.36105-0.09997 0.71034-0.28696 1.0161-2.0652 0.12819-3.7034 1.81-3.7034 3.861 0 0.25286 0.20934 0.45749 0.46808 0.45749s0.46807-0.20464 0.46807-0.45749c0-1.63 1.3548-2.9555 3.0225-2.9555s3.0248 1.3254 3.0248 2.9555c0 0.38105-0.07527 0.75386-0.22228 1.1102-0.07644 0.18464-0.02234 0.39516 0.1329 0.52217 0.69035 0.56451 1.0867 1.3913 1.0867 2.2686 0 1.63-1.3572 2.9578-3.0248 2.9578-0.25874 0-0.46808 0.20464-0.46808 0.45749s0.20934 0.45749 0.46808 0.45749c1.002 0 1.9158-0.36693 2.6144-0.96908 0.26814 0.44926 0.41045 0.95614 0.41045 1.4865 0 1.1655-0.70564 2.2251-1.7982 2.7002-0.19993 0.08703-0.31166 0.29872-0.26814 0.50924 0.04704 0.22698 0.07056 0.46102 0.07056 0.6927 0 1.5524-1.0726 2.9166-2.6073 3.3212-0.12584 0.03293-0.23051 0.11643-0.29166 0.22816-0.61156 1.1373-1.8076 1.8452-3.1189 1.8452-1.9429 0-3.5223-1.5454-3.5223-3.4447 0-0.12819-0.0071-0.25756-0.01882-0.3834 0.01176-0.03881 0.01882-0.0788 0.01882-0.12114v-15.102c0-0.82325 0.68565-1.4936 1.5277-1.4936 0.25873 0 0.46807-0.20464 0.46807-0.45749 0-0.25286-0.20934-0.45749-0.46807-0.45749-0.57627 0-1.1067 0.1964-1.5277 0.52217v-3.9669c0-0.82325 0.68565-1.4936 1.5277-1.4936m6.9835 7.8632c-0.25874 0-0.46808 0.20464-0.46808 0.45749 0 1.63-1.3548 2.9555-3.0225 2.9555-0.81972 0-1.5865-0.31283-2.1604-0.88558-0.18111-0.17994-0.47866-0.18347-0.6633-0.0071-0.18464 0.17641-0.18817 0.46572-0.0071 0.64566 0.64801 0.64684 1.4865 1.0432 2.3945 1.1396 0.21522 1.3913 1.4466 2.4615 2.9284 2.4615 0.25873 0 0.46807-0.20464 0.46807-0.45749s-0.20934-0.45749-0.46807-0.45749c-0.96908 0-1.7806-0.66918-1.9793-1.5583 1.9405-0.24815 3.4447-1.8723 3.4447-3.8363 0-0.25286-0.20934-0.45749-0.46807-0.45749m-16.959 0.48924c-0.25874 0-0.46808 0.20228-0.46808 0.45514 0 1.964 1.5042 3.5917 3.4447 3.8387-0.19876 0.88911-1.0102 1.5559-1.9793 1.5559-0.25874 0-0.46808 0.20464-0.46808 0.45749s0.20934 0.45749 0.46808 0.45749c1.4818 0 2.7144-1.0702 2.9284-2.4615 0.90792-0.09644 1.7453-0.48924 2.3945-1.1373 0.18111-0.17994 0.17759-0.4716-0.0071-0.64801-0.18464-0.17641-0.47984-0.17406-0.66095 0.0071-0.57392 0.57274-1.3407 0.88793-2.1604 0.88793-1.6677 0-3.0248-1.3278-3.0248-2.9578 0-0.25285-0.20934-0.45514-0.46807-0.45514m9.9766 6.8259c-0.25873 0-0.46807 0.20464-0.46807 0.45749s0.20934 0.45749 0.46807 0.45749c1.6677 0 3.0248 1.3278 3.0248 2.9578 0 0.10467-0.0071 0.20816-0.01882 0.31166-1.4513 0.5751-2.4768 1.9676-2.4768 3.5894 0 0.25285 0.20934 0.45749 0.46807 0.45749 0.25874 0 0.46808-0.20464 0.46808-0.45749 0-1.63 1.3572-2.9578 3.0248-2.9578 0.25874 0 0.46808-0.20464 0.46808-0.45749s-0.20934-0.45749-0.46808-0.45749c-0.17994 0-0.3587 0.01294-0.53158 0.03646 0-0.02235 0.0024-0.04351 0.0024-0.06468 0-2.1346-1.777-3.8728-3.961-3.8728m-5.4852 0.97496c-2.1828 0-3.961 1.7382-3.961 3.8728 0 0.02234 0.0024 0.04234 0.0024 0.06468-0.17406-0.02234-0.35164-0.03646-0.53158-0.03646-0.25874 0-0.46808 0.20464-0.46808 0.45749s0.20934 0.45749 0.46808 0.45749c1.6677 0 3.0248 1.3278 3.0248 2.9578 0 0.25286 0.20934 0.45749 0.46808 0.45749s0.46808-0.20464 0.46808-0.45749c0-1.6218-1.0255-3.0154-2.4768-3.5894-0.01058-0.10349-0.01882-0.20699-0.01882-0.31166 0-1.63 1.3572-2.9578 3.0248-2.9578 0.25874 0 0.46807-0.20464 0.46807-0.45749s-0.20934-0.45749-0.46807-0.45749" color="#000000" color-rendering="auto" fill="#e0e0e0" image-rendering="auto" opacity=".75" shape-rendering="auto" solid-color="#000000" stroke-width="1.1761" style="isolation:auto;mix-blend-mode:normal"/>
</svg>
