<svg width="64" height="64" version="1.1" viewBox="0 0 16.933 16.933" xmlns="http://www.w3.org/2000/svg">
 <defs>
  <linearGradient id="a" x1="49.571" x2="51.714" y1="52.714" y2="54.857" gradientTransform="matrix(.61734 0 0 .61734 -18.168 -19.05)" gradientUnits="userSpaceOnUse">
   <stop offset="0"/>
   <stop stop-opacity="0" offset="1"/>
  </linearGradient>
 </defs>
 <rect x="2.1166" y="1.0583" width="12.7" height="14.816" ry="1.3229" fill="#f4f4f4" stroke-width=".26458" style="paint-order:stroke fill markers"/>
 <path d="m14.816 12.171-3.7041 3.7041h2.3812c0.73288 0 1.3229-0.59001 1.3229-1.3229z" fill="url(#a)" fill-rule="evenodd" opacity=".1" stroke-width="2.3333" style="paint-order:stroke fill markers"/>
 <path transform="scale(.26458)" d="m30.193 18v4.2344a9.9342 9.9342 0 0 0-3.8262 1.5801l-2.9902-2.9902-2.5527 2.5527 2.998 2.998a9.9342 9.9342 0 0 0-1.5859 3.8184h-4.2363v3.6133h4.2383a9.9342 9.9342 0 0 0 1.5781 3.8242l-2.9922 2.9922 2.5527 2.5547 3-3a9.9342 9.9342 0 0 0 3.8164 1.5859v4.2363h3.6133v-4.2383a9.9342 9.9342 0 0 0 3.8223-1.5781l2.9941 2.9941 2.5508-2.5547-2.998-3a9.9342 9.9342 0 0 0 1.5879-3.8164h4.2363v-3.6133h-4.2383a9.9342 9.9342 0 0 0-1.5781-3.8223l2.9941-2.9941-2.5547-2.5527-3 3a9.9342 9.9342 0 0 0-3.8164-1.5879v-4.2363h-3.6133zm1.8066 8.5781a5.4177 5.4177 0 0 1 5.418 5.4219 5.4177 5.4177 0 0 1-5.418 5.418 5.4177 5.4177 0 0 1-5.4219-5.418 5.4177 5.4177 0 0 1 5.4219-5.4219z" opacity=".35" stroke-width="3.4138" style="paint-order:stroke markers fill"/>
 <path transform="scale(.26458)" d="m42.918 4a9.9343 9.9343 0 0 0-0.66992 2.1934h-4.248v3.6133h4.2383a9.9343 9.9343 0 0 0 1.5801 3.8203l-2.9961 2.9961 2.5547 2.5547 3.002-3.002a9.9343 9.9343 0 0 0 3.8145 1.5879v4.2363h3.6133v-4.2402a9.9343 9.9343 0 0 0 2.1934-0.67188v-5.4434a5.4177 5.4177 0 0 1-4 1.7734 5.4177 5.4177 0 0 1-5.4219-5.418 5.4177 5.4177 0 0 1 1.7695-4h-5.4297z" opacity=".15" stroke-width="3.4138" style="paint-order:stroke markers fill"/>
 <path transform="scale(.26458)" d="m10.193 42v4.2363a9.9343 9.9343 0 0 0-2.1934 0.67188v5.4414a5.4177 5.4177 0 0 1 4-1.7715 5.4177 5.4177 0 0 1 5.418 5.4219 5.4177 5.4177 0 0 1-1.7715 4h5.4336a9.9343 9.9343 0 0 0 0.67188-2.1934h4.248v-3.6133h-4.2383a9.9343 9.9343 0 0 0-1.5781-3.8223l2.9941-2.9941-2.5547-2.5547-3.002 3.002a9.9343 9.9343 0 0 0-3.8145-1.5859v-4.2383h-3.6133z" opacity=".15" stroke-width="3.4138" style="paint-order:stroke markers fill"/>
</svg>
