<svg width="64" height="64" version="1.1" viewBox="0 0 16.933 16.933" xmlns="http://www.w3.org/2000/svg">
 <defs>
  <linearGradient id="a" x1="49.571" x2="51.714" y1="52.714" y2="54.857" gradientTransform="matrix(.61734 0 0 .61734 -18.168 -19.05)" gradientUnits="userSpaceOnUse">
   <stop offset="0"/>
   <stop stop-opacity="0" offset="1"/>
  </linearGradient>
 </defs>
 <rect x="2.1166" y="1.0583" width="12.7" height="14.816" ry="1.3229" fill="#fa6a5d" stroke-width=".26458" style="paint-order:stroke fill markers"/>
 <path d="m14.816 12.171-3.7041 3.7041h2.3812c0.73289 0 1.3229-0.59001 1.3229-1.3229z" fill="url(#a)" fill-rule="evenodd" opacity=".15" stroke-width="2.3334" style="paint-order:stroke fill markers"/>
 <g fill="#fff">
  <path d="m7.938 6.6145v1.7198c0 0.073288 0.059 0.13229 0.13229 0.13229h0.79374c0.07329 0 0.13229-0.059001 0.13229-0.13229v-1.7198zm0.26458 1.0583h0.52916v0.52916h-0.52916z" color="#000000"/>
  <path d="m8.467 1.0583h-0.52916v0.52916h0.52916zm0 0.52916v0.52916h0.52916v-0.52916zm0 0.52916h-0.52916v0.52916h0.52916zm0 0.52916v0.52916h0.52916v-0.52916zm0 0.52916h-0.52916v0.52916h0.52916zm0 0.52916v0.52916h0.52916v-0.52916zm0 0.52916h-0.52916v0.52916h0.52916zm0 0.52916v0.52916h0.52916v-0.52916zm0 0.52916h-0.52916v0.52916h0.52916zm0 0.52916v0.52916h0.52916v-0.52916z" color="#000000"/>
  <g transform="matrix(.52916 0 0 .52916 -.66086 7.5402)" opacity=".35" stroke-width="1.1429">
   <path transform="matrix(.5 0 0 .5 1.2489 -14.249)" d="m19.502 34.498a16 16 0 0 0-11.502 4.8828v3.1445a14 14 0 0 1 11.502-6.0273 14 14 0 0 1 14 14 14 14 0 0 1-3.7422 9.502h2.5938a16 16 0 0 0 3.1484-9.502 16 16 0 0 0-16-16z" stroke-width="2.2858"/>
   <path d="m11 6a5 5 0 0 0-3.318 1.268l0.709 0.709a4 4 0 0 1 2.609-0.977 4 4 0 0 1 4 4h1a5 5 0 0 0-5-5zm-4.525 2.889a5 5 0 0 0-0.475 2.111h1a4 4 0 0 1 0.238-1.348z"/>
   <path d="m12.344 8.166-2.146 4.977a1.2 1.2 0 0 0-0.278 0.585l-7e-3 0.014h6e-3c-0.09 0.562 0.221 1.086 0.719 1.212 0.499 0.126 1.021-0.19 1.208-0.727l7e-3 2e-3v-0.03l0.024-0.075c0.044-0.182 0.047-0.371 7e-3 -0.55z"/>
  </g>
 </g>
</svg>
