<svg width="64" height="64" version="1.1" viewBox="0 0 64 64" xmlns="http://www.w3.org/2000/svg">
 <defs>
  <linearGradient id="a" x1="49.571" x2="51.714" y1="52.714" y2="54.857" gradientTransform="matrix(2.3333,0,0,2.3333,-68.667,-72.001)" gradientUnits="userSpaceOnUse">
   <stop offset="0"/>
   <stop stop-opacity="0" offset="1"/>
  </linearGradient>
 </defs>
 <rect x="8" y="4" width="48" height="56" ry="5" fill="#ff9230" style="paint-order:stroke fill markers"/>
 <g fill="#fff">
  <path d="m30.003 31v6.5002c0 0.27701 0.223 0.5 0.5 0.5h3c0.27701 0 0.5-0.223 0.5-0.5v-6.5002zm1 4h2v2h-2z" color="#000000" stroke-width="3.7796"/>
  <path d="m32.002 4.0001v2h2v-2zm0 2h-2v2h2zm0 2v2h2v-2zm0 2h-2v2h2zm0 2v2h2v-2zm0 2h-2v2h2zm0 2v2h2v-2zm0 2h-2v2h2zm0 2v2h2v-2zm0 2h-2v2h2zm0 2v2h2v-2zm0 2h-2v2h2zm0 2v2h2v-2z" color="#000000" stroke-width="3.7796"/>
  <path d="m21.391 21.055c1.8182 7.1629-6.4139 9.3261-9.3848 13.787-2.0231 3.0394 0.99325 6.3057 5.1055 10.016-1.6035-3.625-7.0413-6.7979 0.001953-12.361 8.7836-6.9333 4.2773-11.441 4.2773-11.441zm5.4355 8.8613c1.12e-4 0-14.853 3.709-7.7598 11.883 2.0941 2.4104-0.54883 4.5781-0.54883 4.5781s5.3129-2.7433 2.873-6.1797c-2.2797-3.2031-4.0264-4.7942 5.4355-10.281zm2.6289 14.602c-0.52186 0.0017-1.0761 0.09122-1.6445 0.29102-0.45578 0.16136-0.69531 0.53711-0.69531 0.53711s0.28921-0.1159 0.93164-0.25c2.6272-0.54744 6.3905 3.5171-1.75 7.7461-0.03776 0.1008-0.16222 0.21289-0.16211 0.21289 9.6812-2.545 7.5701-8.5453 3.3203-8.5371zm-17.443 0.41211c-0.45307-0.010459-1.9864 0.016966-4.0117 0.59961v0.85742c1.0592-0.71666 4.1523-1.4512 4.1523-1.4512s-0.047312-0.004059-0.13867-0.005859h-0.001953zm14.318 1.5859s-3.2754 0.58545-6.5391 0.85938c-3.9947 0.33514-8.2808 0.40114-10.432 0.11328-0.65614-0.08772-1.0894-0.19566-1.3594-0.31641v1.2949c4.2908 0.51786 11.611 0.35701 16.348-0.88867 0.83261-0.56821 1.9824-1.0625 1.9824-1.0625zm-16.016 3.3418c-1.519 0.50414-2.225 1.0217-2.3145 1.5v0.20117c0.31384 1.7215 8.8302 2.7944 16.674 0.5-1.091-0.38455-1.7852-1.0879-1.7852-1.0879-5.0205 0.96621-7.9204 0.93583-11.594 0.55664-2.8399-0.29354-0.98047-1.6699-0.98047-1.6699zm1.0391 4.75c-6.6709 1.864 4.0583 5.7136 12.553 2.0742-1.3912-0.54061-2.3887-1.1641-2.3887-1.1641-3.7879 0.71596-5.5443 0.77144-8.9824 0.37891-2.8376-0.32546-1.1816-1.2891-1.1816-1.2891zm18.945 3.5137s1.2262 1.0109-1.3516 1.793c-0.099226 0.030055-0.2282 0.056744-0.33594 0.085938h1.5625c1.1574-0.65952 1.3178-1.3407 0.125-1.8789z" clip-rule="evenodd" enable-background="new" fill-rule="evenodd" opacity=".35" stroke-width="1.3868"/>
 </g>
 <path d="m56 46-14 14h9c2.77 0 5-2.23 5-5z" fill="url(#a)" fill-rule="evenodd" opacity=".15" stroke-width="8.8191" style="paint-order:stroke fill markers"/>
</svg>
