<?xml version="1.0" encoding="UTF-8"?>
<svg width="64" height="64" version="1.1" viewBox="0 0 16.933 16.933" xmlns="http://www.w3.org/2000/svg" xmlns:cc="http://creativecommons.org/ns#" xmlns:dc="http://purl.org/dc/elements/1.1/" xmlns:rdf="http://www.w3.org/1999/02/22-rdf-syntax-ns#">
 <metadata>
  <rdf:RDF>
   <cc:Work rdf:about="">
    <dc:format>image/svg+xml</dc:format>
    <dc:type rdf:resource="http://purl.org/dc/dcmitype/StillImage"/>
    <dc:title/>
   </cc:Work>
  </rdf:RDF>
 </metadata>
 <defs>
  <linearGradient id="a" x1="49.571" x2="51.714" y1="52.714" y2="54.857" gradientTransform="matrix(2.3333,0,0,2.3333,-68.667,-72.001)" gradientUnits="userSpaceOnUse">
   <stop offset="0"/>
   <stop stop-opacity="0" offset="1"/>
  </linearGradient>
 </defs>
 <g transform="scale(.26458)">
  <rect x="8" y="4" width="48" height="56" ry="5" fill="#8a92a2" style="paint-order:stroke fill markers"/>
  <path d="m56 46-14 14h9c2.77 0 5-2.23 5-5z" fill="url(#a)" fill-rule="evenodd" opacity=".15" stroke-width="8.8191" style="paint-order:stroke fill markers"/>
 </g>
 <path d="m9.5725 5.2915-1.692 4e-3c0.184 0.116 0.428 0.377 0.63 0.676 0.224 0.333 0.403 0.717 0.538 1.052l-0.478 0.276 1.523-3e-3 0.711-1.332-0.379 0.252-0.24-0.454c-0.161-0.256-0.309-0.442-0.613-0.47zm-2.43 0.118-0.738 1.086 1.3 0.865 0.697-1.308c-0.193-0.283-0.476-0.697-0.924-0.707h-0.016a0.86 0.86 0 0 0-0.319 0.064zm2.596 2.62 0.606 1.305 0.521 4e-3c0.297 3e-3 0.77-0.42 0.776-0.74v-0.023l-0.593-1.382zm-4.447-0.434 0.453 0.246-0.152 0.32c-0.492 1.044 0.13 1.553 0.866 2.569a1.074 1.074 0 0 1-6e-3 -0.784l0.653-1.389 0.41 0.212-0.81-1.251zm3.496 2.741 0.697 1.305 4e-3 -0.538h0.341c1.103 0 1.256-0.814 1.787-1.964a0.945 0.945 0 0 1-0.66 0.353l-1.468 4e-3 -4e-3 -0.481zm-1.922-0.84-0.237 0.487c-0.14 0.287 0.02 0.951 0.3 1.077h1.446l0.01-1.615z" fill="#fff" fill-rule="evenodd"/>
</svg>
