<svg width="64" height="64" version="1.1" viewBox="0 0 16.933 16.933" xmlns="http://www.w3.org/2000/svg" xmlns:xlink="http://www.w3.org/1999/xlink">
 <defs>
  <linearGradient id="a" x1="49.571" x2="51.714" y1="52.714" y2="54.857" gradientTransform="matrix(2.3333 0 0 2.3333 -68.667 -72.001)" gradientUnits="userSpaceOnUse">
   <stop offset="0"/>
   <stop stop-opacity="0" offset="1"/>
  </linearGradient>
 </defs>
 <g transform="scale(.26458)">
  <rect x="8" y="4" width="48" height="56" ry="5" fill="#84c835" style="paint-order:stroke fill markers"/>
  <path d="m56 46-14 14h9c2.77 0 5-2.23 5-5z" fill="url(#a)" fill-rule="evenodd" opacity=".15" stroke-width="8.8191" style="paint-order:stroke fill markers"/>
 </g>
 <g transform="translate(-14.713 -.1522)">
  <path d="m22.651 6.7667v1.7198c0 0.073288 0.059 0.13229 0.13229 0.13229h0.79374c0.07329 0 0.13229-0.059001 0.13229-0.13229v-1.7198zm0.26458 1.0583h0.52916v0.52916h-0.52916z" color="#000000" fill="#fff"/>
  <path d="m23.18 1.2105h-0.52916v0.52916h0.52916zm0 0.52916v0.52916h0.52916v-0.52916zm0 0.52916h-0.52916v0.52916h0.52916zm0 0.52916v0.52916h0.52916v-0.52916zm0 0.52916h-0.52916v0.52916h0.52916zm0 0.52916v0.52916h0.52916v-0.52916zm0 0.52916h-0.52916v0.52916h0.52916zm0 0.52916v0.52916h0.52916v-0.52916zm0 0.52916h-0.52916v0.52916h0.52916zm0 0.52916v0.52916h0.52916v-0.52916z" color="#000000" fill="#fff"/>
  <path d="m25.359 10.922 0.80255-0.80255c0.12347-0.12347 0.12347-0.31485 0-0.43832s-0.31485-0.12347-0.43832 0l-0.91368 0.91368c-0.4877-0.24694-1.0433-0.38893-1.6298-0.38893-0.59266 0-1.1483 0.14199-1.6421 0.38893l-0.91985-0.91368c-0.12347-0.12347-0.31485-0.12347-0.43832 0s-0.12347 0.31485 0 0.43832l0.80873 0.80873c-0.91368 0.67291-1.5125 1.7533-1.5125 2.9818h7.4082c0-1.2285-0.59883-2.3151-1.5249-2.988zm-3.5021 1.6651h-0.52916v-0.52916h0.52916zm3.1749 0h-0.52916v-0.52916h0.52916z" enable-background="new" fill="#0c2809" opacity=".5" stroke-width=".61735"/>
 </g>
</svg>
