<svg width="64" height="64" version="1.1" viewBox="0 0 64 64" xmlns="http://www.w3.org/2000/svg">
 <defs>
  <linearGradient id="a" x1="49.571" x2="51.714" y1="52.714" y2="54.857" gradientTransform="matrix(2.3333,0,0,2.3333,-68.667,-72.001)" gradientUnits="userSpaceOnUse">
   <stop offset="0"/>
   <stop stop-opacity="0" offset="1"/>
  </linearGradient>
 </defs>
 <g transform="scale(1)">
  <rect x="8" y="4" width="48" height="56" ry="5" fill="#1facf5" style="paint-order:stroke fill markers"/>
  <path d="m56 46-14 14h9c2.77 0 5-2.23 5-5z" fill="url(#a)" fill-rule="evenodd" opacity=".15" stroke-width="8.8191" style="paint-order:stroke fill markers"/>
 </g>
 <path d="m32 22c-6.094 0-11 4.906-11 11 0 6.094 4.906 11 11 11 6.094 0 11-4.906 11-11 0-6.094-4.906-11-11-11m0 1c1.662 0 3.222.408 4.598 1.119.004.04.003.069 0 .113.058.026.091.134.189.188.036.02.06.029.094.047.058.032.106.085.094.141-.016.082-.132.079-.188.139.008.116-.064.111-.094.189.018.05.086.034.094.094-.01.064-.118.073-.094.139.108.084.226.014.328 0 .224-.028.423.014.561-.094-.018-.106.153-.138.141-.234-.01-.072-.134-.089-.188-.139-.012-.011-.028-.039-.041-.061.165.108.323.226.48.344-.039.032-.071.072-.111.09-.042.018-.103.023-.141.047-.056.038-.077.097-.141.139-.046.032-.186.141-.234.141-.058 0-.146-.059-.188-.045-.06.018-.026.115-.094.139-.132.048-.376-.104-.422.094.056.114.228.079.328.141.062.04.172.213.188.281.016.056.024.268 0 .328-.062.16-.238.145-.422.141-.05 0-.095.004-.141 0-.31-.02-.608-.128-.748.094.01.17.038.274 0 .422-.028.108-.147.187-.141.281.002.048.082.122.094.188.008.036-.016.109 0 .141.052.098.189-.016.281 0 .088.014.189.136.189.234 0 .07-.052.213-.096.281-.088.132-.249.116-.375.188-.104.06-.126.179-.188.283-.066.112-.12.168-.094.328-.09.178-.191.289-.377.375-.054.024-.138.058-.188.094-.04.028-.085.077-.141.141-.07.078-.15.128-.188.188-.028.046-.017.126-.047.188-.044.084-.132.15-.188.234-.026.04-.066.089-.094.141-.064.116-.153.226-.141.328.01.098.135.102.141.188.006.048-.049.087-.047.139.002.076.041.129.047.189.014.148-.066.179-.094.281-.014.048.012.103 0 .141-.024.074-.139.144-.141.232-.002.062.088.101.094.189.004.06-.057.132-.045.188.022.108.244.244.328.328.114.114.231.208.281.328.042.102.063.252.141.328.058.056.16.081.234.139.07.054.158.083.232.141.122.096.275.295.469.281.102-.008.214-.074.328-.094.118-.02.255-.057.375-.045.092.01.187.051.283.045.1-.006.214-.044.328-.094.198-.086.507-.229.795-.188.22.032.223.277.377.375.176.016.327-.034.467 0 .106.026.224.199.234.283.01.086-.082.178-.094.232-.028.116-.027.254-.047.328-.016.058-.047.13-.045.188 0 .052.087.166.141.234.066.084.152.142.232.234.146.168.226.387.328.609.026.056-.024.071 0 .141-.044.336-.155.566-.375.938-.104.12-.236.272-.234.422-.008.36.203.541.188.889-.036.468-.009.547-.045.797.158.08.091.301.045.467-.068.198-.15.245-.188.377.124.054.26.04.398.006-1.822 1.942-4.408 3.158-7.293 3.158-1.228 0-2.398-.23-3.482-.631-.04-.016-.084-.025-.123-.047-.062-.036-.102-.112-.094-.188.104-.044.301.099.377-.047.038-.07-.05-.211 0-.281.036-.048.254-.082.328-.094.106-.018.221-.009.281-.047.066-.042.153-.157.141-.281-.006-.058-.048-.089-.094-.141-.038-.044-.021-.099-.047-.139-.048-.07-.121-.086-.141-.188.144-.028.355.152.563.094.098-.028.235-.236.281-.328.014-.028-.016-.107 0-.141.018-.038.09-.074.096-.094.014-.054-.012-.06 0-.094.036-.102.128-.16.188-.234.046-.056.099-.13.141-.188.048-.062.062-.087.094-.141.03-.182-.091-.307-.047-.467.048-.18.295-.295.469-.377.06-.028.138-.076.188-.094.12-.042.263-.054.375-.094.188-.068.236-.25.328-.422.044-.08.088-.176.096-.234.008-.052-.01-.079 0-.139.01-.06.029-.123.045-.189.022-.086.047-.23.047-.326 0-.08-.045-.117-.047-.189-.014-.26.092-.28.188-.422.048-.07.06-.182.094-.232.162-.24.442-.341.422-.705-.008-.12-.051-.384-.139-.422-.05-.022-.16-.017-.234-.045-.236-.088-.41-.357-.656-.377-.052-.002-.083.002-.141 0-.096-.002-.218-.082-.326-.094-.068-.008-.194.02-.234 0-.062-.03-.044-.154-.094-.188-.04-.028-.127-.025-.189-.047-.098-.038-.167-.086-.281-.094-.036-.002-.101.006-.141 0-.062-.01-.13-.058-.188-.094-.072-.044-.111-.077-.141-.139.066-.216-.144-.251-.188-.377-.02-.058.02-.136 0-.188-.026-.074-.106-.126-.188-.188-.144-.112-.263-.208-.469-.234-.092-.01-.218.008-.328 0-.116-.008-.24-.088-.328-.188-.084-.098-.114-.188-.188-.234-.07-.044-.186-.048-.234-.094-.022-.02-.025-.048-.045-.094-.036-.072-.091-.101-.047-.189-.08-.04-.053.063-.139.047-.078-.11-.152-.175-.328-.141-.08.016-.14.139-.234.141-.078.002-.132-.127-.234-.141-.078-.01-.18.059-.234.047-.086-.016-.11-.089-.188-.141-.058-.038-.156-.141-.188-.139-.1.002-.19.213-.328.139-.068-.086.125-.108.045-.188-.06-.06-.091.015-.139.047-.056.038-.126.072-.188.094-.138.052-.22.038-.328.094-.1.052-.131.132-.189.234-.046.084-.118.228-.188.232-.084.006-.158-.107-.234-.139-.23-.1-.371.043-.561.045-.176.002-.43-.256-.422-.422.006-.102.082-.249.094-.375.01-.1.092-.191.094-.283.002-.122-.203-.218-.283-.232-.188-.034-.44.084-.654 0-.04-.068.07-.123.094-.189.014-.038-.014-.052 0-.094.024-.064.109-.12.139-.188.022-.052.025-.124.047-.188.026-.072.088-.136.094-.188.008-.068-.04-.145-.094-.189-.166.01-.281.003-.377.047-.216.098-.157.401-.375.469-.074.024-.197.031-.281.045-.037.007-.078.013-.119.023.14-.726.356-1.424.643-2.084.048 0 .098-.006.131 0 .076.014.123.088.189.094.184.014.223-.154.375-.234.156.022.235-.016.377 0 .096.01.205.135.281.141.064.002.081-.057.141-.047.06.01.177.116.188.188.01.09-.073.183-.047.283.094.096.288.132.422.188.088-.072.014-.224 0-.328-.002-.046.006-.099 0-.141-.01-.072-.045-.126-.045-.188 0-.286.23-.404.422-.516.082-.048.162-.152.234-.188.102-.05.15-.046.234-.094.152-.086.304-.185.422-.283.054-.13-.006-.294 0-.422.054-.034.081.006.139 0 .092-.02.137-.136.189-.188.03-.03.103-.064.139-.094.092-.072.108-.156.188-.188.028-.01.097-.035.141-.047.06-.016.138-.06.234-.094.062-.022.21-.021.234-.045.03-.03-.008-.143 0-.189.048-.226.407-.25.609-.326.14-.054.266-.171.422-.141-.03.108-.167.104-.141.234.034.182.264-.068.328-.094.122-.052.356-.083.516-.141.14-.05.366-.119.234-.281-.11-.008-.138.099-.234.139-.066.01-.083-.041-.139-.045-.054-.002-.087.055-.141.045-.054-.01-.133-.124-.141-.188-.022-.168.166-.204.234-.328-.046-.152-.247-.034-.375-.094.014-.09.082-.17.188-.188.086-.014.276.003.328.045.03.026-.001.099.045.141.052.046.121.01.189 0 .024-.114-.161-.067-.141-.141.136-.088.397-.023.563-.045.096-.014.195-.095.281-.141.08-.046.15-.121.234-.045.024.082-.048.146-.094.188-.154.136-.302.264-.422.422.074.072.204.031.328.045.048.006.089.039.139.047.06.01.141-.01.189 0 .084.02.104.141.188.141.136 0 .123-.142.045-.234.024-.094.081-.168.047-.234-.062-.124-.316.017-.328-.141-.008-.1.105-.112.141-.188-.016-.192.159-.201.139-.375-.01-.072-.089-.073-.139-.141-.026-.036-.017-.115-.047-.141-.104-.088-.316-.064-.328-.232-.006-.1.014-.175 0-.283-.014-.102-.1-.402-.188-.422-.112-.024-.194.172-.328.234-.072.034-.207.061-.281.047-.048-.01-.135-.049-.141-.141-.01-.106.074-.122.094-.234.862-.24 1.767-.379 2.707-.379m-4.03.848c-.029.411-.396.624-.828.613-.092.088-.044.253-.094.375-.042.102-.179.197-.281.189-.074-.006-.188-.119-.188-.189 0-.086.119-.134.045-.232.003-.021.03-.041.051-.063.414-.26.843-.495 1.295-.693m8.348.477c-.037.007-.057.026-.09.045-.076.046-.083.119-.141.141-.082.03-.176.02-.188.094-.01.062.049.083.047.139-.03.074-.078.098-.094.188.102.166.341-.009.467-.045.056-.016.111-.003.141-.047.034-.054.019-.156.045-.232.028-.084.104-.067.094-.141-.008-.074-.157-.153-.281-.141m-10.947 1.193c.097.05.261.275.074.355-.02.01-.28.055-.328.045-.039-.006-.071-.041-.104-.076.115-.112.237-.218.357-.324m.354.447c.048.002.085.09.141.094.054.004.109-.057.141-.047.084.022.125.172.045.234-.066.008-.091-.055-.139-.045-.136.024-.181.289-.283.281-.096-.01-.143-.211-.045-.281.002-.06-.051-.081-.047-.141.03-.038.108-.1.188-.094zm-.467.047c.028 0 .035-.012.045 0-.014.106-.057.139-.139.189-.142.086-.237.191-.283.375-.014.054-.164.201-.232.188-.158-.034.058-.329.094-.375.04-.05.093-.085.139-.141.046-.056.05-.156.094-.188.048-.034.199-.051.283-.047zm14.15.268c.063.07.128.138.189.209-.063-.074-.166-.102-.189-.209m-.611.02c.158-.01.256.185.328.281.06.078.23.18.328.234.056.03.126.066.188.094.13.058.369.247.375.375.002.064-.055.129-.045.189.098.016.185-.136.188-.234 0-.023-.008-.038-.018-.053.283.396.538.812.762 1.248-.088.026-.164.068-.178.154-.02.112.074.261-.094.281-.106.014-.231-.109-.377-.141-.06-.014-.14.016-.188 0-.11-.038-.094-.166-.188-.232-.054-.038-.197-.084-.283-.094-.054-.006-.083.008-.139 0-.068-.008-.178-.013-.234-.047-.054-.034-.174-.095-.188-.141-.022-.074.135-.17.139-.232.004-.048-.035-.069-.045-.141-.008-.044.01-.113 0-.141-.014-.052-.107-.092-.189-.094-.072 0-.126.047-.188.047-.088.002-.265-.057-.375-.047-.066.006-.127.043-.189.047-.174.014-.286-.01-.422 0-.098.006-.283.052-.375.094-.046.022-.081.064-.141.094-.028.014-.058.029-.094.045-.056.026-.134.082-.188.096-.078.02-.186-.006-.328 0-.102.006-.279-.019-.281-.141-.002-.186.34-.109.516-.141.066-.014.108-.093.188-.139.038-.022.058-.023.094-.047.06-.042.178-.14.188-.188.008-.044-.051-.109-.045-.141.008-.042.085-.085.139-.139.084-.084.13-.18.234-.234.07-.038.202-.038.234-.094.008-.064-.002-.083 0-.141.044-.04.058-.086.094-.094.108-.024.202.051.328.045.054-.002.13-.007.188-.045.048-.032.093-.07.141-.094.052-.028.077-.09.141-.094m-12.514.096h.002c.046-.002.091 0 .141 0 .05 0 .119-.02.139 0-.032.132-.318.093-.422.045.006-.05.077-.039.141-.045m13.314.096c.057.067.116.131.172.199-.009-.005-.023-.008-.031-.014-.056-.044-.085-.118-.141-.186m-13.783.139c.034 0 .06-.014.096 0-.092.078-.217.138-.377.188-.076.024-.174.037-.188-.047-.016-.104.073-.084.141-.094.088-.01.224-.043.326-.045zm13.03.002c-.066.022-.098.17 0 .188.046-.028.059-.104.047-.188-.026-.028-.027-.008-.047 0m-.045.281c-.032.01-.06.009-.094.045.002.112.022.185 0 .283.064.124.2.037.232-.047.038-.208-.043-.307-.139-.281m.889.562c-.088-.004-.18.003-.232.045.074.12.209.158.375.188.06-.044.066-.156.094-.232-.072 0-.146.004-.234 0zm-17.572 4.119c.113.102.191.273.326.34.05.026.124.033.188.047.052.01.091.029.141.045.106.036.244.058.328.096.128.056.218.262.328.326.006.064-.02.141 0 .189.052.07.15.093.234.139.102.056.136.19.232.234.034.014.089-.016.141 0 .132.04.169.221.283.188.074-.022.082-.116.094-.188.05-.054.11-.141.188-.141.124-.002.142.161.188.283.026.068.076.116.094.188.03.124.026.489 0 .563-.032.092-.158.132-.234.232-.036.048-.066.109-.094.141-.048.06-.103.087-.139.141-.02.03-.029.097-.047.139-.06.128-.144.223-.094.377.02.062.094.114.094.188 0 .088-.174.138-.188.234-.01.07.072.187.094.281.016.07.146.142.188.188.07.078.125.183.189.283.126.194.202.419.326.609.066.098.19.177.234.281.022.052-.02.14 0 .188.072.162.401.342.563.422.076.038.164.056.234.096.106.06.321.187.375.281.048.084.07.288.094.422.03.176-.008.326 0 .516.006.104.047.177.047.281 0 .036.002.105 0 .141-.002.124.01.249 0 .375-.006.068-.004.131 0 .189.006.062.041.085.045.139.004.058-.051.143-.045.189.014.126.117.21.141.326.02.092.057.312.045.422-.008.058-.037.125-.045.189-.006.05.008.093 0 .139-.006.045-.017.082-.029.121-2.782-1.772-4.627-4.875-4.627-8.432 0-.479.045-.946.109-1.406m3.891 1.096c.096-.044.078.129 0 .141-.074.01-.072-.107 0-.141" color="#000000" fill="#fff"/>
</svg>
