<?xml version="1.0" encoding="UTF-8"?>
<svg width="64" height="64" version="1.1" viewBox="0 0 16.933 16.933" xmlns="http://www.w3.org/2000/svg" xmlns:cc="http://creativecommons.org/ns#" xmlns:dc="http://purl.org/dc/elements/1.1/" xmlns:rdf="http://www.w3.org/1999/02/22-rdf-syntax-ns#">
 <metadata>
  <rdf:RDF>
   <cc:Work rdf:about="">
    <dc:format>image/svg+xml</dc:format>
    <dc:type rdf:resource="http://purl.org/dc/dcmitype/StillImage"/>
    <dc:title/>
   </cc:Work>
  </rdf:RDF>
 </metadata>
 <defs>
  <linearGradient id="a" x1="49.571" x2="51.714" y1="52.714" y2="54.857" gradientTransform="matrix(2.3333 0 0 2.3333 -68.667 -72.001)" gradientUnits="userSpaceOnUse">
   <stop offset="0"/>
   <stop stop-opacity="0" offset="1"/>
  </linearGradient>
 </defs>
 <g transform="scale(.26458)">
  <rect x="8" y="4" width="48" height="56" ry="5" fill="#84c835" style="paint-order:stroke fill markers"/>
  <path d="m56 46-14 14h9c2.77 0 5-2.23 5-5z" fill="url(#a)" fill-rule="evenodd" opacity=".15" stroke-width="8.8191" style="paint-order:stroke fill markers"/>
 </g>
 <ellipse cx="8.4665" cy="10.848" rx="2.3812" ry="1.0583" opacity=".1" stroke-linecap="round" stroke-linejoin="round" stroke-width="1.0304" style="paint-order:stroke fill markers"/>
 <ellipse cx="8.4665" cy="10.848" rx="1.5875" ry=".52916" opacity=".1" stroke-linecap="round" stroke-linejoin="round" stroke-width=".59491" style="paint-order:stroke fill markers"/>
 <path d="m8.4665 4.4978c-1.315 0-2.3812 1.0662-2.3812 2.3812 0 1.315 1.5875 3.9687 2.3812 3.9687 0.79373 0 2.3812-2.6537 2.3812-3.9687 0-1.315-1.0662-2.3812-2.3812-2.3812zm0 1.0582c0.73063 0 1.323 0.59232 1.323 1.323 0 0.73063-0.59232 1.323-1.323 1.323s-1.323-0.59232-1.323-1.323c0-0.73063 0.59232-1.323 1.323-1.323z" fill="#fff" fill-rule="evenodd"/>
</svg>
