<svg width="64" height="64" version="1.0" xmlns="http://www.w3.org/2000/svg">
 <defs>
  <linearGradient id="a" x1="49.571" x2="51.714" y1="52.714" y2="54.857" gradientTransform="matrix(2.3333,0,0,2.3333,-68.667,-72.001)" gradientUnits="userSpaceOnUse">
   <stop offset="0"/>
   <stop stop-opacity="0" offset="1"/>
  </linearGradient>
 </defs>
 <rect x="8" y="4" width="48" height="56" ry="5" fill="#99e159" style="paint-order:stroke fill markers"/>
 <path d="m56 46-14 14h9c2.77 0 5-2.23 5-5z" fill="url(#a)" fill-rule="evenodd" opacity=".15" stroke-width="8.8191" style="paint-order:stroke fill markers"/>
 <g fill="#fff">
  <path d="M30 10v4h4v-4zm4 4v4h4v-4zm0 4h-4v4h4zm-4 0v-4h-4v4zm0 15.969V34h4v-.031z" opacity=".2"/>
  <path d="m26 18v4h4v-4zm4 4v4h8v-8h-4v4zm0 4h-4v4h4z" opacity=".6"/>
  <path d="M30 26v4h4v-4zm4 4v4h-4v-4h-4v3.71h-8L32 51l14-17.29-8 .003V30z" color="#bebebe" overflow="visible"/>
 </g>
</svg>
