<svg width="64" height="64" version="1.1" xmlns="http://www.w3.org/2000/svg">
 <defs>
  <linearGradient id="a" x1="49.571" x2="51.714" y1="52.714" y2="54.857" gradientTransform="matrix(2.3333,0,0,2.3333,-68.667,-72.001)" gradientUnits="userSpaceOnUse">
   <stop offset="0"/>
   <stop stop-opacity="0" offset="1"/>
  </linearGradient>
 </defs>
 <rect x="8" y="4" width="48" height="56" ry="5" fill="#5f656d" style="paint-order:stroke fill markers"/>
 <path d="m56 46-14 14h9c2.77 0 5-2.23 5-5z" fill="url(#a)" fill-rule="evenodd" opacity=".25" stroke-width="8.8191" style="paint-order:stroke fill markers"/>
 <g transform="translate(0,4)" fill="#fff">
  <path d="m18 19c-0.554 0-1 0.446-1 1v20c0 0.554 0.446 1 1 1h28c0.554 0 1-0.446 1-1v-20c0-0.554-0.446-1-1-1zm20 1a1 1 0 0 1 1 1 1 1 0 0 1-1 1 1 1 0 0 1-1-1 1 1 0 0 1 1-1zm3 0a1 1 0 0 1 1 1 1 1 0 0 1-1 1 1 1 0 0 1-1-1 1 1 0 0 1 1-1zm3 0a1 1 0 0 1 1 1 1 1 0 0 1-1 1 1 1 0 0 1-1-1 1 1 0 0 1 1-1zm-26 3h6v17h-6zm7 0h21v17h-21z" fill-rule="evenodd" style="paint-order:fill markers stroke"/>
  <g transform="translate(-.62892)" aria-label="X">
   <path d="m32 37h1.3233l1.4461-2.7012c0.25921-0.49113 0.51842-1.0096 0.80491-1.6098h0.05457c0.32742 0.60027 0.60027 1.1187 0.85948 1.6098l1.4734 2.7012h1.3915l-2.9195-5.1023 2.7285-4.8977h-1.3233l-1.337 2.5512c-0.24557 0.46385-0.43656 0.88677-0.70941 1.4598h-0.05457c-0.32742-0.57299-0.53206-0.99591-0.79127-1.4598l-1.3643-2.5512h-1.3915l2.7285 4.8295z" fill="#fff"/>
  </g>
 </g>
</svg>
