<svg width="64" height="64" version="1.1" viewBox="0 0 16.933 16.933" xmlns="http://www.w3.org/2000/svg">
 <defs>
  <linearGradient id="a" x1="49.571" x2="51.714" y1="52.714" y2="54.857" gradientTransform="matrix(2.3333,0,0,2.3333,-68.667,-72.001)" gradientUnits="userSpaceOnUse">
   <stop offset="0"/>
   <stop stop-opacity="0" offset="1"/>
  </linearGradient>
 </defs>
 <g transform="scale(.26458)">
  <rect x="8" y="4" width="48" height="56" ry="5" fill="#008a50" style="paint-order:stroke fill markers"/>
  <path d="m56 46-14 14h9c2.77 0 5-2.23 5-5z" fill="url(#a)" fill-rule="evenodd" opacity=".15" stroke-width="8.8191" style="paint-order:stroke fill markers"/>
 </g>
 <g transform="translate(-20.433 -.26906)" fill="#fff" stroke-width=".088193">
  <path d="m29.199 5.0315c-1.2902 0.22976-2.5811 0.53459-3.8713 0.76014 0 1.9626-8.4e-4 3.9261 0 5.8896 1.2835 0.22471 2.5676 0.5245 3.8485 0.75847h0.38446v-7.4082zm-0.86117 2.3092c-0.22469 0.46033-0.45024 0.9207-0.67914 1.3793 0.23143 0.47127 0.46794 0.93908 0.7002 1.4104-0.20281-0.01178-0.40476-0.02445-0.60757-0.03876-0.14306-0.35093-0.31732-0.68998-0.41999-1.0569-0.11445 0.34167-0.27773 0.66395-0.40901 0.99889-0.1843-0.0025-0.36863-0.01013-0.55293-0.0177 0.21628-0.4233 0.425-0.85005 0.64801-1.2708-0.18935-0.4334-0.39722-0.8583-0.59246-1.2892 0.18514-0.01094 0.37037-0.02181 0.55551-0.03191 0.12539 0.32905 0.26248 0.6538 0.36599 0.99126 0.11108-0.35766 0.27687-0.69422 0.41909-1.0401 0.19019-0.01346 0.38127-0.02524 0.5723-0.03449z" enable-background="new"/>
  <path d="m29.825 6.0898v0.52916h0.79373v0.52916h-0.79373v0.26458h0.79373v0.53006h-0.79373v0.26367h0.79373v0.52916h-0.79373v0.26458h0.79373v0.52916h-0.79373v0.26458h0.79373v0.52916h-0.79373v0.26458h0.79373v0.52916h-0.79373v0.52916h2.6458v-5.5561zm1.0583 0.52916h1.0583v0.52916h-1.0583zm0 0.79374h1.0583v0.53006h-1.0583zm0 0.79373h1.0583v0.52916h-1.0583zm0 0.79373h1.0583v0.52916h-1.0583zm0 0.79374h1.0583v0.52916h-1.0583zm0 0.79373h1.0583v0.52916h-1.0583z" enable-background="new"/>
 </g>
</svg>
