<svg width="64" height="64" version="1.1" viewBox="0 0 16.933 16.933" xmlns="http://www.w3.org/2000/svg">
 <defs>
  <linearGradient id="a" x1="49.571" x2="51.714" y1="52.714" y2="54.857" gradientTransform="matrix(2.3333,0,0,2.3333,-68.667,-72.001)" gradientUnits="userSpaceOnUse">
   <stop offset="0"/>
   <stop stop-opacity="0" offset="1"/>
  </linearGradient>
 </defs>
 <g transform="scale(.26458)">
  <rect x="8" y="4" width="48" height="56" ry="5" fill="#f4f4f4" style="paint-order:stroke fill markers"/>
  <path d="m56 46-14 14h9c2.77 0 5-2.23 5-5z" fill="url(#a)" fill-rule="evenodd" opacity=".1" stroke-width="8.8191" style="paint-order:stroke fill markers"/>
 </g>
 <g transform="translate(-.13229 .79373)" fill="#b3b3b3">
  <path transform="matrix(.26458 0 0 .26458 .13229 -.79373)" d="m20 28c-2.216 0-4 1.784-4 4s1.784 4 4 4h6c1.483 0 2.7584-0.80729 3.4492-2h-1.2461c-0.54683 0.6049-1.3196 1-2.2031 1h-6c-1.662 0-3-1.338-3-3s1.338-3 3-3h6c0.88351 0 1.6563 0.3951 2.2031 1h1.2461c-0.69084-1.1927-1.9662-2-3.4492-2h-6z" style="paint-order:fill markers stroke"/>
  <path transform="matrix(.26458 0 0 .26458 .13229 -.79373)" d="m38 28c-1.483 0-2.7584 0.80729-3.4492 2h1.2461c0.54683-0.6049 1.3196-1 2.2031-1h6c1.662 0 3 1.338 3 3s-1.338 3-3 3h-6c-0.88351 0-1.6563-0.3951-2.2031-1h-1.2461c0.69084 1.1927 1.9662 2 3.4492 2h6c2.216 0 4-1.784 4-4s-1.784-4-4-4h-6z" style="paint-order:fill markers stroke"/>
 </g>
 <path d="m7.6728 8.2019h1.5875c0.14658 0 0.26458 0.118 0.26458 0.26458s-0.118 0.26458-0.26458 0.26458h-1.5875c-0.14658 0-0.26458-0.118-0.26458-0.26458s0.118-0.26458 0.26458-0.26458z" fill="#b3b3b3" style="paint-order:fill markers stroke"/>
</svg>
