<svg width="64" height="64" version="1.1" viewBox="0 0 64 64" xmlns="http://www.w3.org/2000/svg">
 <defs>
  <linearGradient id="a" x1="49.571" x2="51.714" y1="52.714" y2="54.857" gradientTransform="matrix(2.3333,0,0,2.3333,-68.667,-72.001)" gradientUnits="userSpaceOnUse">
   <stop offset="0"/>
   <stop stop-opacity="0" offset="1"/>
  </linearGradient>
 </defs>
 <g transform="scale(1)">
  <rect x="8" y="4" width="48" height="56" ry="5" fill="#f4f4f4" style="paint-order:stroke fill markers"/>
  <path d="m56 46-14 14h9c2.77 0 5-2.23 5-5z" fill="url(#a)" fill-rule="evenodd" opacity=".1" stroke-width="8.8191" style="paint-order:stroke fill markers"/>
 </g>
 <path d="m21 22v13h7v-1h-4v-4h4v-1h6v-7zm1 1h1v2h-1zm2 0h7v4h-7zm8 0h1v2h-1zm-10 3h1v2h-1zm10 0h1v2h-1zm-10 4h1v2h-1zm7 0v10l4 4v-4h10v-10zm1 1h12v8h-12zm-8 2h1v1h-1z" color="#000000" color-rendering="auto" image-rendering="auto" opacity=".35" shape-rendering="auto" solid-color="#000000" style="filter-blend-mode:normal;filter-gaussianBlur-deviation:0;isolation:auto;mix-blend-mode:normal"/>
</svg>
