<svg width="64" height="64" version="1.1" viewBox="0 0 16.933 16.933" xmlns="http://www.w3.org/2000/svg">
 <defs>
  <linearGradient id="a" x1="49.571" x2="51.714" y1="52.714" y2="54.857" gradientTransform="matrix(2.3333,0,0,2.3333,-68.667,-72.001)" gradientUnits="userSpaceOnUse">
   <stop offset="0"/>
   <stop stop-opacity="0" offset="1"/>
  </linearGradient>
 </defs>
 <g transform="scale(.26458)">
  <rect x="8" y="4" width="48" height="56" ry="5" fill="#f4f4f4" style="paint-order:stroke fill markers"/>
  <path d="m56 46-14 14h9c2.77 0 5-2.23 5-5z" fill="url(#a)" fill-rule="evenodd" opacity=".1" stroke-width="8.8191" style="paint-order:stroke fill markers"/>
 </g>
 <g transform="translate(-.35818 .95866)" fill="#57688e" fill-opacity=".471" stroke-width=".427">
  <path d="m10.692 4.262a1.73 1.73 0 0 0-0.162 0.194l-0.132 0.174-0.047-0.032c-0.066-0.044-0.129-0.054-0.189-0.027-0.04 0.018-0.138 0.142-0.774 0.979a42.55 42.55 0 0 0-0.728 0.97c0 6e-3 0.162 0.133 0.357 0.281l0.357 0.271 0.475-0.625c0.26-0.344 0.478-0.622 0.483-0.618 0.017 0.012 0.046 0.283 0.04 0.37a0.904 0.904 0 0 1-0.04 0.19c-0.033 0.101-0.037 0.108-0.626 0.885-0.325 0.43-0.596 0.795-0.6 0.81-0.015 0.04 0 0.114 0.03 0.157 0.05 0.073 0.175 0.096 0.246 0.045 0.05-0.036 1.215-1.587 1.253-1.668 0.108-0.231 0.132-0.528 0.066-0.82a1.896 1.896 0 0 0-0.095-0.307c-0.01-0.022 7e-3 -0.05 0.116-0.194 0.103-0.138 0.126-0.177 0.128-0.213 5e-3 -0.077-0.018-0.12-0.093-0.178l-0.07-0.055 0.14-0.186c0.115-0.154 0.14-0.194 0.142-0.23 7e-3 -0.153-0.151-0.252-0.277-0.173"/>
  <path d="m7.483 8.058c-0.837 1.104-0.956 1.267-1.033 1.408-0.154 0.28-0.322 0.707-0.435 1.097-0.072 0.25-0.075 0.228 0.024 0.175 0.308-0.164 0.71-0.43 0.944-0.627 0.23-0.193 0.268-0.242 1.241-1.523l0.936-1.233-0.36-0.273c-0.198-0.15-0.362-0.273-0.365-0.272-3e-3 0-0.431 0.562-0.952 1.248m0.935 1.612a0.631 0.631 0 0 0-0.384 0.3 1.301 1.301 0 0 0-0.075 0.186 1.9 1.9 0 0 1-0.039 0.122c-0.01 0.014-0.288 0.08-0.45 0.108-0.384 0.067-0.488 0.092-0.525 0.127-0.074 0.068-0.017 0.136 0.087 0.106 0.028-9e-3 0.146-0.032 0.26-0.052s0.288-0.055 0.387-0.078a0.971 0.971 0 0 1 0.187-0.034 0.813 0.813 0 0 1-0.04 0.176l-0.046 0.168-0.105 0.045a1.34 1.34 0 0 0-0.182 0.098c-0.13 0.086-0.156 0.194-0.064 0.264 0.05 0.038 0.189 0.037 0.276 0 0.077-0.035 0.12-0.083 0.18-0.21 0.032-0.066 0.056-0.1 0.076-0.105 0.016-6e-3 0.153-0.032 0.306-0.063l0.31-0.064c0.03-7e-3 0.033-6e-3 0.024 0.022a0.735 0.735 0 0 1-0.057 0.109 0.315 0.315 0 0 0-0.047 0.115c0 0.043 0.036 0.086 0.066 0.075a0.08 0.08 0 0 1 0.033-9e-3 0.255 0.255 0 0 0 0.068-0.05c0.057-0.052 0.196-0.304 0.196-0.356 0-0.027 0.02-0.034 0.033-0.013 4e-3 7e-3 0.037 0.02 0.071 0.028 0.05 0.013 0.063 0.022 0.063 0.045 0 0.043 0.071 0.106 0.134 0.118a0.32 0.32 0 0 0 0.178-0.029c0.024-0.01 0.025-7e-3 0.017 0.03a0.897 0.897 0 0 1-0.09 0.158 2.288 2.288 0 0 0-0.232 0.45c-0.023 0.082-0.013 0.143 0.03 0.172 0.038 0.025 0.102 0.014 0.136-0.022a4.34 4.34 0 0 0 0.246-0.52 0.563 0.563 0 0 1 0.156-0.237c0.078-0.082 0.103-0.102 0.086-0.07-0.027 0.06-0.026 0.106 5e-3 0.134 0.065 0.06 0.16 0 0.242-0.148 0.049-0.09 0.085-0.116 0.266-0.201l0.095-0.043-0.01 0.051a1.081 1.081 0 0 1-0.072 0.175c-0.065 0.138-0.078 0.226-0.039 0.3 0.027 0.052 0.055 0.053 0.183 0.01 0.178-0.06 0.41-0.198 0.47-0.277 0.082-0.112 0.107-0.22 0.057-0.255-0.052-0.038-0.08-0.022-0.146 0.074a0.837 0.837 0 0 1-0.3 0.283c-0.05 0.026-0.093 0.043-0.097 0.038a5.018 5.018 0 0 1 0.165-0.445 0.281 0.281 0 0 0 0.023-0.08c0-0.04-0.05-0.084-0.09-0.084a0.958 0.958 0 0 0-0.204 0.084c-0.19 0.095-0.178 0.103-0.13-0.075 0.03-0.11 0.02-0.139-0.046-0.146-0.064-7e-3 -0.09 0.015-0.148 0.119a0.822 0.822 0 0 1-0.183 0.218c-0.127 0.117-0.132 0.121-0.162 0.1-0.045-0.032-0.07-0.027-0.178 0.027-0.106 0.053-0.141 0.06-0.168 0.028-0.022-0.026 0.013-0.04 0.207-0.078 0.187-0.036 0.21-0.046 0.21-0.085 0-0.062-0.05-0.122-0.142-0.163-0.159-0.07-0.177-0.075-0.247-0.057-0.075 0.02-0.186 0.127-0.202 0.194-0.015 0.069-0.062 0.049-0.062-0.028a0.243 0.243 0 0 0-0.062-0.127c-0.047-0.032-0.124 0.038-0.182 0.165l-0.046 0.099-0.102 0.022c-0.134 0.03-0.522 0.107-0.574 0.117-0.034 6e-3 -0.04 6e-3 -0.032-0.017l0.039-0.137c0.043-0.172 0.055-0.195 0.118-0.217a6.14 6.14 0 0 0 0.394-0.169 0.86 0.86 0 0 0 0.14-0.104c0.14-0.131 0.162-0.252 0.062-0.341a0.424 0.424 0 0 0-0.08-0.056 0.59 0.59 0 0 0-0.24-0.014zm0.179 0.191c0.028 0.028 0.028 0.03 3e-3 0.083a0.323 0.323 0 0 1-0.105 0.106c-0.085 0.058-0.35 0.165-0.36 0.146-0.01-0.032 0.075-0.223 0.13-0.284 0.072-0.082 0.093-0.09 0.208-0.084 0.074 7e-3 0.103 0.012 0.124 0.034m-0.908 1.158c-0.018 0.034-0.065 0.06-0.091 0.05-0.03-0.013-0.023-0.03 0.026-0.055 0.064-0.032 0.084-0.03 0.066 7e-3z"/>
 </g>
</svg>
