<svg width="64" height="64" version="1.1" viewBox="0 0 16.933 16.933" xmlns="http://www.w3.org/2000/svg">
 <defs>
  <linearGradient id="a" x1="49.571" x2="51.714" y1="52.714" y2="54.857" gradientTransform="matrix(2.3333,0,0,2.3333,-68.667,-72.001)" gradientUnits="userSpaceOnUse">
   <stop offset="0"/>
   <stop stop-opacity="0" offset="1"/>
  </linearGradient>
 </defs>
 <g transform="scale(.26458)">
  <rect x="8" y="4" width="48" height="56" ry="5" fill="#f4f4f4" style="paint-order:stroke fill markers"/>
  <path d="m56 46-14 14h9c2.77 0 5-2.23 5-5z" fill="url(#a)" fill-rule="evenodd" opacity=".1" stroke-width="8.8191" style="paint-order:stroke fill markers"/>
 </g>
 <g transform="translate(-19.63 .55404)">
  <path d="m24.128 5.0021v6.0853h2.9104c0.58845 4.8e-5 0.95173 0.47451 0.95173 0.47451l6.5e-4 9e-4 0.10387 0.13772 0.10671-0.13578 9e-4 -0.0012s0.37286-0.4669 0.95277-0.47619h2.9103v-6.0853h-2.9103c-0.50874 0-0.78314 0.21887-0.96607 0.39661l-0.09224 0.08966-0.09224-0.08966c-0.18298-0.17775-0.4575-0.39661-0.96607-0.39661zm0.26458 0.26458h2.6458c0.59189 5.4e-5 0.95122 0.47412 0.95122 0.47412l5.25e-4 7.75e-4 0.10658 0.1425 0.10658-0.1425 5.25e-4 -7.75e-4s0.3593-0.47412 0.95122-0.47412h2.6458v5.5561h-2.6481c-0.5032 0.0073-0.77987 0.22564-0.96284 0.39971l-0.09224 0.08785-0.09121-0.08901c-0.17842-0.17392-0.48093-0.4229-0.96801-0.39855h-2.6458v-5.4239z" color="#000000" color-rendering="auto" fill="#999" image-rendering="auto" shape-rendering="auto" solid-color="#000000" style="font-feature-settings:normal;font-variant-alternates:normal;font-variant-caps:normal;font-variant-ligatures:none;font-variant-numeric:normal;font-variant-position:normal;isolation:auto;mix-blend-mode:normal;shape-padding:0;text-decoration-color:#000000;text-decoration-line:none;text-decoration-style:solid;text-indent:0;text-transform:none;white-space:normal"/>
  <path d="m26.377 6.1927v0.13229h0.92602v-0.13229zm2.5135 0v0.13229h2.3812v-0.13229zm-2.5135 0.52916v0.13229h0.92602v-0.13229zm2.5135 0v0.13229h2.3812v-0.13229zm-2.5135 0.52916v0.13229h0.92602v-0.13229zm2.5135 0v0.13229h2.3812v-0.13229zm-3.9687 0.52916v0.13229h2.3812v-0.13229zm3.9687 0v0.13229h2.3812v-0.13229zm-3.9687 0.52916v0.13229h2.3812v-0.13229zm3.9687 0v0.13229h2.3812v-0.13229zm-3.9687 0.52916v0.13229h2.3812v-0.13229zm3.9687 0v0.13229h2.3812v-0.13229zm-3.9687 0.52916v0.13229h2.3812v-0.13229zm3.9687 0v0.13229h2.3812v-0.13229zm-3.9687 0.52916v0.13229h2.3812v-0.13229zm3.9687 0v0.13229h1.3229v-0.13229z" color="#000000" color-rendering="auto" fill="#999" image-rendering="auto" shape-rendering="auto" solid-color="#000000" style="font-feature-settings:normal;font-variant-alternates:normal;font-variant-caps:normal;font-variant-ligatures:none;font-variant-numeric:normal;font-variant-position:normal;isolation:auto;mix-blend-mode:normal;shape-padding:0;text-decoration-color:#000000;text-decoration-line:none;text-decoration-style:solid;text-indent:0;text-transform:none;white-space:normal"/>
  <path d="m25.444 6.1927-0.41955 1.1056h-0.10306v0.08504h0.29765v-0.08504h-0.09529l0.09941-0.25531h0.49328l0.09929 0.25531h-0.12874v0.08504h0.42697v-0.08504h-0.11778l-0.41966-1.1056zm0.02579 0.1914 0.21719 0.57417h-0.43074z" color="#bebebe" enable-background="new" fill="#808080" font-size="13.717" font-weight="400" letter-spacing="0" overflow="visible" stroke-width=".085043" word-spacing="0"/>
 </g>
</svg>
