<?xml version="1.0" encoding="UTF-8"?>
<svg width="64" height="64" version="1.1" viewBox="0 0 16.933 16.933" xmlns="http://www.w3.org/2000/svg" xmlns:cc="http://creativecommons.org/ns#" xmlns:dc="http://purl.org/dc/elements/1.1/" xmlns:rdf="http://www.w3.org/1999/02/22-rdf-syntax-ns#">
 <metadata>
  <rdf:RDF>
   <cc:Work rdf:about="">
    <dc:format>image/svg+xml</dc:format>
    <dc:type rdf:resource="http://purl.org/dc/dcmitype/StillImage"/>
    <dc:title/>
   </cc:Work>
  </rdf:RDF>
 </metadata>
 <defs>
  <linearGradient id="a" x1="49.571" x2="51.714" y1="52.714" y2="54.857" gradientTransform="matrix(2.3333,0,0,2.3333,-68.667,-72.001)" gradientUnits="userSpaceOnUse">
   <stop offset="0"/>
   <stop stop-opacity="0" offset="1"/>
  </linearGradient>
 </defs>
 <g transform="scale(.26458)">
  <rect x="8" y="4" width="48" height="56" ry="5" fill="#1463a5" style="paint-order:stroke fill markers"/>
  <path d="m56 46-14 14h9c2.77 0 5-2.23 5-5z" fill="url(#a)" fill-rule="evenodd" opacity=".15" stroke-width="8.8191" style="paint-order:stroke fill markers"/>
 </g>
 <path transform="scale(.26458)" d="m26.029 17.053c-0.62523 0-1.305 0.21788-1.9277 0.58203-0.40258 0.23541-0.77661 0.54148-1.082 0.90234-1.4638-1.0721-3.0276-1.4184-4.2773-1.4766-1.423-0.066196-2.4355 0.23633-2.4355 0.23633l-0.48633 0.13867 0.14648 0.48828s0.51305 1.6202 1.5215 3.1816c0.50422 0.78071 1.1364 1.5627 1.9258 2.1191 0.75499 0.53219 1.6803 0.83883 2.6992 0.70898 0.081809 0.76888 0.20379 1.5371 0.34375 2.2656 0.35611 1.8536 0.75167 3.1572 0.94141 3.7578-0.27563 0.69937-0.56437 1.458-0.85352 2.2949-0.9699 2.8072-1.8879 6.0853-1.4609 8.334 0.36943 1.9457 1.137 3.5371 2.4355 4.7148-0.22894 0.99405-0.23263 1.8588 0.03711 2.5781 0.28313 0.75502 0.88435 1.3079 1.6758 1.5957 1.5458 0.56211 3.8322 0.23067 6.7617-0.72461 2.9342 0.95777 5.2221 1.2873 6.7695 0.72461 0.79143-0.28778 1.3985-0.84068 1.6816-1.5957 0.26924-0.71798 0.25757-1.5806 0.029297-2.5723 1.303-1.1783 2.0752-2.7714 2.4453-4.7207 0.42691-2.2487-0.49299-5.5268-1.4629-8.334-0.28914-0.83687-0.57789-1.5956-0.85352-2.2949 0.18974-0.6006 0.58725-1.9042 0.94336-3.7578 0.13996-0.72851 0.25999-1.4968 0.3418-2.2656 1.0172 0.12785 1.9457-0.17782 2.6992-0.70898 0.78935-0.55642 1.4137-1.3384 1.918-2.1191 1.0084-1.5614 1.5215-3.1816 1.5215-3.1816l0.1543-0.48828-0.48633-0.13867s-1.0125-0.30252-2.4355-0.23633c-1.2498 0.058137-2.8135 0.40447-4.2773 1.4766-0.30542-0.36087-0.67946-0.66693-1.082-0.90234-0.62275-0.36416-1.3025-0.58203-1.9277-0.58203-1.079 0-1.881 0.22593-2.7383 0.43555-0.8573 0.20961-1.7863 0.41406-3.2324 0.41406-1.4462 0-2.3771-0.20445-3.2344-0.41406-0.85726-0.20961-1.6592-0.43555-2.7383-0.43555zm-7.3086 0.98047c1.0354 0.018003 2.4062 0.32332 3.7812 1.377-0.42006 1.0146-0.52804 2.2509-0.46484 3.5371-0.7695 0.11375-1.4269-0.10594-2.0469-0.54297-0.63402-0.44692-1.2077-1.1253-1.668-1.8379-0.74255-1.1497-0.97904-1.9517-1.1289-2.377 0.29623-0.065485 0.83718-0.16825 1.5273-0.15625zm26.561 0c0.69017-0.012 1.2311 0.090765 1.5273 0.15625-0.14976 0.42498-0.394 1.227-1.1367 2.377-0.46024 0.71262-1.0261 1.391-1.6602 1.8379-0.61994 0.437-1.2755 0.65666-2.0449 0.54297 0.063185-1.2861-0.044846-2.5226-0.46484-3.5371 1.3748-1.0532 2.744-1.359 3.7793-1.377zm-19.252 0.007813c0.93959 0 1.6239 0.19938 2.502 0.41406s1.9302 0.43555 3.4707 0.43555c1.5404 0 2.5907-0.22086 3.4688-0.43555 0.87805-0.21468 1.5624-0.41406 2.502-0.41406 0.37033 0 0.93314 0.1631 1.4258 0.45117 0.49264 0.28807 0.91504 0.7007 1.1133 1.1152 0.68087 1.4238 0.4921 4.1193 0.052734 6.4062-0.1786 0.92964-0.38363 1.7503-0.57031 2.4473-0.31266-0.7345-0.57422-1.3164-0.57422-1.3164a0.49782 0.49782 0 0 0-0.48047-0.29688 0.49782 0.49782 0 0 0-0.41992 0.7168s0.4578 1.0111 1.0293 2.4414c-0.006436 0.019597-0.054687 0.17969-0.054687 0.17969l0.14648 0.048828c0.28041 0.71002 0.57387 1.4816 0.87109 2.3418 0.95111 2.7528 1.7645 6.042 1.4258 7.8262-0.51329 2.7034-1.637 4.409-4.1484 5.4023-0.25103 0.099252-0.76926 0.14239-1.3652 0.082031-0.59597-0.060323-1.2728-0.20175-1.9062-0.36133-1.0921-0.27516-1.7793-0.53455-2.0215-0.62109v-6.334c0.39735-0.15442 1.8595-1.4452 3.2617-3.7129-0.060839 0.23434-0.1095 0.51511-0.17578 0.69531-0.070599 0.19193-0.14715 0.34378-0.19922 0.41992-0.016513 0.02415-0.018078 0.022684-0.023437 0.027344a0.49782 0.49782 0 0 0 0.22266 0.96875c0.31516-0.048447 0.49838-0.24752 0.62695-0.43555 0.12858-0.18802 0.22314-0.40496 0.31055-0.64258 0.17481-0.47524 0.30765-1.0521 0.41992-1.623 0.22227-1.1304 0.33746-2.2083 0.33984-2.2305 2.4e-5 -2.26e-4 0.007812-0.021484 0.007812-0.021484a0.49904 0.49904 0 0 0-0.99023-0.13281c-0.71994 4.4861-3.8722 5.7319-4.2969 5.8828-0.42855-0.15248-3.5755-1.4001-4.2949-5.8828a0.49856 0.49856 0 0 0-0.99023 0.125s0.007774 0.028919 0.007812 0.029297h-0.007812c6.96e-4 0.004347 0.007132 0.003488 0.007812 0.007813 0.003566 0.035793 0.10064 1.0759 0.31055 2.1777 0.10675 0.56031 0.24312 1.1277 0.41406 1.5957 0.085472 0.23401 0.17467 0.4406 0.30273 0.62695s0.30801 0.38772 0.61914 0.43555a0.49782 0.49782 0 0 0 0.22266-0.9707c-0.006029-0.004706-0.007767-0.002585-0.023438-0.02539-0.05017-0.073003-0.123-0.21897-0.19141-0.40625-0.063868-0.17486-0.11178-0.44411-0.16992-0.67188 1.3991 2.2996 2.8872 3.5978 3.293 3.7598v6.3398c-0.24489 0.087629-0.92815 0.34517-2.0156 0.61914-0.63345 0.15957-1.3161 0.301-1.9121 0.36133-0.59597 0.060322-1.1083 0.017296-1.3594-0.082031-2.5115-0.99337-3.6351-2.699-4.1484-5.4023-0.33874-1.7842 0.47468-5.0734 1.4258-7.8262 0.29722-0.86025 0.59264-1.6318 0.87305-2.3418l0.14453-0.048828s-0.046454-0.15862-0.052734-0.17774c0.57183-1.4313 1.0273-2.4434 1.0273-2.4434a0.49782 0.49782 0 0 0-0.43555-0.7168 0.49782 0.49782 0 0 0-0.46484 0.29688s-0.26222 0.5816-0.57422 1.3145c-0.18654-0.69661-0.39189-1.5166-0.57031-2.4453-0.43936-2.2869-0.62813-4.9825 0.052734-6.4062 0.19824-0.41454 0.62064-0.82716 1.1133-1.1152 0.49264-0.28807 1.0555-0.45117 1.4258-0.45117zm1.584 3.8164c-0.47679 0.022741-0.98257 0.13214-1.4883 0.35156a0.49782 0.49782 0 0 0-0.078125 0.023438l0.015625-0.001953c-0.011119 0.005046-0.022087 0.006554-0.033203 0.011719a0.49782 0.49782 0 0 0-0.28906 0.44922c7.04e-4 0.35647 0.047755 1.0317 0.31055 1.7129s0.80785 1.4172 1.7422 1.5586c0.53078 0.080348 1.0249-0.10789 1.3809-0.39062 0.35596-0.28273 0.60722-0.65257 0.80469-1.0117 0.35611-0.64769 0.47899-1.1764 0.50976-1.2988 0.001057-0.001718 0.074166-0.24978 0.074219-0.25195s-0.030343-0.18879-0.03125-0.19141c-9.34e-4 -0.002615-0.034106-0.076952-0.050781-0.10352-0.016706-0.026571-0.030601-0.049247-0.044922-0.066406-0.057293-0.068643-0.10167-0.099923-0.14648-0.13281-0.089623-0.06578-0.18802-0.11733-0.31055-0.17773-0.24506-0.12081-0.58011-0.25223-0.98242-0.34766-0.40232-0.095424-0.87586-0.15699-1.3828-0.13281zm8.7754 0c-0.50695-0.024181-0.9805 0.037388-1.3828 0.13281s-0.73736 0.22685-0.98242 0.34766c-0.12253 0.060405-0.22092 0.11195-0.31055 0.17773-0.044811 0.032883-0.089197 0.064171-0.14648 0.13281-0.014324 0.017159-0.02822 0.039843-0.044922 0.066406-0.016705 0.02657-0.049847 0.1009-0.050781 0.10352-9.33e-4 0.002615-0.029372 0.18923-0.029297 0.19141 5.4e-5 0.002177 0.071211 0.25024 0.072266 0.25195 0.030766 0.1224 0.15365 0.65114 0.50977 1.2988 0.19747 0.35915 0.44873 0.72899 0.80469 1.0117s0.84227 0.47097 1.373 0.39062c0.93434-0.14142 1.4872-0.8774 1.75-1.5586 0.2628-0.68119 0.30983-1.3564 0.31055-1.7129a0.49782 0.49782 0 0 0-0.28906-0.44922c-0.53744-0.24969-1.077-0.36059-1.584-0.38477zm-8.0625 1.0391c0.15518 0.008366 0.30373 0.029846 0.44141 0.0625 0.29168 0.069182 0.51591 0.16318 0.6875 0.24219-0.060674 0.20856-0.11574 0.45711-0.34766 0.87891-0.15786 0.28712-0.35348 0.55072-0.55273 0.70898-0.19925 0.15827-0.36636 0.21979-0.60547 0.18359-0.50803-0.07689-0.77612-0.42254-0.96875-0.92188-0.133-0.34475-0.14048-0.64235-0.16797-0.9375 0.51867-0.16105 1.0481-0.24189 1.5137-0.2168zm7.3496 0c0.46555-0.025097 0.99695 0.055744 1.5156 0.2168-0.027477 0.29515-0.036948 0.59275-0.16992 0.9375-0.19262 0.49933-0.45877 0.84498-0.9668 0.92188-0.23911 0.036196-0.40622-0.025328-0.60547-0.18359-0.19925-0.15826-0.39682-0.42187-0.55469-0.70898-0.23192-0.4218-0.28503-0.67035-0.3457-0.87891 0.17144-0.078566 0.39634-0.17359 0.68555-0.24219 0.13768-0.032654 0.28622-0.054134 0.44141-0.0625zm-3.6777 22.908c0.22454 0.080265 1.1091 0.39317 2.2773 0.6875 0.66317 0.1671 1.3792 0.31481 2.0508 0.38281 0.67154 0.067995 1.2963 0.073213 1.832-0.13867 0.53278-0.21073 0.99964-0.47024 1.4355-0.75391 0.099576 0.64782 0.064611 1.162-0.078125 1.543-0.18354 0.48942-0.51435 0.80955-1.0918 1.0195-1.1549 0.41997-3.3282 0.22591-6.2676-0.75391l-0.1543-0.050782-0.16406 0.050782c-2.9395 0.9798-5.1107 1.1739-6.2656 0.75391-0.57745-0.20998-0.90241-0.53011-1.0859-1.0195-0.14311-0.38164-0.18228-0.89734-0.083984-1.5469 0.43745 0.28526 0.90622 0.54613 1.4414 0.75781 0.53575 0.21188 1.1605 0.20667 1.832 0.13867 0.67154-0.067995 1.3876-0.21574 2.0508-0.38281 1.1675-0.29414 2.0474-0.60693 2.2715-0.6875z" color="#000000" color-rendering="auto" dominant-baseline="auto" enable-background="new" fill="#fff" image-rendering="auto" shape-rendering="auto" solid-color="#000000" style="font-feature-settings:normal;font-variant-alternates:normal;font-variant-caps:normal;font-variant-ligatures:normal;font-variant-numeric:normal;font-variant-position:normal;isolation:auto;mix-blend-mode:normal;shape-padding:0;text-decoration-color:#000000;text-decoration-line:none;text-decoration-style:solid;text-indent:0;text-orientation:mixed;text-transform:none;white-space:normal"/>
</svg>
