<svg width="64" height="64" version="1.1" viewBox="0 0 16.933 16.933" xmlns="http://www.w3.org/2000/svg">
 <defs>
  <linearGradient id="a" x1="49.571" x2="51.714" y1="52.714" y2="54.857" gradientTransform="matrix(.61734 0 0 .61734 -18.168 -19.05)" gradientUnits="userSpaceOnUse">
   <stop offset="0"/>
   <stop stop-opacity="0" offset="1"/>
  </linearGradient>
 </defs>
 <rect x="2.1166" y="1.0583" width="12.7" height="14.816" ry="1.3229" fill="#ff7643" stroke-width=".26458" style="paint-order:stroke fill markers"/>
 <path d="m14.816 12.171-3.7041 3.7041h2.3812c0.73289 0 1.3229-0.59001 1.3229-1.3229z" fill="url(#a)" fill-rule="evenodd" opacity=".15" stroke-width="2.3334" style="paint-order:stroke fill markers"/>
 <g fill="#fff">
  <path d="m7.938 6.6145v1.7198c0 0.073288 0.059 0.13229 0.13229 0.13229h0.79374c0.07329 0 0.13229-0.059001 0.13229-0.13229v-1.7198zm0.26458 1.0583h0.52916v0.52916h-0.52916z" color="#000000"/>
  <path d="m8.467 1.0583h-0.52916v0.52916h0.52916zm0 0.52916v0.52916h0.52916v-0.52916zm0 0.52916h-0.52916v0.52916h0.52916zm0 0.52916v0.52916h0.52916v-0.52916zm0 0.52916h-0.52916v0.52916h0.52916zm0 0.52916v0.52916h0.52916v-0.52916zm0 0.52916h-0.52916v0.52916h0.52916zm0 0.52916v0.52916h0.52916v-0.52916zm0 0.52916h-0.52916v0.52916h0.52916zm0 0.52916v0.52916h0.52916v-0.52916z" color="#000000"/>
  <path transform="scale(.26458)" d="m19.26 32.967a32.849 32.849 0 0 0-0.052735 0.001953c-1.1908 0.023258-2.3724 0.069258-3.1445 0.18555-3.4794 0.53028-6.2611 1.7485-8.0566 3.5254a7.1634 7.1634 0 0 0-0.0058594 0.005859v10.225c0.92198 1.0021 2.1374 1.9421 3.7188 2.8828 1.3862 0.81402 2.4558 1.3533 5.5352 2.7441 3.698 1.6606 4.824 2.3295 5.3496 3.1621 0.20467 0.33956 0.27791 0.51328 0.25 0.91797-0.055818 0.64191-0.37536 0.96189-1.1289 1.2363-0.50702 0.17677-0.6851 0.23242-1.6387 0.23242-1.7443-0.018521-3.2797-0.34338-5.4102-1.1016a19.685 19.685 0 0 1-4.2129-2.0664c-1.2327-0.80472-1.3317-0.83599-1.6992-0.64062-0.074311 0.040867-0.4866 0.40882-0.76367 0.64453v0.076172c0 2.77 2.23 5 5 5h21.555c0.59754-0.71709 1.0014-1.3919 1.3184-2.2832 0.36284-1.0094 0.45728-3.0054 0.1875-4.2148-0.4419-1.9583-1.619-3.7315-3.5215-5.2246-1.9071-1.4978-3.8433-2.4929-8.4902-4.3535-3.2468-1.2931-4.4649-1.9802-4.7812-2.7012-0.17211-0.38608-0.070287-1.0715 0.18555-1.332 0.51167-0.51632 1.4989-0.70233 2.7734-0.54883 2.3723 0.29303 5.4227 1.3823 8.1113 2.8848 0.52097 0.28838 1.0239 0.52948 1.1309 0.55274 0.43724 0.11165 0.69679-0.059639 2.4551-2.0645 2.1537-2.4653 2.1315-2.3671 0.94531-3.209-3.5352-2.5304-7.6281-4.0015-12.326-4.4434a32.849 32.849 0 0 0-3.2832-0.09375z" opacity=".5" stroke-width="4.6515"/>
 </g>
</svg>
