<svg width="64" height="64" version="1.1" viewBox="0 0 64 64" xmlns="http://www.w3.org/2000/svg">
 <defs>
  <linearGradient id="a" x1="49.571" x2="51.714" y1="52.714" y2="54.857" gradientTransform="matrix(2.3333,0,0,2.3333,-68.667,-72.001)" gradientUnits="userSpaceOnUse">
   <stop offset="0"/>
   <stop stop-opacity="0" offset="1"/>
  </linearGradient>
 </defs>
 <g transform="scale(1)">
  <rect x="8" y="4" width="48" height="56" ry="5" fill="#994b91" style="paint-order:stroke fill markers"/>
  <path d="m56 46-14 14h9c2.77 0 5-2.23 5-5z" fill="url(#a)" fill-rule="evenodd" opacity=".15" stroke-width="8.8191" style="paint-order:stroke fill markers"/>
 </g>
 <path d="m22 21c-0.554 0-1 0.446-1 1v20c0 0.554 0.446 1 1 1h18c0.554 0 1-0.446 1-1v-1h1c0.554 0 1-0.446 1-1v-4c0-0.186-0.064344-0.351-0.15234-0.5 0.088-0.149 0.15234-0.314 0.15234-0.5v-4c0-0.186-0.064344-0.351-0.15234-0.5 0.088-0.149 0.15234-0.314 0.15234-0.5v-4c0-0.554-0.446-1-1-1h-1v-3c0-0.554-0.446-1-1-1h-18zm1 3h7v1h-7v-1zm9 0h7v1h-7v-1zm9 2h1v4h-1v-4zm-18 1h7v1h-7v-1zm9 0h7v1h-7v-1zm-9 3h7v1h-7v-1zm9 0h7v1h-7v-1zm9 1h1v4h-1v-4zm-18 2h7v1h-7v-1zm9 0h7v1h-7v-1zm-9 3h7v1h-7v-1zm9 0h7v1h-7v-1zm9 0h1v4h-1v-4zm-18 3h7v1h-7v-1zm9 0h7v1h-7v-1z" color="#000000" color-rendering="auto" fill="#fff" image-rendering="auto" opacity=".75" shape-rendering="auto" solid-color="#000000" style="isolation:auto;mix-blend-mode:normal"/>
</svg>
