<?xml version="1.0" encoding="UTF-8"?>
<svg width="64" height="64" version="1.1" viewBox="0 0 16.933 16.933" xmlns="http://www.w3.org/2000/svg" xmlns:cc="http://creativecommons.org/ns#" xmlns:dc="http://purl.org/dc/elements/1.1/" xmlns:rdf="http://www.w3.org/1999/02/22-rdf-syntax-ns#">
 <metadata>
  <rdf:RDF>
   <cc:Work rdf:about="">
    <dc:format>image/svg+xml</dc:format>
    <dc:type rdf:resource="http://purl.org/dc/dcmitype/StillImage"/>
    <dc:title/>
   </cc:Work>
  </rdf:RDF>
 </metadata>
 <defs>
  <linearGradient id="a" x1="49.571" x2="51.714" y1="52.714" y2="54.857" gradientTransform="matrix(2.3333,0,0,2.3333,-68.667,-72.001)" gradientUnits="userSpaceOnUse">
   <stop offset="0"/>
   <stop stop-opacity="0" offset="1"/>
  </linearGradient>
 </defs>
 <g transform="scale(.26458)">
  <rect x="8" y="4" width="48" height="56" ry="5" fill="#eb577a" style="paint-order:stroke fill markers"/>
  <path d="m56 46-14 14h9c2.77 0 5-2.23 5-5z" fill="url(#a)" fill-rule="evenodd" opacity=".15" stroke-width="8.8191" style="paint-order:stroke fill markers"/>
 </g>
 <path d="m10.848 5.2916c-0.09398-1e-3 -0.21892 0.01361-0.38515 0.03859l-2.7661 0.42296c-0.66784 0.14221-0.66555 0.18644-0.66781 0.75066v4.578c-0.02785-0.01951-0.05533-0.03913-0.08412-0.05843v1.98e-4c-0.21218-0.14219-0.43832-0.24338-0.74206-0.24338-0.38046 0-0.60735 0.14568-0.7447 0.33757s-0.1829 0.43375-0.1829 0.62072c0 0.22546 0.07698 0.46608 0.24397 0.64944s0.42373 0.31177 0.79287 0.31177c0.41684 0 0.71006-0.1164 0.87582-0.34372 0.13051-0.17898 0.20268-0.4181 0.22843-0.71305v-8.5e-4c0.0036-0.03578 0.0062-0.07254 0.0085-0.1104 0.0035-0.0583 0.0027-0.16737 0.0027-0.16737v-3.5053c0-0.50076-2.4e-5 -0.53065 0.668-0.64485l1.9671-0.30855c0.66923-0.08756 0.66937-0.02667 0.66937 0.3494v3.2169c-0.0271-0.01899-0.05387-0.0381-0.08188-0.05686v1.98e-4c-0.21218-0.14219-0.43822-0.24338-0.74197-0.24338-0.38046 0-0.60745 0.14568-0.7448 0.33757-0.13735 0.19188-0.1829 0.43375-0.1829 0.62072 0 0.22546 0.07708 0.46608 0.24406 0.64944 0.16699 0.18337 0.42373 0.31187 0.79287 0.31187 0.41684 0 0.71006-0.1165 0.87582-0.34382 0.13051-0.17898 0.20258-0.418 0.22833-0.71295v-9.25e-4c0.0036-0.03578 0.0062-0.07244 0.0085-0.11031 0.0035-0.0583 0.0028-0.16746 0.0028-0.16746v-4.8767c0-0.4392-0.0029-0.58465-0.28481-0.58779z" enable-background="new" fill="#fff"/>
</svg>
