<?xml version="1.0" encoding="UTF-8"?>
<svg width="64" height="64" version="1.1" xmlns="http://www.w3.org/2000/svg" xmlns:cc="http://creativecommons.org/ns#" xmlns:dc="http://purl.org/dc/elements/1.1/" xmlns:rdf="http://www.w3.org/1999/02/22-rdf-syntax-ns#">
 <metadata>
  <rdf:RDF>
   <cc:Work rdf:about="">
    <dc:format>image/svg+xml</dc:format>
    <dc:type rdf:resource="http://purl.org/dc/dcmitype/StillImage"/>
    <dc:title/>
   </cc:Work>
  </rdf:RDF>
 </metadata>
 <defs>
  <linearGradient id="a" x1="49.571" x2="51.714" y1="52.714" y2="54.857" gradientTransform="matrix(2.3333,0,0,2.3333,-68.667,-72.001)" gradientUnits="userSpaceOnUse">
   <stop offset="0"/>
   <stop stop-opacity="0" offset="1"/>
  </linearGradient>
 </defs>
 <rect x="8" y="4" width="48" height="56" ry="5" fill="#ffa84c" style="paint-order:stroke fill markers"/>
 <path d="m56 46-14 14h9c2.77 0 5-2.23 5-5z" fill="url(#a)" fill-rule="evenodd" opacity=".15" stroke-width="8.8191" style="paint-order:stroke fill markers"/>
 <path d="m40.985 18c-0.554 0-1 0.446-1 1v19.053c-1.224-0.514-2.756-0.335-4.067 0.476-2.137 1.322-3.062 3.896-2.065 5.746 0.995 1.851 3.533 2.28 5.668 0.957 1.545-0.957 2.512-2.62 2.46-4.228 0-7e-3 3e-3 -0.012 3e-3 -0.02v-16.238c0.24-0.132 0.614 0.154 0.812 0.29 2.245 1.358 4.206 3.612 4.345 6.39 0.12 1.606-0.216 3.204-0.68 4.73 2.065-3.395 1.954-8.12-0.597-11.222-1.645-1.717-3.196-3.718-3.88-6.043-0.05-0.22-0.351-0.89-1-0.89zm-21.986 1.999c-0.553 0-0.999 0.445-0.999 0.999s0.446 1 1 1h13.99c0.554 0 1-0.446 1-1s-0.446-1-1-1h-13.99zm0 5.996c-0.553 0-0.999 0.445-0.999 0.999s0.446 1 1 1h13.99c0.554 0 1-0.446 1-1s-0.446-1-1-1h-13.99zm0 5.996c-0.553 0-0.999 0.445-0.999 0.999s0.446 1 1 1h13.99c0.554 0 1-0.446 1-1s-0.446-1-1-1h-13.99zm0 5.996c-0.553 0-0.999 0.445-0.999 0.999s0.446 1 1 1h7.994c0.554 0 1-0.446 1-1s-0.446-1-1-1h-7.995z" color="#000000" fill="#fff" overflow="visible" solid-color="#000000" style="isolation:auto;mix-blend-mode:normal"/>
</svg>
