<?xml version="1.0" encoding="UTF-8"?>
<svg width="64" height="64" version="1.1" viewBox="0 0 16.933 16.933" xmlns="http://www.w3.org/2000/svg" xmlns:cc="http://creativecommons.org/ns#" xmlns:dc="http://purl.org/dc/elements/1.1/" xmlns:rdf="http://www.w3.org/1999/02/22-rdf-syntax-ns#" xmlns:xlink="http://www.w3.org/1999/xlink">
 <defs>
  <linearGradient id="linearGradient1911" x1="25.085" x2="25.085" y1="24.031" y2="26.412" gradientTransform="translate(-35.822,-21.385)" gradientUnits="userSpaceOnUse">
   <stop stop-color="#fcbc19" stop-opacity=".99608" offset="0"/>
   <stop stop-color="#f4b61f" offset="1"/>
  </linearGradient>
  <linearGradient id="linearGradient4625" x1=".52918" x2="16.404" y1="5.0665" y2="5.0665" gradientTransform="translate(-17.925)" gradientUnits="userSpaceOnUse">
   <stop stop-color="#b78815" offset="0"/>
   <stop stop-color="#e2b24b" stop-opacity="0" offset="1"/>
  </linearGradient>
  <linearGradient id="linearGradient1951" x1="100" x2="133.19" y1="17.453" y2="51.606" gradientTransform="matrix(.26458 0 0 .26458 -38.033 -.13539)" gradientUnits="userSpaceOnUse">
   <stop stop-color="#fce798" offset="0"/>
   <stop stop-color="#ffc937" offset="1"/>
  </linearGradient>
  <linearGradient id="linearGradient11110" x1=".52917" x2="16.404" y1="5.3815" y2="5.3815" gradientTransform="translate(-17.925)" gradientUnits="userSpaceOnUse">
   <stop stop-color="#fff" offset="0"/>
   <stop stop-color="#fff" stop-opacity="0" offset="1"/>
  </linearGradient>
  <linearGradient id="linearGradient1119" x1="8.4665" x2="8.4665" y1="6.0853" y2="9.4879" gradientUnits="userSpaceOnUse">
   <stop stop-color="#fddb7a" offset="0"/>
   <stop stop-color="#ffd970" offset="1"/>
  </linearGradient>
  <linearGradient id="linearGradient1284" x1="8.4665" x2="8.4665" y1="10.26" y2="13.229" gradientUnits="userSpaceOnUse">
   <stop stop-color="#ffd96e" offset="0"/>
   <stop stop-color="#ffd561" offset="1"/>
  </linearGradient>
  <linearGradient id="linearGradient1272" x1="-3.9033" x2="-3.9033" y1="7.7839" y2="15.613" gradientTransform="translate(12.362 -2.1249)" gradientUnits="userSpaceOnUse">
   <stop stop-color="#c68d00" offset="0"/>
   <stop stop-color="#a67100" offset="1"/>
  </linearGradient>
 </defs>
 <metadata>
  <rdf:RDF>
   <cc:Work rdf:about="">
    <dc:format>image/svg+xml</dc:format>
    <dc:type rdf:resource="http://purl.org/dc/dcmitype/StillImage"/>
   </cc:Work>
  </rdf:RDF>
 </metadata>
 <g transform="translate(17.925 4.2e-5)">
  <path d="m-16.728 2.2489c-0.3653 0-0.66145 0.32575-0.66145 0.72759v2.9636c-0.0026 0.02629-0.0072 0.052-0.0072 0.07906v7.9373c0 0.40184 0.29614 0.72759 0.66144 0.72759h14.552c0.36531 0 0.66144-0.32575 0.66144-0.72759v-9.393c0-0.40184-0.29614-0.72759-0.66144-0.72759v5.16e-4h-8.1993l-0.89864-1.1095s-0.36607-0.478-1.0583-0.478h-1.3229z" color="#000000" color-rendering="auto" dominant-baseline="auto" fill="url(#linearGradient1911)" image-rendering="auto" shape-rendering="auto" solid-color="#000000" stop-color="#000000" style="font-feature-settings:normal;font-variant-alternates:normal;font-variant-caps:normal;font-variant-east-asian:normal;font-variant-ligatures:normal;font-variant-numeric:normal;font-variant-position:normal;font-variation-settings:normal;inline-size:0;isolation:auto;mix-blend-mode:normal;shape-margin:0;shape-padding:0;text-decoration-color:#000000;text-decoration-line:none;text-decoration-style:solid;text-indent:0;text-orientation:mixed;text-transform:none;white-space:normal"/>
  <path d="m-9.5646 3.8364c-0.11312 0.0018-0.30848-0.01542-0.51986 0.09508-0.73647 0.37946-0.77226 0.59366-1.557 0.71415h-4.9608c-0.21986 0-0.41824 0.08855-0.56171 0.23202-0.13937 0.13936-0.22041 0.33333-0.2253 0.54569v0.2775c0.0049-0.21236 0.08593-0.40633 0.2253-0.54569 0.14347-0.14347 0.34185-0.23202 0.56171-0.23202h4.9608c0.78472-0.1205 0.82051-0.33469 1.557-0.71415 0.21138-0.1105 0.40673-0.09328 0.51986-0.09508h7.3828c0.18216 3.65e-4 0.3472 0.08101 0.46663 0.21239 0.1197 0.13167 0.19378 0.31377 0.19378 0.51469v-0.2775c0-0.20092-0.07408-0.38302-0.19378-0.51469-0.11943-0.13137-0.28447-0.21202-0.46663-0.21239h-1.1652zm-7.8247 2.1037c-0.0026 0.02629-0.0067 0.05201-0.0067 0.07906v0.2775c0-0.02705 0.0041-0.05277 0.0067-0.07906z" fill="url(#linearGradient4625)" opacity=".001" stroke-width=".26458"/>
  <path d="m-17.396 13.674v0.28215c0 0.20092 0.07357 0.3825 0.19327 0.51417s0.28553 0.21342 0.46818 0.21342h14.552c0.18265 0 0.34796-0.08175 0.46766-0.21342s0.19378-0.31325 0.19378-0.51417v-0.28215c0 0.20092-0.07409 0.3825-0.19378 0.51417-0.1197 0.13167-0.28501 0.21342-0.46766 0.21342h-14.552c-0.18265 0-0.34848-0.08176-0.46818-0.21342s-0.19327-0.31325-0.19327-0.51417z" fill="#e4a729" fill-opacity=".99608" stroke-width=".26458"/>
  <path d="m-10.383 4.0979s-0.35919 0.47868-1.1575 0.79218c-0.03271 0.00587-0.06509 0.011575-0.10077 0.017052h-4.9608c-0.21986 0-0.41824 0.088552-0.56171 0.23202-0.13937 0.13936-0.22042 0.33333-0.2253 0.54569v0.51675c-0.0026 0.02629-0.0067 0.05201-0.0067 0.07906v7.3953c0 0.20092 0.07357 0.3825 0.19327 0.51417s0.28553 0.21342 0.46818 0.21342h14.552c0.18265 0 0.34796-0.08175 0.46766-0.21342s0.19378-0.31325 0.19378-0.51417v-8.851c0-0.20092-0.07408-0.38302-0.19378-0.51469-0.11945-0.13137-0.28449-0.21202-0.46665-0.21239h-7.4821z" fill="url(#linearGradient1951)"/>
  <path d="m-10.383 4.0979s-0.35919 0.47868-1.1575 0.79218c-0.03271 0.00587-0.06509 0.011575-0.10077 0.017052h-4.9608c-0.21986 0-0.41824 0.088552-0.56171 0.23202-0.13937 0.13936-0.22041 0.33333-0.2253 0.54569v0.38446c0.0049-0.21236 0.08593-0.40633 0.2253-0.54569 0.14347-0.14347 0.34185-0.23202 0.56171-0.23202h4.9608c0.03568-0.00548 0.06806-0.011184 0.10077-0.017052 0.75911-0.26303 1.2883-0.79218 1.2883-0.79218h8.0707c0.18216 3.704e-4 0.34718 0.081016 0.46663 0.21239 0.1197 0.13167 0.19378 0.31377 0.19378 0.51469v-0.38446c0-0.20092-0.07408-0.38302-0.19378-0.51469-0.11945-0.13137-0.28447-0.21202-0.46663-0.21239h-7.4821zm-7.0062 2.1037c-0.0026 0.02629-0.0067 0.05201-0.0067 0.07906v0.38446c0-0.02705 0.0041-0.05277 0.0067-0.07906z" fill="url(#linearGradient11110)" opacity=".3"/>
 </g>
 <circle cx="8.4665" cy="9.525" r="3.9687" fill="url(#linearGradient1272)" stroke-linecap="round" stroke-linejoin="round" stroke-width=".1726"/>
 <g transform="matrix(.77756 0 0 .77756 10.567 2.0159)">
  <g transform="matrix(1.0741 0 0 1.0741 -11.796 -.7153)">
   <circle cx="8.4665" cy="7.8051" r="1.7198" fill="url(#linearGradient1119)" stroke-linecap="round" stroke-linejoin="round" stroke-width=".34395" style="paint-order:stroke fill markers"/>
   <path d="m5.2916 11.064 5.4e-6 -0.14432c0-0.43295 0.43294-0.72158 0.72157-0.72158h4.9067c0.28863 0 0.72158 0.28863 0.72158 0.72158v0.14432c0 1.3096-1.416 2.1647-3.1749 2.1647-1.7589 0-3.1749-0.85514-3.1749-2.1647z" fill="url(#linearGradient1284)" stroke-width=".14049"/>
  </g>
 </g>
</svg>
