<?xml version="1.0" encoding="UTF-8"?><svg width="24" height="24" viewBox="0 0 48 48" fill="none" xmlns="http://www.w3.org/2000/svg"><rect width="48" height="48" fill="white" fill-opacity="0.01"/><path d="M24 44C35.0457 44 44 35.0457 44 24C44 12.9543 35.0457 4 24 4C12.9543 4 4 12.9543 4 24C4 35.0457 12.9543 44 24 44Z" stroke="#333" stroke-width="4" stroke-linejoin="round"/><path d="M24 44C31.732 44 38 37.732 38 30C38 22.268 31.732 16 24 16C16.268 16 10 22.268 10 30C10 37.732 16.268 44 24 44Z" stroke="#333" stroke-width="4" stroke-linejoin="round"/><path d="M24 44C28.4183 44 32 40.4183 32 36C32 31.5817 28.4183 28 24 28C19.5817 28 16 31.5817 16 36C16 40.4183 19.5817 44 24 44Z" fill="none" stroke="#333" stroke-width="4" stroke-linejoin="round"/></svg>