<?xml version="1.0" encoding="utf-8"?>
<!-- Generator: Adobe Illustrator 25.0.0, SVG Export Plug-In . SVG Version: 6.00 Build 0)  -->
<svg version="1.1" id="图层_1" xmlns="http://www.w3.org/2000/svg" xmlns:xlink="http://www.w3.org/1999/xlink" x="0px" y="0px"
	 viewBox="0 0 120 120" style="enable-background:new 0 0 120 120;" xml:space="preserve">
<style type="text/css">
	.st0{fill:url(#SVGID_1_);}
	.st1{fill:url(#SVGID_2_);}
	.st2{fill:url(#SVGID_3_);}
</style>
<linearGradient id="SVGID_1_" gradientUnits="userSpaceOnUse" x1="60" y1="122" x2="60" y2="2" gradientTransform="matrix(1 0 0 -1 0 122)">
	<stop  offset="0" style="stop-color:#5A9CFF"/>
	<stop  offset="0.879" style="stop-color:#2A23D5"/>
	<stop  offset="1" style="stop-color:#4A3CEC"/>
</linearGradient>
<path class="st0" d="M0,60C0,26.9,26.9,0,60,0l0,0c33.1,0,60,26.9,60,60l0,0c0,33.1-26.9,60-60,60l0,0C26.9,120,0,93.1,0,60L0,60z"
	/>
<g>
	<g>
		
			<linearGradient id="SVGID_2_" gradientUnits="userSpaceOnUse" x1="59.9999" y1="82" x2="59.9997" y2="29" gradientTransform="matrix(1 0 0 -1 0 122)">
			<stop  offset="3.509020e-02" style="stop-color:#FFFFFF"/>
			<stop  offset="0.5256" style="stop-color:#B0D4FF"/>
			<stop  offset="0.8371" style="stop-color:#DEEDFF"/>
			<stop  offset="1" style="stop-color:#FEFEFF"/>
		</linearGradient>
		<path class="st1" d="M75.1,42.1c0,8.4-6.8,15.1-15.1,15.1c-8.4,0-15.1-6.8-15.1-15.1S51.6,27,60,27C68.4,27,75.1,33.8,75.1,42.1z"
			/>
		
			<linearGradient id="SVGID_3_" gradientUnits="userSpaceOnUse" x1="60" y1="82" x2="59.9998" y2="29" gradientTransform="matrix(1 0 0 -1 0 122)">
			<stop  offset="3.509020e-02" style="stop-color:#FFFFFF"/>
			<stop  offset="0.5256" style="stop-color:#B0D4FF"/>
			<stop  offset="0.8371" style="stop-color:#DEEDFF"/>
			<stop  offset="1" style="stop-color:#FEFEFF"/>
		</linearGradient>
		<path class="st2" d="M34.4,71.7c6.9-5.6,15.8-9,25.6-9c9.8,0,18.7,3.4,25.6,9c3.9,3.2,3.9,9.1,0,12.3c-6.9,5.6-15.8,9-25.6,9
			c-9.8,0-18.7-3.4-25.6-9C30.5,80.8,30.5,74.9,34.4,71.7z"/>
	</g>
</g>
</svg>
