<svg width="64" height="64" version="1.0" xmlns="http://www.w3.org/2000/svg">
 <defs>
  <linearGradient id="a" x1="49.571" x2="51.714" y1="52.714" y2="54.857" gradientTransform="matrix(2.3333,0,0,2.3333,-68.667,-72.001)" gradientUnits="userSpaceOnUse">
   <stop offset="0"/>
   <stop stop-opacity="0" offset="1"/>
  </linearGradient>
 </defs>
 <g transform="scale(1)">
  <rect x="8" y="4" width="48" height="56" ry="5" fill="#88d75e" style="paint-order:stroke fill markers"/>
  <path d="m56 46-14 14h9c2.77 0 5-2.23 5-5z" fill="url(#a)" fill-rule="evenodd" opacity=".15" stroke-width="8.8191" style="paint-order:stroke fill markers"/>
 </g>
 <path d="m118.45 12.805-12-12v6.9998c0 2.77 2.23 5 5 5z" fill="#fff" fill-rule="evenodd" opacity=".35" stroke-width="3.7796" style="paint-order:stroke fill markers"/>
 <path d="m29.31 20a3.1034 3.1034 0 0 0-3.1034 3.1034 3.1034 3.1034 0 0 0 1.5604 2.6897h-6.9397c-0.45848 0-0.82759 0.3691-0.82759 0.82759v6.1121a3.1034 3.1034 0 0 1 2.6897-1.5604 3.1034 3.1034 0 1 1 0 6.2069 3.1034 3.1034 0 0 1-2.6897-1.5629v7.356c0 0.45848 0.3691 0.82759 0.82759 0.82759h6.9397a3.1034 3.1034 0 0 1-1.5604-2.6897 3.1034 3.1034 0 1 1 6.2069 0 3.1034 3.1034 0 0 1-1.5629 2.6897h6.5284c0.45848 0 0.82759-0.3691 0.82759-0.82759v-7.356a3.1034 3.1034 0 0 0 2.6897 1.5629 3.1034 3.1034 0 1 0 0-6.2069 3.1034 3.1034 0 0 0-2.6897 1.5604v-6.1121c0-0.45848-0.3691-0.82759-0.82759-0.82759h-6.5284a3.1034 3.1034 0 0 0 1.5629-2.6897 3.1034 3.1034 0 0 0-3.1034-3.1034z" fill="#fff"/>
</svg>
