<svg width="64" height="64" version="1.1" viewBox="0 0 64 64" xmlns="http://www.w3.org/2000/svg">
 <defs>
  <linearGradient id="a" x1="49.571" x2="51.714" y1="52.714" y2="54.857" gradientTransform="matrix(2.3333,0,0,2.3333,-68.667,-72.001)" gradientUnits="userSpaceOnUse">
   <stop offset="0"/>
   <stop stop-opacity="0" offset="1"/>
  </linearGradient>
 </defs>
 <g transform="matrix(0 1 1 0 -.0002268 -.0002268)">
  <rect x="8" y="4" width="48" height="56" ry="5" fill="#3b549e" style="paint-order:stroke fill markers"/>
  <path d="m56 46-14 14h9c2.77 0 5-2.23 5-5z" fill="url(#a)" fill-rule="evenodd" opacity=".15" stroke-width="8.8191" style="paint-order:stroke fill markers"/>
 </g>
 <path d="m30 21v4h4v-4zm1 1h2v2h-2zm-1.664 1.258-1.932 0.518 0.26 0.967 1.932-0.518zm-3 1-1.932 0.518 0.26 0.967 1.932-0.518zm8.664 0.275v1.035l6.143 1.645-6.143 1.754v14.03h0.029l7.971-2.277v-14.06zm-12 0.4668a1 1 0 0 0-1 1 1 1 0 0 0 1 1 1 1 0 0 0 1-1 1 1 0 0 0-1-1m-2 2v14l12 2v-14zm21 1.01v11.303l-6-1.609v-7.979zm-6 10.729 5.322 1.426-5.322 1.52z" color="#000000" color-rendering="auto" fill="#fff" image-rendering="auto" opacity=".75" shape-rendering="auto" solid-color="#000000" stroke-width="2" style="isolation:auto;mix-blend-mode:normal"/>
</svg>
