<svg width="64" height="64" version="1.1" viewBox="0 0 16.933 16.933" xmlns="http://www.w3.org/2000/svg">
 <defs>
  <linearGradient id="a" x1="49.571" x2="51.714" y1="52.714" y2="54.857" gradientTransform="matrix(2.3333,0,0,2.3333,-68.667,-72.001)" gradientUnits="userSpaceOnUse">
   <stop offset="0"/>
   <stop stop-opacity="0" offset="1"/>
  </linearGradient>
 </defs>
 <g transform="scale(.26458)">
  <rect x="8" y="4" width="48" height="56" ry="5" fill="#f4f4f4" style="paint-order:stroke fill markers"/>
  <path d="m56 46-14 14h9c2.77 0 5-2.23 5-5z" fill="url(#a)" fill-rule="evenodd" opacity=".1" stroke-width="8.8191" style="paint-order:stroke fill markers"/>
 </g>
 <g transform="matrix(.066145 0 0 .066145 -1.5875 -1.852)" enable-background="new" stroke-width="4">
  <path d="m113.55 134.64 76.856 42.408" fill="none" stroke="#f34f17"/>
  <path d="m120 212c52 24 76-32 32-56s-20-80 32-56" fill="#8f76e4" fill-opacity=".25098" fill-rule="evenodd" stroke="#8c59d9"/>
  <g stroke-dashoffset="1">
   <circle cx="108" cy="132" r="6" fill="none" stroke="#f34f17" stroke-linejoin="round"/>
   <circle cx="196" cy="180" r="6" fill="none" stroke="#f34f17" stroke-linejoin="round"/>
   <g fill="#fff" stroke="#8f76e4">
    <rect x="178" y="94" width="12" height="12"/>
    <rect x="146" y="150" width="12" height="12"/>
    <rect x="114" y="206" width="12" height="12"/>
   </g>
  </g>
 </g>
</svg>
