<svg width="64" height="64" version="1.1" xmlns="http://www.w3.org/2000/svg">
 <defs>
  <linearGradient id="a" x1="49.571" x2="51.714" y1="52.714" y2="54.857" gradientTransform="matrix(2.3333,0,0,2.3333,-68.667,-72.001)" gradientUnits="userSpaceOnUse">
   <stop offset="0"/>
   <stop stop-opacity="0" offset="1"/>
  </linearGradient>
 </defs>
 <rect x="8" y="4" width="48" height="56" ry="5" fill="#f4f4f4" style="paint-order:stroke fill markers"/>
 <path d="m56 46-14 14h9c2.77 0 5-2.23 5-5z" fill="url(#a)" fill-rule="evenodd" opacity=".1" stroke-width="8.8191" style="paint-order:stroke fill markers"/>
 <path d="m44.209 19.426a0.187 0.187 0 0 0-0.148 0.01c-0.12 0.059-0.227 0.25-0.33 0.562-0.246 0.735-1.817 5.307-9.838 6.54a3.988 3.989 0 0 1 2.17 3.548 3.988 3.989 0 0 1-3.989 3.988 3.988 3.989 0 0 1-3.629-2.344 3.165 3.166 0 0 1-2.66 1.457 3.165 3.166 0 0 1-3.142-2.806 3.24 3.24 0 0 1-0.395 0.621c-0.061-0.096-0.099-0.204-0.166-0.297a5.894 5.894 0 0 0-1.39-1.389c-0.583-0.405-1.19-0.672-1.788-0.76-0.69-0.1-1.357 0.049-1.886 0.43-0.53 0.382-0.84 0.967-0.961 1.653-0.105 0.594-0.069 1.238 0.132 1.918 0.175 0.591 0.456 1.187 0.862 1.75a6.022 6.022 0 0 0 1.521 1.488c0.63 0.414 1.299 0.656 1.953 0.693 0.203 0.012 0.41-0.038 0.596-0.066 4.241 3.356 12.66 6.489 18.24 2.908 0.121 0.041 0.242 0.091 0.364 0.133 3e-3 0.057-0.015 0.115 0 0.166l0.265-0.1c0.047 0.015 0.083 0.053 0.131 0.067 0.01 3e-3 0.023-3e-3 0.033 0l0.1 0.097 2.516 0.893c-0.104 0.872 0.329 1.863 1.423 2.281a40.233 40.233 0 0 1 3.807 1.717c-0.94-3.186-1.283-5.743-3.74-5.518-0.457 0.042-0.802 0.23-1.059 0.496l-2.219-1.421h-0.1l-0.032-0.034c2.986-2.934 4.732-8.448 3.673-18.043-0.046-0.36-0.17-0.588-0.314-0.638zm-21.266 2.918-0.132 5.949s0.051 0.183 0.093 0.43a3.165 3.166 0 0 1 2.881-1.866 3.165 3.166 0 0 1 2.695 1.512 3.988 3.989 0 0 1 1.315-1.549c-4.792-0.253-6.852-4.476-6.852-4.476zm3.332 5.906a2.216 2.174 0 0 0-0.66 0.1 1.097 1.076 0 0 1 0.639 0.976 1.097 1.076 0 0 1-1.098 1.076 1.097 1.076 0 0 1-0.996-0.625 2.216 2.174 0 0 0-0.101 0.647 2.216 2.174 0 0 0 2.216 2.174 2.216 2.174 0 0 0 2.215-2.174 2.216 2.174 0 0 0-2.215-2.174zm6.668 0.422a2.216 2.174 0 0 0-0.66 0.1 1.097 1.076 0 0 1 0.639 0.976 1.097 1.076 0 0 1-1.098 1.076 1.097 1.076 0 0 1-0.994-0.625 2.216 2.174 0 0 0-0.101 0.647 2.216 2.174 0 0 0 2.214 2.174 2.216 2.174 0 0 0 2.217-2.174 2.216 2.174 0 0 0-2.217-2.174zm-14.425 1.308a1.152 1.287 0 0 1 1.152 1.288 1.152 1.287 0 0 1-1.152 1.287 1.152 1.287 0 0 1-1.153-1.287 1.152 1.287 0 0 1 1.153-1.288z" color="#000000" fill="#67614f" overflow="visible" solid-color="#000000" style="isolation:auto;mix-blend-mode:normal"/>
</svg>
