<svg width="64" height="64" version="1.1" viewBox="0 0 16.933 16.933" xmlns="http://www.w3.org/2000/svg">
 <path d="m3.4395 1.0583c-0.73289 0-1.3229 0.59001-1.3229 1.3229v12.171c0 0.73289 0.59001 1.3229 1.3229 1.3229h10.054c0.73289 0 1.3229-0.59001 1.3229-1.3229v-10.319l-3.175-3.175z" fill="#f9f9f9" fill-rule="evenodd" stroke-width=".26458" style="paint-order:stroke fill markers"/>
 <path d="m3.4395 1.0583c-0.73289 0-1.3229 0.59-1.3229 1.3229v12.171c0 0.73289 0.59 1.3229 1.3229 1.3229h10.054c0.73289 0 1.3229-0.59 1.3229-1.3229v-10.319l-3.1749-3.1749zm0 0.52916h7.9828l2.8649 2.8649v10.099c0 0.44889-0.34485 0.79373-0.79373 0.79373h-10.054c-0.44889 0-0.79373-0.34485-0.79373-0.79373v-12.171c0-0.44889 0.34485-0.79373 0.79373-0.79373z" color="#000000" color-rendering="auto" dominant-baseline="auto" fill="#278d14" image-rendering="auto" shape-rendering="auto" solid-color="#000000" style="font-feature-settings:normal;font-variant-alternates:normal;font-variant-caps:normal;font-variant-ligatures:normal;font-variant-numeric:normal;font-variant-position:normal;isolation:auto;mix-blend-mode:normal;paint-order:fill markers stroke;shape-padding:0;text-decoration-color:#000000;text-decoration-line:none;text-decoration-style:solid;text-indent:0;text-orientation:mixed;text-transform:none;white-space:normal"/>
 <path d="m12.171 1.0583 2.6458 2.6458-3.75e-4 -1.3229c-2.08e-4 -0.73288-0.59001-1.3229-1.3229-1.3229z" fill="#278d14" fill-rule="evenodd" style="paint-order:stroke fill markers"/>
 <path d="m4.7624 5.8207v6.6145h7.6728v-6.6145z" color="#000000" fill="#179903" stroke-width=".063732"/>
 <g fill="#b2e8ac" stroke-width=".058836">
  <rect id="d" x="5.027" y="6.0853" width="1.5875" height=".79373" color="#000000"/>
  <rect x="6.879" y="6.0853" width="1.5875" height=".79373" color="#000000"/>
  <rect x="8.7311" y="6.0853" width="1.5875" height=".79373" color="#000000"/>
  <rect x="10.583" y="6.0853" width="1.5875" height=".79373" color="#000000"/>
  <rect x="5.027" y="7.1436" width="1.5875" height=".79373" color="#000000"/>
  <rect x="6.879" y="7.1436" width="1.5875" height=".79373" color="#000000"/>
  <rect x="8.7311" y="7.1436" width="1.5875" height=".79373" color="#000000"/>
  <rect x="10.583" y="7.1436" width="1.5875" height=".79373" color="#000000"/>
  <rect x="5.027" y="8.2019" width="1.5875" height=".79373" color="#000000"/>
  <rect x="6.879" y="8.2019" width="1.5875" height=".79373" color="#000000"/>
  <rect x="8.7311" y="8.2019" width="1.5875" height=".79373" color="#000000"/>
  <rect x="10.583" y="8.2019" width="1.5875" height=".79373" color="#000000"/>
  <rect x="5.027" y="9.2602" width="1.5875" height=".79373" color="#000000"/>
  <rect x="6.879" y="9.2602" width="1.5875" height=".79373" color="#000000"/>
  <rect x="8.7311" y="9.2602" width="1.5875" height=".79373" color="#000000"/>
  <rect x="10.583" y="9.2602" width="1.5875" height=".79373" color="#000000"/>
  <rect x="5.027" y="10.319" width="1.5875" height=".79373" color="#000000"/>
  <rect x="6.879" y="10.319" width="1.5875" height=".79373" color="#000000"/>
  <rect x="8.7311" y="10.319" width="1.5875" height=".79373" color="#000000"/>
  <rect x="10.583" y="10.319" width="1.5875" height=".79373" color="#000000"/>
  <rect x="5.027" y="11.377" width="1.5875" height=".79373" color="#000000"/>
  <rect x="6.879" y="11.377" width="1.5875" height=".79373" color="#000000"/>
  <rect x="8.7311" y="11.377" width="1.5875" height=".79373" color="#000000"/>
  <rect x="10.583" y="11.377" width="1.5875" height=".79373" color="#000000"/>
 </g>
</svg>
