<svg width="64" height="64" version="1.1" viewBox="0 0 16.933 16.933" xmlns="http://www.w3.org/2000/svg">
 <path d="m3.4395 1.0583c-0.73289 0-1.3229 0.59001-1.3229 1.3229v12.171c0 0.73289 0.59001 1.3229 1.3229 1.3229h10.054c0.73289 0 1.3229-0.59001 1.3229-1.3229v-10.319l-3.175-3.175z" fill="#f9f9f9" fill-rule="evenodd" stroke-width=".26458" style="paint-order:stroke fill markers"/>
 <path d="m3.4395 1.0583c-0.73289 0-1.3229 0.59-1.3229 1.3229v12.171c0 0.73289 0.59 1.3229 1.3229 1.3229h10.054c0.73289 0 1.3229-0.59 1.3229-1.3229v-10.319l-3.1749-3.1749zm0 0.52916h7.9828l2.8649 2.8649v10.099c0 0.44889-0.34485 0.79373-0.79373 0.79373h-10.054c-0.44889 0-0.79373-0.34485-0.79373-0.79373v-12.171c0-0.44889 0.34485-0.79373 0.79373-0.79373z" color="#000000" color-rendering="auto" dominant-baseline="auto" fill="#b138b4" image-rendering="auto" shape-rendering="auto" solid-color="#000000" style="font-feature-settings:normal;font-variant-alternates:normal;font-variant-caps:normal;font-variant-ligatures:normal;font-variant-numeric:normal;font-variant-position:normal;isolation:auto;mix-blend-mode:normal;paint-order:fill markers stroke;shape-padding:0;text-decoration-color:#000000;text-decoration-line:none;text-decoration-style:solid;text-indent:0;text-orientation:mixed;text-transform:none;white-space:normal"/>
 <path d="m12.171 1.0583 2.6458 2.6458-3.75e-4 -1.3229c-2.08e-4 -0.73288-0.59001-1.3229-1.3229-1.3229z" fill="#b138b4" fill-rule="evenodd" style="paint-order:stroke fill markers"/>
 <g transform="matrix(.057876 0 0 .057876 -70.882 97.98)" stroke-width=".57143">
  <path d="m1307-1602.6v6h28v-6zm32 0v6h30v-6zm34 0v6h30v-6zm34 0v6h28v-6zm-100 10v8h28v-8zm32 0v8h30v-8zm34 0v8h30v-8zm34 0v8h28v-8zm-100 12v8h28v-8zm32 0v8h30v-8zm34 0v8h30v-8zm34 0v8h28v-8zm-100 12v8h28v-8zm32 0v8h30v-8zm34 0v8h30v-8zm34 0v8h28v-8zm-100 12v8h28v-8zm32 0v8h30v-8zm34 0v8h30v-8zm34 0v8h28v-8zm-100 12v8h28v-8zm32 0v8h30v-8zm34 0v8h30v-8zm34 0v8h28v-8zm-100 12v8h28v-8zm32 0v8h30v-8zm34 0v8h30v-8zm34 0v8h28v-8zm-100 12v8h28v-8zm32 0v8h30v-8zm34 0v8h30v-8zm34 0v8h28v-8zm-100 12v8h28v-8zm32 0v8h30v-8zm34 0v8h30v-8zm34 0v8h28v-8zm-100 12v6h28v-6zm32 0v6h30v-6zm34 0v6h30v-6zm34 0v6h28v-6z" color="#000000" fill="#dc85e9"/>
 </g>
 <g transform="matrix(.057876 0 0 .057876 -70.882 97.98)" stroke-width=".57143">
  <path d="m1323-1570.6v52c0 7.1797 21.49 13 48 13s48-5.8203 48-13v-52z" color="#000000" fill="#fff"/>
  <path d="m1336.9-1582.9c-4.4225 1.1052-8.0003 2.6406-10.563 4.2813-2.5623 1.6406-4.2094 3.5916-4.2187 5.9375-0.078 19.65-0.062 38.386-0.062 54 0 2.2938 1.6506 4.2616 4.2188 5.9062 2.5682 1.6445 6.1886 3.057 10.594 4.25 8.8102 2.3861 20.86 3.8438 34.188 3.8438s25.377-1.4577 34.188-3.8438c4.4051-1.193 8.0254-2.6054 10.594-4.25 2.5682-1.6445 4.1959-3.6233 4.1959-5.9171v-54c0-2.3459-1.6956-4.286-4.2578-5.9266-2.5623-1.6407-6.1626-3.0896-10.563-4.2813-8.7998-2.3834-20.826-3.7812-34.156-3.7812-13.42 0-24.7 1.4179-34.157 3.7812zm34.156-1.7812c13.188-0.024 25.115 1.4594 33.688 3.7812 4.2863 1.1609 7.7357 2.5926 10.031 4.0625 2.2956 1.47 3.4615 2.9179 3.3437 4.1563-0.2099 2.2051-2.5786 3.7353-4.2498 4.6877-2.7109 1.5447-5.9518 2.7094-8.875 3.4682-9.9807 2.5907-19.947 3.5351-29.531 3.7808-13.261 0.2127-26.41-0.7313-38.531-3.8423-2.8126-0.7333-5.249-1.6374-7.6562-2.8437-2.1609-1.0829-5.0631-2.882-5.2805-5.2495-0.117-1.2738 1.048-2.6864 3.3437-4.1563 2.2956-1.47 5.6973-3.0942 10.031-4.0625 11.926-2.6645 23.654-3.7638 33.686-3.7824zm-47 16.125c0.633 0.635 1.3925 1.2732 2.2812 1.8125 3.29 1.9964 7.3084 3.4876 10.563 4.2812 13.105 3.0399 26.118 4.0856 38.625 3.7191 10.112-0.3193 20.321-1.0694 29.687-3.7191 4.6348-1.3113 9.5649-2.8964 12.844-6.0937v12.875c0 0.5819 0 1.2208-0.125 1.7187-0.2732 1.1053-1.3688 2.437-3.3438 3.5938-3.2639 1.9117-6.8389 3.0829-9.9998 3.9374-11.232 2.7397-22.916 3.7351-33.531 3.75-11.456-0.088-23.536-1.1252-33.688-3.7813-4.3563-1.3747-8.7244-2.5615-11.874-5.4685-0.7253-0.677-1.1339-1.4058-1.3125-2.0313-0.1617-0.5663-0.124-1.122-0.124-1.7187v-12.875zm0 18.031c0.3881 0.384 0.8349 0.7645 1.3125 1.125 3.8328 2.6485 8.599 4.1875 12.75 5.2191 11.482 2.6061 21.651 3.4771 32.938 3.4992 11.353-0.2328 22.474-0.8133 32.938-3.4995 3.7047-0.9664 7.6813-2.3851 10.688-3.9063 1.1439-0.5788 2.9374-2.034 3.375-2.4378v12.844c0 0.5819 0 1.2208-0.125 1.7187-0.2732 1.1053-1.4022 2.3818-3.3438 3.5938-4.2885 2.5159-9.373 3.9033-13.844 4.8749-10.389 2.0162-19.909 2.7984-29.688 2.8125-4.946 0-9.7115-0.172-14.188-0.5938-10.05-1.2286-18.982-2.1518-27.5-6.0625-1.4518-0.6725-2.7953-1.6037-3.8745-2.5935-0.7312-0.6706-1.117-1.4108-1.3125-2.0313-0.075-0.2376-0.1224-0.5025-0.124-0.7187-0.035-4.6145 0-9.2292 0-13.844zm0 18c1.5656 1.541 3.6376 2.7051 5.531 3.5003 8.6756 3.5974 18.943 5.0615 27.125 5.7497 4.9351 0.4055 9.7705 0.5946 14.344 0.5933 11.369-0.1838 22.449-0.8859 32.938-3.4995 4.2187-1.1456 8.1701-2.4102 11.657-4.4691 0.9341-0.5547 1.6709-1.1929 2.4062-1.875v13.844c0 1.2961-1.0229 2.7528-3.3125 4.2187-2.2896 1.4662-5.7189 2.8405-10 4-8.5625 2.3189-20.506 3.7813-33.688 3.7813s-25.125-1.4623-33.688-3.7813c-4.2812-1.1594-7.7104-2.5339-10-4-2.2896-1.466-3.3125-2.9226-3.3125-4.2187v-13.844z" color="#000000" fill="#9a14aa" style="text-decoration-line:none;text-indent:0pt;text-transform:none"/>
  <path transform="matrix(2.0947,0,0,2.1099,282.41,-3113.5)" d="m542.12 730.31a22.438 5.6875 0 1 1-44.875 0 22.438 5.6875 0 1 1 44.875 0z" color="#000000" fill="#fff"/>
 </g>
</svg>
