<svg width="64" height="64" version="1.1" viewBox="0 0 16.933 16.933" xmlns="http://www.w3.org/2000/svg">
 <path d="m3.4395 1.0583c-0.73289 0-1.3229 0.59001-1.3229 1.3229v12.171c0 0.73289 0.59001 1.3229 1.3229 1.3229h10.054c0.73289 0 1.3229-0.59001 1.3229-1.3229v-10.319l-3.175-3.175z" fill="#f9f9f9" fill-rule="evenodd" stroke-width=".26458" style="paint-order:stroke fill markers"/>
 <path d="m3.4395 1.0583c-0.73289 0-1.3229 0.59-1.3229 1.3229v12.171c0 0.73289 0.59 1.3229 1.3229 1.3229h10.054c0.73289 0 1.3229-0.59 1.3229-1.3229v-10.319l-3.1749-3.1749zm0 0.52916h7.9828l2.8649 2.8649v10.099c0 0.44889-0.34485 0.79373-0.79373 0.79373h-10.054c-0.44889 0-0.79373-0.34485-0.79373-0.79373v-12.171c0-0.44889 0.34485-0.79373 0.79373-0.79373z" color="#000000" color-rendering="auto" dominant-baseline="auto" fill="#5b5b5b" image-rendering="auto" shape-rendering="auto" solid-color="#000000" style="font-feature-settings:normal;font-variant-alternates:normal;font-variant-caps:normal;font-variant-ligatures:normal;font-variant-numeric:normal;font-variant-position:normal;isolation:auto;mix-blend-mode:normal;paint-order:fill markers stroke;shape-padding:0;text-decoration-color:#000000;text-decoration-line:none;text-decoration-style:solid;text-indent:0;text-orientation:mixed;text-transform:none;white-space:normal"/>
 <path d="m12.171 1.0583 2.6458 2.6458-3.75e-4 -1.3229c-2.08e-4 -0.73288-0.59001-1.3229-1.3229-1.3229z" fill="#5b5b5b" fill-rule="evenodd" style="paint-order:stroke fill markers"/>
 <rect x="10.59" y="5.027" width="2.1166" height="1.4552" fill="#fff" opacity=".6" stroke-width=".13229"/>
 <rect x="10.59" y="4.8947" width="2.1166" height="1.4552" fill="#1c99e0" stroke-width=".13229"/>
 <path d="m12.568 5.6815a0.66147 0.66145 0 0 1-0.66147-0.66145h0.66147z" fill="#fff" opacity=".5" stroke-width=".11094"/>
 <rect x="10.789" y="5.0931" width="1.7198" height="1.0583" fill="none" opacity=".35" stroke="#fff" stroke-width=".13229"/>
 <g transform="translate(0 -.13672)" fill="#1c99e0" stroke-width=".13229">
  <rect x="8.7384" y="5.1637" width="1.5875" height=".26458"/>
  <rect x="8.7384" y="5.6929" width="1.5875" height=".26458"/>
  <rect x="8.7384" y="6.222" width="1.5875" height=".26458"/>
  <rect x="8.7384" y="6.7512" width="3.9687" height=".26458"/>
  <rect x="8.7384" y="7.2803" width="3.9687" height=".26458"/>
  <rect x="8.7384" y="7.8095" width="3.175" height=".26458"/>
  <rect x="6.0905" y="5.0314" width="2.1166" height="1.4552"/>
 </g>
 <path d="m8.0682 5.6815a0.66147 0.66145 0 0 1-0.66147-0.66145h0.66147z" fill="#fff" opacity=".5" stroke-width=".11094"/>
 <rect x="6.2889" y="5.0931" width="1.7198" height="1.0583" fill="none" opacity=".35" stroke="#fff" stroke-width=".13229"/>
 <g transform="translate(0 -.13672)" fill="#1c99e0" stroke-width=".13229">
  <rect x="4.2384" y="5.1637" width="1.5875" height=".26458"/>
  <rect x="4.2384" y="5.6929" width="1.5875" height=".26458"/>
  <rect x="4.2384" y="6.222" width="1.5875" height=".26458"/>
  <rect x="4.2384" y="6.7512" width="3.9687" height=".26458"/>
  <rect x="4.2384" y="7.2803" width="3.9687" height=".26458"/>
  <rect x="4.2384" y="7.8095" width="3.175" height=".26458"/>
 </g>
 <rect x="10.59" y="8.9957" width="2.1166" height="1.4552" fill="#fff" opacity=".6" stroke-width=".13229"/>
 <rect x="10.59" y="8.8634" width="2.1166" height="1.4552" fill="#1c99e0" stroke-width=".13229"/>
 <path d="m12.568 9.6501a0.66147 0.66145 0 0 1-0.66147-0.66145h0.66147z" fill="#fff" opacity=".5" stroke-width=".11094"/>
 <rect x="10.789" y="9.0618" width="1.7198" height="1.0583" fill="none" opacity=".35" stroke="#fff" stroke-width=".13229"/>
 <g fill="#1c99e0" stroke-width=".13229">
  <rect x="8.7384" y="8.9957" width="1.5875" height=".26458"/>
  <rect x="8.7384" y="9.5248" width="1.5875" height=".26458"/>
  <rect x="8.7384" y="10.054" width="1.5875" height=".26458"/>
  <rect x="8.7384" y="10.583" width="3.9687" height=".26458"/>
  <rect x="8.7384" y="11.112" width="3.9687" height=".26458"/>
  <rect x="8.7384" y="11.641" width="3.175" height=".26458"/>
  <rect x="6.0905" y="8.8634" width="2.1166" height="1.4552"/>
 </g>
 <path d="m8.0682 9.6501a0.66147 0.66145 0 0 1-0.66147-0.66145h0.66147z" fill="#fff" opacity=".5" stroke-width=".11094"/>
 <rect x="6.2889" y="9.0618" width="1.7198" height="1.0583" fill="none" opacity=".35" stroke="#fff" stroke-width=".13229"/>
 <g fill="#1c99e0" stroke-width=".13229">
  <rect x="4.2384" y="8.9957" width="1.5875" height=".26458"/>
  <rect x="4.2384" y="9.5248" width="1.5875" height=".26458"/>
  <rect x="4.2384" y="10.054" width="1.5875" height=".26458"/>
  <rect x="4.2384" y="10.583" width="3.9687" height=".26458"/>
  <rect x="4.2384" y="11.112" width="3.9687" height=".26458"/>
  <rect x="4.2384" y="11.641" width="3.175" height=".26458"/>
 </g>
</svg>
