<svg width="64" height="64" version="1.1" viewBox="0 0 16.933 16.933" xmlns="http://www.w3.org/2000/svg" xmlns:xlink="http://www.w3.org/1999/xlink">
 <path d="m3.4395 1.0583c-0.73289 0-1.3229 0.59001-1.3229 1.3229v12.171c0 0.73289 0.59001 1.3229 1.3229 1.3229h10.054c0.73289 0 1.3229-0.59001 1.3229-1.3229v-10.319l-3.175-3.175z" fill="#f9f9f9" fill-rule="evenodd" stroke-width=".26458" style="paint-order:stroke fill markers"/>
 <path d="m3.4395 1.0583c-0.73289 0-1.3229 0.59-1.3229 1.3229v12.171c0 0.73289 0.59 1.3229 1.3229 1.3229h10.054c0.73289 0 1.3229-0.59 1.3229-1.3229v-10.319l-3.1749-3.1749zm0 0.52916h7.9828l2.8649 2.8649v10.099c0 0.44889-0.34485 0.79373-0.79373 0.79373h-10.054c-0.44889 0-0.79373-0.34485-0.79373-0.79373v-12.171c0-0.44889 0.34485-0.79373 0.79373-0.79373z" color="#000000" color-rendering="auto" dominant-baseline="auto" fill="#5b5b5b" image-rendering="auto" shape-rendering="auto" solid-color="#000000" style="font-feature-settings:normal;font-variant-alternates:normal;font-variant-caps:normal;font-variant-ligatures:normal;font-variant-numeric:normal;font-variant-position:normal;isolation:auto;mix-blend-mode:normal;paint-order:fill markers stroke;shape-padding:0;text-decoration-color:#000000;text-decoration-line:none;text-decoration-style:solid;text-indent:0;text-orientation:mixed;text-transform:none;white-space:normal"/>
 <path d="m12.171 1.0583 2.6458 2.6458-3.75e-4 -1.3229c-2.08e-4 -0.73288-0.59001-1.3229-1.3229-1.3229z" fill="#5b5b5b" fill-rule="evenodd" style="paint-order:stroke fill markers"/>
 <rect x="4.2376" y="10.19" width="8.4666" height="1.8521" fill="#ccc" stroke-width=".066145"/>
 <rect x="4.2376" y="4.766" width="8.4666" height="5.5562" fill="#f2f2f2" stroke-width=".066145"/>
 <g fill="#4d4d4d" stroke-width=".1323">
  <path d="m6.6582 10.847v0.10192c-0.029823-0.01737-0.059844-0.03039-0.090037-0.03907-0.030206-0.0087-0.060968-0.0131-0.092313-0.0131-0.047182 0-0.082482 0.0078-0.10589 0.02322-0.023035 0.01509-0.034546 0.03831-0.034546 0.06964 0 0.02831 0.00873 0.04945 0.026052 0.06342 0.017359 0.01397 0.060585 0.02756 0.12968 0.04077l0.041903 0.0079c0.05172 0.0098 0.090791 0.02943 0.11723 0.05888 0.026793 0.02943 0.040196 0.06776 0.040196 0.11493 0 0.06267-0.022268 0.11173-0.066816 0.14721-0.044549 0.03511-0.10646 0.05265-0.18574 0.05265-0.031344 0-0.064184-0.0034-0.098531-0.01019-0.034361-0.0065-0.07154-0.01623-0.11156-0.02943v-0.10758c0.038886 0.02 0.076078 0.0351 0.11156 0.0453 0.035485 0.0098 0.069079 0.01471 0.10079 0.01471 0.046057 0 0.081728-0.0093 0.10703-0.02774 0.025298-0.01886 0.037946-0.04511 0.037946-0.0787 0-0.04831-0.046256-0.08172-0.13874-0.10022l-0.0045-0.0013-0.039071-0.0079c-0.060029-0.01177-0.10381-0.03134-0.13137-0.05888-0.02756-0.02794-0.041347-0.06587-0.041347-0.11381 0-0.06077 0.020574-0.10758 0.061723-0.14041 0.041162-0.03322 0.099854-0.04983 0.17612-0.04983 0.033977 0 0.066631 0.0032 0.097962 0.0097 0.031344 0.0061 0.062106 0.01528 0.092312 0.02774"/>
  <path d="m6.989 11.151c0 0.08078 0.012702 0.14174 0.037933 0.18288 0.025681 0.04114 0.063615 0.06171 0.11383 0.06171 0.050212 0 0.088158-0.02057 0.11383-0.06171 0.026052-0.04153 0.039071-0.10248 0.039071-0.18288 0-0.08041-0.012966-0.14118-0.039071-0.18232-0.025668-0.04153-0.063615-0.06228-0.11383-0.06228-0.050212 0-0.088145 0.02057-0.11383 0.06171-0.025284 0.04114-0.037933 0.1021-0.037933 0.18289m0.30466 0.23553c-0.016989 0.03133-0.040011 0.0555-0.069092 0.07247-0.028685 0.01661-0.062093 0.02492-0.10022 0.02492-0.07588 0-0.13591-0.02926-0.18007-0.08776-0.043795-0.05888-0.065692-0.13986-0.065692-0.2429 0-0.10493 0.021897-0.18703 0.065692-0.2463 0.043795-0.05927 0.10381-0.0889 0.18007-0.0889 0.037748 0 0.070971 0.0083 0.099669 0.02492 0.029069 0.01622 0.052276 0.04 0.069648 0.07133v-0.08096h0.10476v0.87534h-0.10476v-0.32216"/>
  <path d="m8.1401 10.979c-0.022268-0.01737-0.044919-0.03-0.067954-0.03794-0.023022-0.0079-0.048319-0.01191-0.07588-0.01191-0.064938 0-0.11458 0.02037-0.14893 0.06115-0.034361 0.04077-0.051535 0.09965-0.051535 0.17665v0.31538h-0.10476v-0.63415h0.10476v0.124c0.017359-0.04491 0.04398-0.07927 0.079849-0.10304 0.03624-0.02416 0.079082-0.03623 0.12854-0.03623 0.025668 0 0.049643 0.0032 0.071924 0.0097 0.022268 0.0065 0.043596 0.01642 0.063985 0.03002v0.10644"/>
  <path d="m8.59 10.662v0.18006h0.2367v0.08096h-0.2367v0.34424c0 0.0468 0.00886 0.07945 0.026608 0.09796 0.017743 0.01849 0.048703 0.02774 0.092868 0.02774h0.11723v0.08322h-0.12741c-0.078142 0-0.13326-0.01566-0.16536-0.04699-0.032085-0.03133-0.048134-0.08531-0.048134-0.16194v-0.34424h-0.16932v-0.08096h0.16932v-0.18006h0.10421"/>
  <path d="m9.5558 11.535v0.08153h-0.03624c-0.094006 0-0.15705-0.01396-0.18914-0.0419-0.031715-0.02793-0.047579-0.08361-0.047565-0.16703v-0.13532c-1.33e-5 -0.05699-0.010188-0.09644-0.03059-0.11833-0.020005-0.02189-0.05643-0.03283-0.10929-0.03283h-0.035115v-0.08098h0.035115c0.053228 0 0.089852-0.01072 0.10986-0.03227 0.020005-0.02152 0.030008-0.06059 0.030021-0.11721v-0.13589c-1.33e-5 -0.08341 0.015851-0.1389 0.047565-0.16646 0.032085-0.02793 0.095131-0.0419 0.18914-0.0419h0.03624v0.08096h-0.03964c-0.052858 1.3e-5 -0.087404 0.0083-0.10362 0.02492-0.015864 0.01623-0.023789 0.05114-0.023789 0.10475v0.14041c0 0.05927-0.00873 0.10229-0.026052 0.12909-0.016989 0.0268-0.046242 0.04492-0.087774 0.05436 0.041903 0.01019 0.071355 0.02868 0.088343 0.05548 0.016989 0.0268 0.025483 0.06965 0.025483 0.12853v0.14041c0 0.05397 0.00794 0.08908 0.023789 0.10532 0.016221 0.01623 0.050767 0.02434 0.10362 0.02434h0.03964"/>
  <path d="m10.257 10.834-0.22708 0.30347 0.24917 0.33066h-0.12061l-0.18575-0.25422-0.18517 0.25422h-0.12061l0.24915-0.33066-0.22707-0.30347h0.11552l0.16818 0.22931 0.16705-0.22931h0.11723"/>
  <path d="m10.442 11.535h0.0385c0.05324 0 0.08797-0.0083 0.10421-0.02491 0.01623-0.0166 0.02435-0.05153 0.02435-0.10475v-0.14041c0-0.05888 0.0085-0.10173 0.02548-0.12853 0.01699-0.0268 0.04644-0.0453 0.08834-0.05548-0.04153-0.0094-0.07098-0.02756-0.08834-0.05436-0.01699-0.0268-0.02548-0.06982-0.02548-0.12909v-0.14041c0-0.05323-0.0081-0.08814-0.02435-0.10475-0.01623-0.01661-0.05097-0.02491-0.10421-0.02492h-0.0385v-0.08096h0.03512c0.09399 0 0.15685 0.01397 0.18857 0.0419 0.03171 0.02756 0.04756 0.08305 0.04756 0.16646v0.13589c0 0.05662 0.01006 0.09569 0.03002 0.11721 0.02038 0.02151 0.05718 0.03227 0.11041 0.03227h0.03625v0.08098h-0.03625c-0.05323 0-0.09004 0.01098-0.11041 0.03283-0.02002 0.02189-0.03002 0.06134-0.03002 0.11833v0.13532c0 0.08342-0.01585 0.1391-0.04756 0.16703-0.03172 0.02794-0.09458 0.0419-0.18857 0.0419h-0.03512v-0.08153"/>
 </g>
 <path d="m7.9417 5.3613h3.9708v0.79374h-0.39709v-0.26458h-3.2424l-1.6178 3.8364h-0.23497l-0.99085-2.1144-0.38586 0.20223-0.14236-0.49576 0.80075-0.30468 0.83303 1.6258 1.4064-3.2788" fill="#868583" opacity=".8" stroke-width=".066145"/>
 <path d="m11.672 6.6842h-0.65597l-0.80631 1.0581h-0.02049l-0.77899-1.0581h-0.71066l1.116 1.4836v0.018851l-1.157 1.5402h0.65598l0.86094-1.1462h0.0205l0.86101 1.1462h0.71066l-1.1843-1.5653v-0.018865l1.0887-1.4585" fill="#868583" opacity=".8" stroke-width=".066145"/>
</svg>
