<svg width="64" height="64" version="1.1" viewBox="0 0 64 64" xmlns="http://www.w3.org/2000/svg">
 <defs>
  <linearGradient id="a" x1="49.571" x2="51.714" y1="52.714" y2="54.857" gradientTransform="matrix(2.3333,0,0,2.3333,-68.667,-72.001)" gradientUnits="userSpaceOnUse">
   <stop offset="0"/>
   <stop stop-opacity="0" offset="1"/>
  </linearGradient>
 </defs>
 <g transform="scale(1)">
  <rect x="8" y="4" width="48" height="56" ry="5" fill="#616e7b" style="paint-order:stroke fill markers"/>
  <path d="m56 46-14 14h9c2.77 0 5-2.23 5-5z" fill="url(#a)" fill-rule="evenodd" opacity=".15" stroke-width="8.8191" style="paint-order:stroke fill markers"/>
 </g>
 <path d="m23 21v6h-4v13.5c0 1.385 1.115 2.5 2.5 2.5h21c1.385 0 2.5-1.115 2.5-2.5v-19.5zm2 2h18v4h-18zm1 1v2h16v-2zm-6 4h3v14h-1.5c-0.831 0-1.5-0.669-1.5-1.5v-10.5zm5 1h10v9h-10zm11 0h7v1h-7zm0 4h7v1h-7zm0 4h7v1h-7zm-11 3h18v1h-18z" fill="#fbfbfb"/>
</svg>
