<svg width="64" height="64" version="1.1" viewBox="0 0 64 64" xmlns="http://www.w3.org/2000/svg">
 <defs>
  <linearGradient id="a" x1="49.571" x2="51.714" y1="52.714" y2="54.857" gradientTransform="matrix(2.3333,0,0,2.3333,-68.667,-72.001)" gradientUnits="userSpaceOnUse">
   <stop offset="0"/>
   <stop stop-opacity="0" offset="1"/>
  </linearGradient>
 </defs>
 <g transform="scale(1)">
  <rect x="8" y="4" width="48" height="56" ry="5" fill="#f62e61" style="paint-order:stroke fill markers"/>
  <path d="m56 46-14 14h9c2.77 0 5-2.23 5-5z" fill="url(#a)" fill-rule="evenodd" opacity=".15" stroke-width="8.8191" style="paint-order:stroke fill markers"/>
 </g>
 <g transform="translate(-52.837,-2.8601)">
  <path transform="translate(52.837,2.8601)" d="m32 17.301-13.363 10.025c-0.02875 0.0187-0.054801 0.0418-0.082031 0.0625l-0.015626 0.011719v0.001953c-0.3259 0.2559-0.53906 0.64927-0.53906 1.0977v11.229h0.003906l1.4453-1.8633 0.93555 2.3418 1.8203-1.3262 1.3574 3.7285 1.8398-2.8809 1.8809 2.041 1.0449-2.584 1.1445 1.3789 1.5781-1.6484 1.6055 3.7832h0.43945l1.5215-5.4863 1.168 3.6426 1.3359-2.0605 1.7227 3.9043h0.50781l0.84961-2.9707 1.4805 0.93555 1.4316-1.3672 1.4805 1.2461 1.4062-0.75v-11.293c0-0.45851-0.22189-0.86019-0.56055-1.1152l0.005859-0.007813-13.445-10.076zm0 6.3984a5 5 0 0 1 5 5v1.5c0 0.831-0.669 1.5-1.5 1.5-0.61296 0-1.1359-0.36612-1.3691-0.89062a3 3 0 0 1-2.1309 0.89062 3 3 0 0 1-3-3 3 3 0 0 1 3-3 3 3 0 0 1 3 3v1.5c0 0.277 0.223 0.5 0.5 0.5s0.5-0.223 0.5-0.5v-1.5a4 4 0 0 0-4-4 4 4 0 0 0-4 4 4 4 0 0 0 4 4h3.5c0.277 0 0.5 0.223 0.5 0.5s-0.223 0.5-0.5 0.5h-3.5a5 5 0 0 1-5-5 5 5 0 0 1 5-5zm0 3a2 2 0 0 0-2 2 2 2 0 0 0 2 2 2 2 0 0 0 2-2 2 2 0 0 0-2-2z" enable-background="new" fill="#fff" opacity=".5"/>
  <path transform="translate(52.837,2.8601)" d="m22.5 20.699c-0.831 0-1.5 0.66967-1.5 1.5v15.002c0 0.83033 0.669 1.498 1.5 1.498h11.705l0.41211-1.4863 0.47656 1.4863h6.4062c0.831 0 1.5-0.66777 1.5-1.498v-15.002c0-0.83033-0.669-1.5-1.5-1.5h-19zm9.5 3a5 5 0 0 1 5 5v1.5c0 0.831-0.669 1.5-1.5 1.5-0.61296 0-1.1359-0.36612-1.3691-0.89062a3 3 0 0 1-2.1309 0.89062 3 3 0 0 1-3-3 3 3 0 0 1 3-3 3 3 0 0 1 3 3v1.5c0 0.277 0.223 0.5 0.5 0.5s0.5-0.223 0.5-0.5v-1.5a4 4 0 0 0-4-4 4 4 0 0 0-4 4 4 4 0 0 0 4 4h3.5c0.277 0 0.5 0.223 0.5 0.5s-0.223 0.5-0.5 0.5h-3.5a5 5 0 0 1-5-5 5 5 0 0 1 5-5zm0 3a2 2 0 0 0-2 2 2 2 0 0 0 2 2 2 2 0 0 0 2-2 2 2 0 0 0-2-2z" enable-background="new" fill="#fff"/>
  <path transform="translate(52.837,2.8601)" d="m18 28.5v11.229h0.003906l1.4453-1.8633 0.93555 2.3418 1.8203-1.3262 1.3574 3.7285 1.8398-2.8809 1.8809 2.041 1.0449-2.584 1.1445 1.3789 1.5781-1.6484 1.8711 4.4082 1.0762-3.8789-15.998-10.945zm17.709 12.115 0.076172 0.24024 0.083985-0.12891-0.16016-0.11133zm3.1758 2.1738 0.26758 0.60742 0.10156-0.35547-0.36914-0.25195z" enable-background="new" fill="#fcd4e1"/>
  <path transform="translate(52.837,2.8601)" d="m46 28.5-16.928 11.582 0.40039 0.48242 1.5781-1.6484 1.8711 4.4082 1.6953-6.1113 1.168 3.6426 1.3359-2.0605 2.0312 4.6016 1.0488-3.668 1.4805 0.93555 1.4316-1.3672 1.4805 1.2461 1.4062-0.75v-11.293zm-18.457 12.629-0.52148 0.35547 0.26172 0.28516 0.25977-0.64062z" enable-background="new" fill="#fdefef"/>
 </g>
</svg>
