<svg width="56" height="56" viewBox="0 0 56 56" fill="none" xmlns="http://www.w3.org/2000/svg">
<mask id="mask0_1440_3183" style="mask-type:alpha" maskUnits="userSpaceOnUse" x="7" y="4" width="41" height="48">
<path d="M11.1 4L31.3279 4C32.7216 4 34.0628 4.51937 35.0771 5.45195L46.2825 15.7543C47.3786 16.762 48 18.1663 48 19.6357L48 48C48 50.2091 46.1644 52 43.9 52L11.1 52C8.83564 52 7 50.2091 7 48L7 8C7 5.79086 8.83563 4 11.1 4Z" fill="#4D72D3"/>
</mask>
<g mask="url(#mask0_1440_3183)">
<g filter="url(#filter0_d_1440_3183)">
<path d="M11.1 4.00195L31.3279 4.00195C32.7216 4.00195 34.0628 4.52133 35.0771 5.4539L46.2825 15.7563C47.3786 16.764 48 18.1683 48 19.6376L48 48.0019C48 50.2111 46.1644 52.0019 43.9 52.0019L11.1 52.0019C8.83564 52.0019 7 50.2111 7 48.0019L7 8.00195C7 5.79281 8.83563 4.00195 11.1 4.00195Z" fill="url(#paint0_linear_1440_3183)"/>
<path d="M11.1 4.00195L31.3279 4.00195C32.7216 4.00195 34.0628 4.52133 35.0771 5.4539L46.2825 15.7563C47.3786 16.764 48 18.1683 48 19.6376L48 48.0019C48 50.2111 46.1644 52.0019 43.9 52.0019L11.1 52.0019C8.83564 52.0019 7 50.2111 7 48.0019L7 8.00195C7 5.79281 8.83563 4.00195 11.1 4.00195Z" stroke="#EEEAFF" stroke-width="2"/>
</g>
<g filter="url(#filter1_d_1440_3183)">
<path fill-rule="evenodd" clip-rule="evenodd" d="M39.8 16L47.9999 16L47.9999 4.00001L35.7 4.00001L35.7 12C35.7 14.2091 37.5356 16 39.8 16Z" fill="#B2A0F2"/>
<path fill-rule="evenodd" clip-rule="evenodd" d="M39.8 16L47.9999 16L47.9999 4.00001L35.7 4.00001L35.7 12C35.7 14.2091 37.5356 16 39.8 16Z" stroke="#AD9AF4"/>
</g>
</g>
<path d="M16.1 30C16.1 29.5029 16.5029 29.1 17 29.1H26C26.4971 29.1 26.9 29.5029 26.9 30C26.9 30.4971 26.4971 30.9 26 30.9H17C16.5029 30.9 16.1 30.4971 16.1 30Z" fill="url(#paint1_linear_1440_3183)" fill-opacity="0.9" stroke="url(#paint2_linear_1440_3183)" stroke-width="0.2"/>
<path d="M16.1 36C16.1 35.5029 16.5029 35.1 17 35.1H31C31.4971 35.1 31.9 35.5029 31.9 36C31.9 36.4971 31.4971 36.9 31 36.9H17C16.5029 36.9 16.1 36.4971 16.1 36Z" fill="url(#paint3_linear_1440_3183)" fill-opacity="0.9" stroke="url(#paint4_linear_1440_3183)" stroke-width="0.2"/>
<path d="M16.1 42C16.1 41.5029 16.5029 41.1 17 41.1H38C38.4971 41.1 38.9 41.5029 38.9 42C38.9 42.4971 38.4971 42.9 38 42.9H17C16.5029 42.9 16.1 42.4971 16.1 42Z" fill="url(#paint5_linear_1440_3183)" fill-opacity="0.9" stroke="url(#paint6_linear_1440_3183)" stroke-width="0.2"/>
<path fill-rule="evenodd" clip-rule="evenodd" d="M21.968 11.9996C22.5203 11.9993 22.9682 12.3879 22.9684 12.8674L22.9729 23.0704C22.9731 23.55 22.5256 23.9389 21.9733 23.9392C21.421 23.9394 20.9731 23.5509 20.9729 23.0713L20.9684 12.8683C20.9682 12.3888 21.4157 11.9998 21.968 11.9996Z" fill="white"/>
<path fill-rule="evenodd" clip-rule="evenodd" d="M21.968 12.0015C22.5203 12.0013 22.9682 12.3898 22.9684 12.8694L22.9729 23.0724C22.9731 23.5519 22.5256 23.9409 21.9733 23.9411C21.421 23.9414 20.9731 23.5528 20.9729 23.0732L20.9684 12.8703C20.9682 12.3907 21.4157 12.0018 21.968 12.0015Z" fill="white"/>
<path fill-rule="evenodd" clip-rule="evenodd" d="M16.0005 17.9727C16.0003 17.4204 16.3889 16.9725 16.8684 16.9723L27.0714 16.9677C27.5509 16.9675 27.9399 17.4151 27.9402 17.9674C27.9404 18.5196 27.5518 18.9675 27.0723 18.9677L16.8693 18.9723C16.3897 18.9725 16.0008 18.5249 16.0005 17.9727Z" fill="white"/>
<path fill-rule="evenodd" clip-rule="evenodd" d="M16.0013 17.9727C16.001 17.4204 16.3896 16.9725 16.8692 16.9723L27.0721 16.9677C27.5517 16.9675 27.9406 17.4151 27.9409 17.9674C27.9411 18.5196 27.5526 18.9675 27.073 18.9677L16.87 18.9723C16.3905 18.9725 16.0015 18.5249 16.0013 17.9727Z" fill="white"/>
<defs>
<filter id="filter0_d_1440_3183" x="-19.9511" y="-8.794" width="94.9022" height="101.902" filterUnits="userSpaceOnUse" color-interpolation-filters="sRGB">
<feFlood flood-opacity="0" result="BackgroundImageFix"/>
<feColorMatrix in="SourceAlpha" type="matrix" values="0 0 0 0 0 0 0 0 0 0 0 0 0 0 0 0 0 0 127 0" result="hardAlpha"/>
<feOffset dy="14.1551"/>
<feGaussianBlur stdDeviation="12.9756"/>
<feColorMatrix type="matrix" values="0 0 0 0 0 0 0 0 0 0.284091 0 0 0 0 1 0 0 0 0.35 0"/>
<feBlend mode="normal" in2="BackgroundImageFix" result="effect1_dropShadow_1440_3183"/>
<feBlend mode="normal" in="SourceGraphic" in2="effect1_dropShadow_1440_3183" result="shape"/>
</filter>
<filter id="filter1_d_1440_3183" x="31.2" y="1.5" width="21.3" height="21" filterUnits="userSpaceOnUse" color-interpolation-filters="sRGB">
<feFlood flood-opacity="0" result="BackgroundImageFix"/>
<feColorMatrix in="SourceAlpha" type="matrix" values="0 0 0 0 0 0 0 0 0 0 0 0 0 0 0 0 0 0 127 0" result="hardAlpha"/>
<feOffset dy="2"/>
<feGaussianBlur stdDeviation="2"/>
<feColorMatrix type="matrix" values="0 0 0 0 0.527182 0 0 0 0 0.445764 0 0 0 0 0.816667 0 0 0 1 0"/>
<feBlend mode="normal" in2="BackgroundImageFix" result="effect1_dropShadow_1440_3183"/>
<feBlend mode="normal" in="SourceGraphic" in2="effect1_dropShadow_1440_3183" result="shape"/>
</filter>
<linearGradient id="paint0_linear_1440_3183" x1="27.5" y1="4.00195" x2="27.5" y2="52.0019" gradientUnits="userSpaceOnUse">
<stop stop-color="#DFD7FF"/>
<stop offset="1" stop-color="#D9CFFF"/>
</linearGradient>
<linearGradient id="paint1_linear_1440_3183" x1="15.164" y1="28.8664" x2="27.82" y2="35.7217" gradientUnits="userSpaceOnUse">
<stop stop-color="white"/>
<stop offset="1" stop-color="white" stop-opacity="0"/>
</linearGradient>
<linearGradient id="paint2_linear_1440_3183" x1="14.1375" y1="29.4263" x2="26.2704" y2="36.8082" gradientUnits="userSpaceOnUse">
<stop stop-color="white"/>
<stop offset="1" stop-color="white" stop-opacity="0"/>
</linearGradient>
<linearGradient id="paint3_linear_1440_3183" x1="14.784" y1="34.8664" x2="29.4746" y2="46.4408" gradientUnits="userSpaceOnUse">
<stop stop-color="white"/>
<stop offset="1" stop-color="white" stop-opacity="0"/>
</linearGradient>
<linearGradient id="paint4_linear_1440_3183" x1="13.2909" y1="35.4263" x2="26.8513" y2="47.4269" gradientUnits="userSpaceOnUse">
<stop stop-color="white"/>
<stop offset="1" stop-color="white" stop-opacity="0"/>
</linearGradient>
<linearGradient id="paint5_linear_1440_3183" x1="14.252" y1="40.8664" x2="29.2457" y2="57.848" gradientUnits="userSpaceOnUse">
<stop stop-color="white"/>
<stop offset="1" stop-color="white" stop-opacity="0"/>
</linearGradient>
<linearGradient id="paint6_linear_1440_3183" x1="12.1057" y1="41.4263" x2="25.381" y2="58.3145" gradientUnits="userSpaceOnUse">
<stop stop-color="white"/>
<stop offset="1" stop-color="white" stop-opacity="0"/>
</linearGradient>
</defs>
</svg>
