<svg width="64" height="64" version="1.1" viewBox="0 0 16.933 16.933" xmlns="http://www.w3.org/2000/svg">
 <defs>
  <linearGradient id="a" x1="49.571" x2="51.714" y1="52.714" y2="54.857" gradientTransform="matrix(2.3333,0,0,2.3333,-68.667,-72.001)" gradientUnits="userSpaceOnUse">
   <stop offset="0"/>
   <stop stop-opacity="0" offset="1"/>
  </linearGradient>
 </defs>
 <g transform="scale(.26458)">
  <rect x="8" y="4" width="48" height="56" ry="5" fill="#43a0df" style="paint-order:stroke fill markers"/>
  <path d="m56 46-14 14h9c2.77 0 5-2.23 5-5z" fill="url(#a)" fill-rule="evenodd" opacity=".15" stroke-width="8.8191" style="paint-order:stroke fill markers"/>
 </g>
 <g transform="translate(-.1145 .2615)">
  <path d="m11.907 7.635q0 0.686-0.222 1.243-0.218 0.553-0.611 0.855-0.39 0.303-0.875 0.303-0.378 0-0.585-0.163-0.206-0.162-0.206-0.486l0.011-0.259h-0.023q-0.252 0.454-0.626 0.683-0.37 0.225-0.802 0.225-0.6 0-0.933-0.376-0.328-0.377-0.328-1.044 0-0.605 0.244-1.125 0.249-0.52 0.692-0.827 0.443-0.306 0.982-0.306 0.836 0 1.15 0.672h0.023l0.149-0.59h0.596l-0.444 1.866q-0.14 0.605-0.14 0.933 0 0.347 0.309 0.347 0.305 0 0.561-0.255 0.26-0.254 0.409-0.7 0.149-0.447 0.149-0.99 0-0.66-0.294-1.168-0.294-0.513-0.848-0.786-0.554-0.277-1.296-0.277-0.924 0-1.635 0.395-0.71 0.395-1.115 1.14-0.405 0.741-0.405 1.663 0 0.712 0.298 1.258 0.301 0.542 0.867 0.834 0.57 0.291 1.326 0.291 0.554 0 1.123-0.14 0.57-0.137 1.18-0.457l0.21 0.413q-0.553 0.32-1.203 0.487-0.646 0.17-1.31 0.17-0.921 0-1.613-0.355-0.687-0.35-1.054-1-0.363-0.652-0.363-1.5 0-1.033 0.474-1.878 0.477-0.845 1.322-1.313 0.844-0.472 1.89-0.472 0.922 0 1.59 0.335 0.669 0.332 1.02 0.94 0.356 0.61 0.356 1.414zm-2.316 0.03q0-0.377-0.252-0.606-0.252-0.232-0.672-0.232-0.386 0-0.688 0.236-0.298 0.232-0.47 0.649-0.172 0.413-0.172 0.896 0 0.443 0.18 0.694 0.183 0.25 0.561 0.25 0.478 0 0.875-0.387 0.398-0.387 0.55-0.966 0.088-0.34 0.088-0.535z" fill="#fff" font-size="29.058" font-weight="400" letter-spacing="0" word-spacing="0" aria-label="@"/>
 </g>
</svg>
