<svg xmlns="http://www.w3.org/2000/svg" xmlns:xlink="http://www.w3.org/1999/xlink" viewBox="0 0 66 65" fill="#fff" fill-rule="evenodd" stroke="#000" stroke-linecap="round" stroke-linejoin="round"><style><![CDATA[.B{stroke:none}.C{fill-rule:nonzero}.D{stroke:#fff}.E{stroke-width:3.271}]]></style><use xlink:href="#B" x=".5" y=".5"/><defs><linearGradient id="A" x1="49.97%" y1="99.94%" x2="49.97%" y2="0.00%"><stop offset="0%" stop-color="#0882c8"/><stop offset="100%" stop-color="#26b6db"/></linearGradient></defs><symbol id="B" overflow="visible"><path d="M0 32C0 14.272 14.272 0 32 0s32 14.272 32 32-14.272 32-32 32S0 49.728 0 32z" fill="url(#A)" class="B C"/><path d="M8.177 31.891C8.177 18.693 18.802 8.068 32 8.068s23.823 10.625 23.823 23.823S45.198 55.714 32 55.714 8.177 45.089 8.177 31.891z" fill="none" class="D E"/><path d="M51.625 26.058c2.562.872 5.342-.491 6.215-3.053s-.491-5.342-3.053-6.215-5.342.491-6.215 3.053.491 5.342 3.053 6.215z" class="B C"/><path d="M53.206 21.479L36.797 35.108" fill="none" class="D E"/><path d="M42.304 49.608c-.218 2.671 1.745 5.07 4.47 5.342 2.726.218 5.07-1.744 5.343-4.47.218-2.671-1.745-5.07-4.47-5.343-2.726-.218-5.124 1.745-5.342 4.47z" class="B C"/><path d="M47.155 50.044L36.797 35.107" fill="none" class="D E"/><path d="M32.708 37.779c1.472 2.29 4.525 2.944 6.76 1.472 2.29-1.472 2.944-4.525 1.472-6.76-1.472-2.29-4.525-2.944-6.76-1.472-2.29 1.417-2.944 4.47-1.472 6.76zm-21.152-4.307c-2.344-1.363-5.342-.6-6.705 1.69-1.363 2.344-.6 5.342 1.69 6.705 2.344 1.363 5.342.6 6.705-1.69s.6-5.288-1.69-6.705z" class="B C"/><path d="M9.049 37.669l27.748-2.562" fill="none" class="D E"/></symbol></svg>