<svg width="64" height="64" version="1.1" viewBox="0 0 16.933 16.933" xmlns="http://www.w3.org/2000/svg">
 <defs>
  <linearGradient id="a" x1="49.571" x2="51.714" y1="52.714" y2="54.857" gradientTransform="matrix(2.3333,0,0,2.3333,-68.667,-72.001)" gradientUnits="userSpaceOnUse">
   <stop offset="0"/>
   <stop stop-opacity="0" offset="1"/>
  </linearGradient>
 </defs>
 <g transform="scale(.26458)">
  <rect x="8" y="4" width="48" height="56" ry="5" fill="#f4f4f4" style="paint-order:stroke fill markers"/>
  <path d="m56 46-14 14h9c2.77 0 5-2.23 5-5z" fill="url(#a)" fill-rule="evenodd" opacity=".1" stroke-width="8.8191" style="paint-order:stroke fill markers"/>
 </g>
 <g transform="matrix(.0080193 0 0 .0080193 4.6685 4.6699)" enable-background="new">
  <path d="m877.79 267.49c49.976 98.079 62.591 210.98 35.499 317.67s-92.043 199.88-182.74 262.21c-90.699 62.331-200.95 89.542-310.24 76.578-109.28-12.964-210.14-65.22-283.79-147.02-152.35-169.2-155.81-425.03-7.9832-598.14 141.02-165.14 378.02-206.18 565.33-101.96 9.0451 5.0327 17.974 10.404 26.771 16.117" fill="none" stroke="#888" stroke-dasharray="62.03784321" stroke-width="16.496"/>
  <circle cx="473.6" cy="473.46" r="362.92" fill="#1a7fd4"/>
  <circle cx="622.07" cy="324.99" r="82.482" fill="#fff"/>
  <circle cx="820.02" cy="127.04" r="82.482" fill="#1a7fd4"/>
 </g>
</svg>
