<?xml version="1.0" encoding="UTF-8"?>
<svg width="64" height="64" version="1.1" viewBox="0 0 16.933 16.933" xmlns="http://www.w3.org/2000/svg" xmlns:cc="http://creativecommons.org/ns#" xmlns:dc="http://purl.org/dc/elements/1.1/" xmlns:rdf="http://www.w3.org/1999/02/22-rdf-syntax-ns#">
 <metadata>
  <rdf:RDF>
   <cc:Work rdf:about="">
    <dc:format>image/svg+xml</dc:format>
    <dc:type rdf:resource="http://purl.org/dc/dcmitype/StillImage"/>
    <dc:title/>
   </cc:Work>
  </rdf:RDF>
 </metadata>
 <defs>
  <linearGradient id="a" x1="49.571" x2="51.714" y1="52.714" y2="54.857" gradientTransform="matrix(2.3333,0,0,2.3333,-68.667,-72.001)" gradientUnits="userSpaceOnUse">
   <stop offset="0"/>
   <stop stop-opacity="0" offset="1"/>
  </linearGradient>
 </defs>
 <g transform="scale(.26458)">
  <rect x="8" y="4" width="48" height="56" ry="5" fill="#538be9" style="paint-order:stroke fill markers"/>
  <path d="m56 46-14 14h9c2.77 0 5-2.23 5-5z" fill="url(#a)" fill-rule="evenodd" opacity=".15" stroke-width="8.8191" style="paint-order:stroke fill markers"/>
 </g>
 <path class="ColorScheme-Text" d="m7.7135 5.5561c-0.74187 0-1.3432 0.60141-1.3432 1.3432s0.60137 1.3432 1.3432 1.3432c0.74187 0 1.3432-0.60141 1.3432-1.3432s-0.60137-1.3432-1.3432-1.3432zm2.237 0.87101 0.00178 0.00174c-0.17385 0-0.33729 0.039984-0.48535 0.10669 0.024445 0.11733 0.037603 0.23869 0.037603 0.36292 0 0.49346-0.20337 0.94214-0.52995 1.2672 0.20596 0.31342 0.56402 0.52383 0.97595 0.52383 0.64149 0 1.1613-0.50609 1.1613-1.1307s-0.51986-1.1316-1.1613-1.1316zm-2.237 2.7092c-2.6866 0.0015224-2.6865 1.7927-2.6865 1.7927v0.44775h5.373v-0.44775s0-1.7955-2.6865-1.791zm2.2387 8.715e-4v8.8e-4c-0.087804 0-0.16643 0.00564-0.24748 0.00961 0.31233 0.17895 0.55033 0.39271 0.71797 0.61653 0.42088 0.56416 0.42501 1.164 0.42501 1.164h1.3432v-0.44775s0-1.3432-2.2387-1.3432z" fill="#fff" stroke-width=".44775"/>
</svg>
