<?xml version="1.0" encoding="UTF-8"?>
<svg width="64" height="64" version="1.1" viewBox="0 0 16.933 16.933" xmlns="http://www.w3.org/2000/svg" xmlns:cc="http://creativecommons.org/ns#" xmlns:dc="http://purl.org/dc/elements/1.1/" xmlns:rdf="http://www.w3.org/1999/02/22-rdf-syntax-ns#">
 <metadata>
  <rdf:RDF>
   <cc:Work rdf:about="">
    <dc:format>image/svg+xml</dc:format>
    <dc:type rdf:resource="http://purl.org/dc/dcmitype/StillImage"/>
    <dc:title/>
   </cc:Work>
  </rdf:RDF>
 </metadata>
 <defs>
  <linearGradient id="a" x1="49.571" x2="51.714" y1="52.714" y2="54.857" gradientTransform="matrix(2.3333,0,0,2.3333,-68.667,-72.001)" gradientUnits="userSpaceOnUse">
   <stop offset="0"/>
   <stop stop-opacity="0" offset="1"/>
  </linearGradient>
 </defs>
 <g transform="scale(.26458)">
  <rect x="8" y="4" width="48" height="56" ry="5" fill="#8f76e4" style="paint-order:stroke fill markers"/>
  <path d="m56 46-14 14h9c2.77 0 5-2.23 5-5z" fill="url(#a)" fill-rule="evenodd" opacity=".15" stroke-width="8.8191" style="paint-order:stroke fill markers"/>
 </g>
 <path d="m8.3719 6.3242c-0.18989 0-0.36988 0.02179-0.53999 0.0653-0.16616 0.04352-0.3165 0.1009-0.45101 0.1721l0.15428 0.42734c0.24923-0.13451 0.50446-0.20176 0.76556-0.20176 0.20572 0 0.36202 0.05333 0.46883 0.16014 0.10681 0.10286 0.16014 0.23737 0.16014 0.40353 0 0.10286-0.02369 0.19786-0.07116 0.28489-0.04352 0.08703-0.1009 0.17012-0.1721 0.24925-0.07121 0.07912-0.14632 0.15816-0.22544 0.23728-0.07912 0.07517-0.15436 0.15826-0.22557 0.24925-0.07121 0.08703-0.13049 0.18203-0.17796 0.28489-0.04352 0.10286-0.0653 0.21749-0.0653 0.34408 0 0.08704 0.0079 0.17013 0.02368 0.24925h0.46285c-4e-3 -0.01978-0.0059-0.04144-0.0059-0.06518v-0.0653c0-0.13055 0.02571-0.24734 0.07714-0.35019 0.05143-0.10681 0.11476-0.20371 0.18993-0.29074 0.07516-0.09099 0.15813-0.17801 0.24912-0.26109s0.17408-0.1701 0.24925-0.26108c0.07517-0.09099 0.1385-0.18789 0.18993-0.29074 0.05143-0.10682 0.07714-0.22752 0.07714-0.36203 0-0.10681-0.01773-0.21752-0.05334-0.33224-0.03165-0.11868-0.09105-0.22559-0.17809-0.32053-0.08703-0.09494-0.20369-0.17208-0.35007-0.23142-0.14242-0.0633-0.32646-0.09496-0.55196-0.09496zm-1.5752 1.1098-2.5635 1.086v0.47469l2.5635 1.086 0.15428-0.45699-2.1066-0.86638 2.1066-0.86638zm3.3394 0-0.15428 0.45687 2.1066 0.86638-2.1066 0.86638 0.15428 0.45699 2.5636-1.086v-0.47469zm-1.8592 2.3796c-0.12264 0-0.21954 0.03952-0.29075 0.11864-0.07121 0.079119-0.1068 0.17209-0.1068 0.27891s0.03559 0.19978 0.1068 0.27891c0.07121 0.07912 0.16811 0.11877 0.29075 0.11877s0.21966-0.03965 0.29087-0.11877 0.1068-0.17209 0.1068-0.27891c0-0.10681-0.03559-0.19978-0.1068-0.27891-0.07121-0.07912-0.16823-0.11864-0.29087-0.11864z" enable-background="new" fill="#fff"/>
</svg>
