<?xml version="1.0" encoding="UTF-8"?>
<svg width="64" height="64" version="1.1" viewBox="0 0 16.933 16.933" xmlns="http://www.w3.org/2000/svg" xmlns:cc="http://creativecommons.org/ns#" xmlns:dc="http://purl.org/dc/elements/1.1/" xmlns:rdf="http://www.w3.org/1999/02/22-rdf-syntax-ns#">
 <metadata>
  <rdf:RDF>
   <cc:Work rdf:about="">
    <dc:format>image/svg+xml</dc:format>
    <dc:type rdf:resource="http://purl.org/dc/dcmitype/StillImage"/>
    <dc:title/>
   </cc:Work>
  </rdf:RDF>
 </metadata>
 <defs>
  <linearGradient id="a" x1="49.571" x2="51.714" y1="52.714" y2="54.857" gradientTransform="matrix(2.3333,0,0,2.3333,-68.667,-72.001)" gradientUnits="userSpaceOnUse">
   <stop offset="0"/>
   <stop stop-opacity="0" offset="1"/>
  </linearGradient>
 </defs>
 <g transform="scale(.26458)">
  <rect x="8" y="4" width="48" height="56" ry="5" fill="#3f51b5" style="paint-order:stroke fill markers"/>
  <path d="m56 46-14 14h9c2.77 0 5-2.23 5-5z" fill="url(#a)" fill-rule="evenodd" opacity=".2" stroke-width="8.8191" style="paint-order:stroke fill markers"/>
 </g>
 <path d="m9.4621 8.9292s0.30458 0.09191 0.48152 0.18144c0.0614 0.03107 0.16763 0.09307 0.24426 0.17447 0.07506 0.07972 0.11166 0.16051 0.11166 0.16051l1.2145 2.195-2.2128 8e-4 -0.90658-1.6664s-0.18577-0.31919-0.30008-0.41174c-0.09536-0.0772-0.13602-0.10468-0.23029-0.10468h-0.46095l-3.25e-4 2.1816h-1.984v-6.3487h3.075c1.092 0 2.5322 0.32672 2.5322 1.8206 0 1.4939-1.5642 1.817-1.5642 1.817zm-2.0592-2.4472v1.5872h0.94162s0.72999 0 0.77856-0.7766c0.05068-0.81043-0.77901-0.80972-0.77901-0.80972z" enable-background="new" fill="#fff" fill-rule="evenodd" stroke-width=".066145"/>
</svg>
