<?xml version="1.0" encoding="UTF-8"?>
<svg width="64" height="64" version="1.1" xmlns="http://www.w3.org/2000/svg" xmlns:cc="http://creativecommons.org/ns#" xmlns:dc="http://purl.org/dc/elements/1.1/" xmlns:rdf="http://www.w3.org/1999/02/22-rdf-syntax-ns#">
 <metadata>
  <rdf:RDF>
   <cc:Work rdf:about="">
    <dc:format>image/svg+xml</dc:format>
    <dc:type rdf:resource="http://purl.org/dc/dcmitype/StillImage"/>
    <dc:title/>
   </cc:Work>
  </rdf:RDF>
 </metadata>
 <defs>
  <linearGradient id="a" x1="49.571" x2="51.714" y1="52.714" y2="54.857" gradientTransform="matrix(2.3333,0,0,2.3333,-68.667,-72.001)" gradientUnits="userSpaceOnUse">
   <stop offset="0"/>
   <stop stop-opacity="0" offset="1"/>
  </linearGradient>
 </defs>
 <g transform="scale(1)">
  <rect x="8" y="4" width="48" height="56" ry="5" fill="#95458d" style="paint-order:stroke fill markers"/>
  <path d="m56 46-14 14h9c2.77 0 5-2.23 5-5z" fill="url(#a)" fill-rule="evenodd" opacity=".15" stroke-width="8.8191" style="paint-order:stroke fill markers"/>
 </g>
 <g fill="#fff">
  <path d="m23.492 17.5v29h5.0197c0.01814-3.7792-0.0395-7.56 0.03477-11.338 0.12442-1.7748 0.22258-4.0351 1.9136-5.0072 0.9308-0.53496 2.1768-0.66506 3.2022-0.33219 1.5028 0.48795 1.755 2.4243 1.8193 3.8193 0.02457 4.2857 0.0038 8.5721 0.01058 12.858h5c-0.01058-4.8163 0.0378-9.6841-7e-6 -14.5-0.05193-2.4201-1.043-5.0707-3.3583-6.1751-1.9789-0.94369-4.3216-0.66204-6.3297 0.09906-0.94811 0.35933-2.2565 2.1079-2.2565 2.1079-0.01209-3.5106-0.02381-7.021-0.03591-10.532h-5.0197z" color="#000000" stroke-width="3.7796"/>
  <path d="m35 17v3h-3v1h3v3h1v-3h3v-1h-3v-3z" opacity=".75"/>
  <path d="m43 17v3h-3v1h3v3h1v-3h3v-1h-3v-3z" opacity=".75"/>
 </g>
</svg>
