<?xml version="1.0" encoding="UTF-8"?>
<svg width="64" height="64" version="1.1" viewBox="0 0 16.933 16.933" xmlns="http://www.w3.org/2000/svg" xmlns:cc="http://creativecommons.org/ns#" xmlns:dc="http://purl.org/dc/elements/1.1/" xmlns:rdf="http://www.w3.org/1999/02/22-rdf-syntax-ns#">
 <metadata>
  <rdf:RDF>
   <cc:Work rdf:about="">
    <dc:format>image/svg+xml</dc:format>
    <dc:type rdf:resource="http://purl.org/dc/dcmitype/StillImage"/>
    <dc:title/>
   </cc:Work>
  </rdf:RDF>
 </metadata>
 <defs>
  <linearGradient id="a" x1="49.571" x2="51.714" y1="52.714" y2="54.857" gradientTransform="matrix(2.3333,0,0,2.3333,-68.667,-72.001)" gradientUnits="userSpaceOnUse">
   <stop offset="0"/>
   <stop stop-opacity="0" offset="1"/>
  </linearGradient>
 </defs>
 <g transform="scale(.26458)">
  <rect x="8" y="4" width="48" height="56" ry="5" fill="#234db8" style="paint-order:stroke fill markers"/>
  <path d="m56 46-14 14h9c2.77 0 5-2.23 5-5z" fill="url(#a)" fill-rule="evenodd" opacity=".15" stroke-width="8.8191" style="paint-order:stroke fill markers"/>
 </g>
 <path d="m4.696 10.422c-0.23417-0.05164-0.3649-0.14393-0.4396-0.31034-0.03506-0.07811-0.03952-0.13318-0.04893-0.60493-0.0098-0.49288-0.01252-0.52345-0.05333-0.60751-0.05335-0.10988-0.1568-0.16644-0.33028-0.18056l-0.11972-0.0097v-0.46144l0.12557-0.01287c0.17244-0.01767 0.27463-0.07072 0.32534-0.16891 0.03551-0.06874 0.04107-0.11368 0.04592-0.37075 0.01335-0.70713 0.01775-0.78136 0.05093-0.85871 0.04329-0.10089 0.11275-0.17324 0.2193-0.22839 0.17438-0.09026 0.27388-0.10556 0.75301-0.11577l0.4504-0.0096 0.0054 1.2998c0.0052 1.2567 0.0066 1.3023 0.04258 1.3741 0.06635 0.13245 0.11215 0.1522 0.35297 0.1522h0.21065l0.01119 0.08284c0.0062 0.04556 0.01119 0.13174 0.01119 0.1915v0.10865l-0.16215 0.02335c-0.09113 0.01312-0.23576 0.01884-0.33021 0.01304-0.29737-0.01824-0.47954-0.12058-0.57797-0.32468-0.0922-0.19118-0.10032-0.30695-0.10102-1.4412l-6.75e-4 -1.0445-0.09767 0.01314c-0.13978 0.01881-0.21035 0.05786-0.24963 0.13812-0.02919 0.05966-0.03522 0.13504-0.04329 0.54113-0.0088 0.44123-0.0121 0.47743-0.0514 0.55833-0.05451 0.11222-0.10139 0.1552-0.26391 0.24197l-0.13364 0.07134 0.10817 0.04016c0.13895 0.05159 0.23321 0.13152 0.28788 0.24414 0.04128 0.08503 0.04401 0.11457 0.05283 0.57092 0.01005 0.52013 0.01637 0.5545 0.1155 0.62892 0.03069 0.02304 0.09069 0.04122 0.15348 0.0465l0.14463 0.0087v0.4294l-0.195-0.0015c-0.08441-8.25e-4 -0.20523-0.01292-0.2685-0.02687zm7.0779-0.18867v-0.21704l0.12953-3.5e-5c0.12156-3.8e-5 0.21035-0.0492 0.25556-0.14152 0.03307-0.06752 0.03799-0.12629 0.0466-0.55674 9e-3 -0.45187 0.01216-0.48608 0.05122-0.56037 0.04993-0.09498 0.12602-0.15675 0.281-0.22812l0.11571-0.05329-0.10651-0.04479c-0.12678-0.05331-0.23586-0.14841-0.29127-0.25395-0.03743-0.07129-0.041-0.11118-0.05004-0.55804-0.0089-0.43912-0.01304-0.48705-0.04753-0.54731-0.04451-0.07777-0.13214-0.12666-0.25475-0.14213l-0.12953-0.011143v-0.43716l0.22632 0.01294c0.40983 0.02343 0.61386 0.13758 0.70199 0.37433 0.02377 0.06385 0.03228 0.18982 0.04114 0.60894 0.01022 0.48352 0.01435 0.53405 0.04868 0.59449 0.04841 0.08523 0.17871 0.15135 0.32471 0.16478l0.11216 0.01032v0.46141l-0.11933 0.0097c-0.15435 0.01257-0.26416 0.07324-0.31628 0.17474-0.03559 0.06931-0.03968 0.11797-0.04997 0.59449-0.01203 0.55736-0.02164 0.61764-0.11923 0.74743-0.0934 0.12423-0.36785 0.21414-0.65555 0.21475l-0.19464 3.25e-4zm-4.5724-0.4922c-0.02558-0.0046-0.09674-0.01736-0.15813-0.02834-0.15294-0.02737-0.39102-0.14738-0.49654-0.25029-0.19104-0.18632-0.29581-0.41747-0.33259-0.7338-0.04155-0.35742 0.03295-0.71718 0.19984-0.96497 0.14044-0.20852 0.3545-0.35401 0.59765-0.4062 0.12608-0.02706 0.40114-0.02722 0.52836-2.75e-4 0.25563 0.05408 0.47158 0.2216 0.59432 0.46106 0.09626 0.18778 0.12746 0.3369 0.12746 0.60919v0.22998h-1.5231l0.0092 0.07077c0.03026 0.23164 0.08717 0.35312 0.22169 0.47325 0.11626 0.10382 0.21813 0.13539 0.43678 0.13539 0.20441 0 0.4083-0.04515 0.587-0.12998l0.11296-0.05362 0.07446 0.38868-0.12354 0.05777c-0.06795 0.03177-0.18885 0.07471-0.26868 0.09543-0.13902 0.03607-0.48965 0.06353-0.5872 0.04598zm0.55348-1.5462c-0.01933-0.24426-0.14761-0.41331-0.35124-0.46286-0.3172-0.0772-0.5847 0.13363-0.64126 0.50543l-0.0122 0.08021h1.0144zm1.1816 1.5388c-0.27573-0.03183-0.57111-0.13115-0.55561-0.18682 0.0047-0.01694 0.01871-0.10935 0.0311-0.20537s0.02586-0.17457 0.02993-0.17457c0.0041 0 0.03995 0.01685 0.07973 0.03743 0.21599 0.11179 0.64329 0.18126 0.81802 0.13298 0.1661-0.04589 0.25755-0.20427 0.19943-0.3454-0.03818-0.0927-0.12329-0.14501-0.46239-0.28418-0.32202-0.13216-0.44201-0.20247-0.55179-0.32329-0.1863-0.20504-0.17739-0.62559 0.01743-0.82324 0.16852-0.17096 0.38845-0.23284 0.77983-0.21943 0.26771 0.0092 0.41055 0.03681 0.61111 0.11822l0.073009 0.02964-0.064319 0.18256c-0.03537 0.10041-0.066 0.18427-0.06806 0.18635-0.0021 0.0021-0.07058-0.0202-0.15228-0.04953-0.46302-0.16622-0.82734-0.10168-0.82734 0.14656 0 0.11699 0.10743 0.19318 0.45899 0.32551 0.38565 0.14517 0.56179 0.26372 0.65329 0.43971 0.04597 0.08842 0.05042 0.11528 0.05042 0.30457 0 0.18864-0.0047 0.21732-0.05154 0.31407-0.086799 0.17931-0.25112 0.30689-0.46965 0.36463-0.13273 0.03507-0.42631 0.04958-0.59932 0.02961zm1.7859 0c-0.17452-0.02014-0.30368-0.05146-0.44321-0.10744l-0.11267-0.04521 0.02714-0.20233c0.01493-0.11128 0.02924-0.20505 0.03181-0.20837 0.0026-0.0033 0.03836 0.0114 0.07953 0.03271 0.21709 0.11235 0.6449 0.18284 0.81853 0.13486 0.1157-0.03197 0.20757-0.12364 0.22028-0.21981 0.02235-0.16905-0.07268-0.24955-0.49003-0.41511-0.5368-0.21295-0.69357-0.39054-0.67193-0.76117 0.01827-0.31288 0.18748-0.49758 0.53074-0.57932 0.09639-0.02295 0.18869-0.02779 0.39548-0.02073 0.26981 0.0092 0.37183 0.02808 0.5809 0.10744l0.10597 0.04022-0.06489 0.18186c-0.03569 0.10002-0.06676 0.18358-0.06904 0.18568-0.0023 0.0021-0.08849-0.02486-0.19157-0.05991-0.32725-0.11128-0.59016-0.10747-0.72021 0.01041-0.0504 0.04568-0.05973 0.06735-0.05973 0.13864 0 0.14143 0.06612 0.18854 0.49519 0.35282 0.53126 0.2034 0.68178 0.3761 0.66366 0.76144-0.01016 0.21601-0.05838 0.3364-0.18154 0.45328-0.10375 0.09846-0.20186 0.1526-0.3451 0.19045-0.13273 0.03507-0.42631 0.04957-0.59932 0.0296z" enable-background="new" fill="#fff" stroke-width=".018737"/>
</svg>
