<svg width="64" height="64" version="1.1" viewBox="0 0 16.933 16.933" xmlns="http://www.w3.org/2000/svg">
 <defs>
  <linearGradient id="a" x1="49.571" x2="51.714" y1="52.714" y2="54.857" gradientTransform="matrix(2.3333,0,0,2.3333,-68.667,-72.001)" gradientUnits="userSpaceOnUse">
   <stop offset="0"/>
   <stop stop-opacity="0" offset="1"/>
  </linearGradient>
 </defs>
 <g transform="scale(.26458)">
  <rect x="8" y="4" width="48" height="56" ry="5" fill="#f4f4f4" style="paint-order:stroke fill markers"/>
  <path d="m56 46-14 14h9c2.77 0 5-2.23 5-5z" fill="url(#a)" fill-rule="evenodd" opacity=".1" stroke-width="8.8191" style="paint-order:stroke fill markers"/>
 </g>
 <g transform="matrix(.066145 0 0 .066145 -1.7198 -2.2489)" enable-background="new">
  <path d="m152 104c-13.296 0-24 5.352-24 12v16h24v4h-44c-6.648 0-12 10.704-12 24v4c0 13.296 5.352 24 12 24h16v-12s0-16 16-16h32s8 0 8-8v-36c0-6.648-10.704-12-24-12zm-12 8c2.2091 0 4 1.7909 4 4s-1.7909 4-4 4-4-1.7909-4-4 1.7909-4 4-4z" fill="#347ab4"/>
  <path d="m156 220c13.296 0 24-5.352 24-12v-16h-24v-4h44c6.648 0 12-10.704 12-24v-4c0-13.296-5.352-24-12-24h-16v16c0 12-12 12-12 12h-32c-12 0-12 12-12 12v32c0 6.648 10.704 12 24 12zm12-12c-2.2091 0-4-1.7909-4-4s1.7909-4 4-4 4 1.7909 4 4-1.7909 4-4 4z" fill="#ffd43b"/>
 </g>
</svg>
