<svg width="64" height="64" version="1.1" viewBox="0 0 16.933 16.933" xmlns="http://www.w3.org/2000/svg">
 <defs>
  <linearGradient id="a" x1="49.571" x2="51.714" y1="52.714" y2="54.857" gradientTransform="matrix(2.3333,0,0,2.3333,-68.667,-72.001)" gradientUnits="userSpaceOnUse">
   <stop offset="0"/>
   <stop stop-opacity="0" offset="1"/>
  </linearGradient>
 </defs>
 <g transform="scale(.26458)">
  <rect x="8" y="4" width="48" height="56" ry="5" fill="#f4f4f4" style="paint-order:stroke fill markers"/>
  <path d="m56 46-14 14h9c2.77 0 5-2.23 5-5z" fill="url(#a)" fill-rule="evenodd" opacity=".1" stroke-width="8.8191" style="paint-order:stroke fill markers"/>
 </g>
 <path d="m8.4668 4.4978c-0.03837 0-0.07678 0.01695-0.09758 0.05072l-0.20644 0.33356-0.09724 0.0095-0.26742-0.2868c-0.0542-0.05799-0.16367-0.03653-0.19146 0.03816l-0.13702 0.36646-0.09448 0.0286-0.31754-0.22849c-0.06452-0.0466-0.16768-0.0037-0.18043 0.07466l-0.06305 0.38644-0.08673 0.04652-0.3563-0.16244c-0.07241-0.0331-0.16538 0.02912-0.16234 0.10852l0.01369 0.39213-0.07527 0.06192-0.38188-0.09008c-0.07757-0.01807-0.15645 0.06065-0.13823 0.13822l0.09 0.38197-0.06184 0.0751-0.39213-0.0137c-0.0791-0.0023-0.14137 0.08986-0.10843 0.16243l0.16243 0.35638-0.04651 0.08673-0.38636 0.06287c-0.07849 0.01274-0.12106 0.1159-0.07475 0.18043l0.22858 0.31736-0.02868 0.09465-0.36646 0.13694c-0.07439 0.02778-0.09621 0.13718-0.03807 0.19154l0.28671 0.26733-0.0095 0.09715-0.33356 0.20653c-0.06756 0.04175-0.06756 0.15356 0 0.19516l0.33356 0.20644 0.0095 0.09714-0.28671 0.26742c-0.05814 0.0542-0.03632 0.16352 0.03807 0.19145l0.36646 0.13703 0.02868 0.09457-0.22858 0.31745c-0.04645 0.06467-0.0036 0.16783 0.07484 0.18043l0.38627 0.06278 0.04651 0.08689-0.16243 0.35631c-0.03309 0.07241 0.02934 0.16553 0.10843 0.16234l0.39204-0.01378 0.06192 0.07536-0.09 0.38196c-0.01822 0.07743 0.06066 0.15611 0.13823 0.1379l0.38188-0.08992 0.07527 0.06174-0.01369 0.39222c-3e-3 0.0794 0.08993 0.14153 0.16234 0.10843l0.3563-0.16244 0.08673 0.0466 0.06304 0.38618c0.01275 0.07864 0.11591 0.12114 0.18043 0.07484l0.31737-0.22874 0.09456 0.02876 0.13702 0.36638c0.02778 0.07438 0.13726 0.09627 0.19145 0.03798l0.26742-0.28662 0.09723 0.0097 0.20644 0.33356c0.0416 0.06724 0.15341 0.0674 0.19516 0l0.20653-0.33356 0.09715-0.0097 0.26733 0.28662c0.0542 0.0583 0.16367 0.0364 0.19146-0.03798l0.13694-0.36638 0.09465-0.02876 0.31746 0.22874c0.06452 0.0463 0.16759 0.0037 0.18034-0.07484l0.06304-0.38618 0.08673-0.0466 0.3563 0.16244c0.07241 0.0331 0.16523-0.02888 0.16234-0.10843l-0.0137-0.39222 0.07519-0.06174 0.38196 0.08992c0.07758 0.01821 0.15628-0.06047 0.13806-0.1379l-0.09-0.38196 0.06184-0.07536 0.39213 0.01378c0.07909 0.0032 0.14159-0.08993 0.10834-0.16234l-0.16234-0.35631 0.04651-0.08689 0.38636-0.06278c0.07864-0.0126 0.12128-0.11576 0.07467-0.18044l-0.22857-0.31745 0.02868-0.09457 0.36646-0.13703c0.07454-0.02793 0.09628-0.13725 0.03798-0.19145l-0.28662-0.26742 0.0095-0.09714 0.33356-0.20644c0.06756-0.0416 0.06763-0.15341 6.6e-5 -0.19516l-0.33356-0.20653-0.0095-0.09715 0.28662-0.26733c0.0583-0.05436 0.03647-0.16376-0.03807-0.19154l-0.36638-0.13694-0.02868-0.09465 0.22858-0.31736c0.04661-0.06453 0.0038-0.16752-0.07467-0.18043l-0.38644-0.06287-0.04642-0.08673 0.16234-0.35638c0.03325-0.07257-0.02849-0.16547-0.10835-0.16243l-0.39213 0.01369-0.06201-0.0751 0.09017-0.38197c0.01822-0.07757-0.06057-0.15644-0.13814-0.13822l-0.38188 0.09008-0.07527-0.06192 0.01378-0.39213c3e-3 -0.0794-0.08993-0.14147-0.16235-0.10852l-0.3563 0.16244-0.08673-0.04652-0.06304-0.38644c-0.01275-0.07833-0.11583-0.12113-0.18034-0.07466l-0.31763 0.22849-0.09448-0.0286-0.13694-0.36646c-0.02778-0.07469-0.13726-0.09615-0.19146-0.03816l-0.26733 0.2868-0.09724-0.0095-0.20644-0.33356c-0.02088-0.03377-0.05921-0.05072-0.09758-0.05072zm-0.01266 0.69916c0.11799 0 0.23604 0.07864 0.23598 0.23597-1.33e-4 0.31444-0.47176 0.31444-0.47188 0-6.6e-5 -0.15733 0.11791-0.23597 0.2359-0.23597zm0.54758 0.38868c0.83865 0.15709 1.5658 0.67494 1.9884 1.4162l-0.27827 0.62844c-0.04805 0.10878 9.25e-4 0.23602 0.10938 0.28422l0.53578 0.23796c0.01666 0.16758 0.01869 0.33632 0.0061 0.50426h-0.29799c-0.02983 0-0.04177 0.0196-0.04177 0.04883v0.13685c0 0.32215-0.18171 0.39221-0.34088 0.41004-0.15159 0.01708-0.31964-0.06347-0.34037-0.15623-0.08942-0.50296-0.23838-0.61038-0.47368-0.79596 0.29201-0.18544 0.59581-0.45899 0.59581-0.82516 0-0.3954-0.27102-0.64447-0.45577-0.7666-0.25922-0.17086-0.5462-0.18694-0.62363-0.18694h-3.0821c0.42606-0.4761 0.99721-0.81662 1.625-0.93527l0.36328 0.38119c0.08213 0.086 0.21818 0.08918 0.30411 7e-3zm-3.3619 1.7473c0.11799 0 0.23596 0.07864 0.2359 0.23598-1.32e-4 0.31443-0.47176 0.31443-0.47188 0-6.6e-5 -0.15733 0.11799-0.23598 0.23598-0.23598zm5.6286 0.01103c0.11799 0 0.23604 0.07864 0.23598 0.23598-1.32e-4 0.31443-0.47176 0.31443-0.47188 0-6.6e-5 -0.15734 0.11791-0.23598 0.2359-0.23598zm-5.1335 0.09339h0.34734l-1e-3 1.8386h-0.80853c-0.10251-0.36007-0.13445-0.77473-0.09405-1.1469l0.50822-0.22581c0.10855-0.0482 0.15758-0.17544 0.10938-0.28421zm1.5685 0h1.073c0.05063 0 0.3575 0.02038 0.3575 0.24985 0 0.19051-0.23534 0.2843-0.4289 0.2843h-1.0016v-0.53424zm0 1.221h0.85609c0.06854 0 0.36645 0.0959 0.46171 0.47671 0.02983 0.11712 0.09534 0.49812 0.14013 0.6201 0.04463 0.13678 0.22639 0.42967 0.42003 0.42967h1.2256c-0.0822 0.11002-0.17214 0.19441-0.26905 0.2917l-0.49892-0.10723c-0.11621-0.0249-0.23046 0.04901-0.25536 0.16545l-0.11842 0.55258c-0.77058 0.34905-1.6551 0.34489-2.4223-0.01155l-0.11834-0.55266c-0.0249-0.11628-0.13922-0.19033-0.25536-0.16536l-0.48781 0.10473c-0.09064-0.09335-0.17493-0.17302-0.25226-0.27767h2.3375v-0.91584h-0.7632zm-0.99706 1.999c0.11799 0 0.23604 0.07865 0.23598 0.23598-1.32e-4 0.31443-0.47175 0.31443-0.47188 0-6.6e-5 -0.15734 0.11791-0.23598 0.2359-0.23598zm3.4956 0.01094c0.11799 0 0.23596 0.07873 0.2359 0.23606-1.32e-4 0.31444-0.47176 0.31444-0.47188 0-6.6e-5 -0.15734 0.11799-0.23606 0.23598-0.23606z" enable-background="new" fill="#666" stroke-width=".03816"/>
</svg>
