<?xml version="1.0" encoding="UTF-8"?>
<svg width="64" height="64" version="1.1" viewBox="0 0 64 64" xmlns="http://www.w3.org/2000/svg" xmlns:cc="http://creativecommons.org/ns#" xmlns:dc="http://purl.org/dc/elements/1.1/" xmlns:rdf="http://www.w3.org/1999/02/22-rdf-syntax-ns#">
 <metadata>
  <rdf:RDF>
   <cc:Work rdf:about="">
    <dc:format>image/svg+xml</dc:format>
    <dc:type rdf:resource="http://purl.org/dc/dcmitype/StillImage"/>
    <dc:title/>
   </cc:Work>
  </rdf:RDF>
 </metadata>
 <defs>
  <linearGradient id="a" x1="49.571" x2="51.714" y1="52.714" y2="54.857" gradientTransform="matrix(2.3333,0,0,2.3333,-68.667,-72.001)" gradientUnits="userSpaceOnUse">
   <stop offset="0"/>
   <stop stop-opacity="0" offset="1"/>
  </linearGradient>
 </defs>
 <g transform="scale(1)">
  <rect x="8" y="4" width="48" height="56" ry="5" fill="#e6446d" style="paint-order:stroke fill markers"/>
  <path d="m56 46-14 14h9c2.77 0 5-2.23 5-5z" fill="url(#a)" fill-rule="evenodd" opacity=".15" stroke-width="8.8191" style="paint-order:stroke fill markers"/>
 </g>
 <g fill="#e6446d" stroke-width=".82304" aria-label="P">
  <path d="m32.247 22.668v9.0182h4.0831q2.2666 0 3.5044-1.1735t1.2378-3.3436q0-2.1541-1.2378-3.3276t-3.5044-1.1735zm-3.2472-2.6685h7.3303q4.0349 0 6.0925 1.8326 2.0737 1.8165 2.0737 5.337 0 3.5526-2.0737 5.3691-2.0576 1.8165-6.0925 1.8165h-4.0831v9.6451h-3.2472z" fill="#fff" stroke-width=".82304"/>
 </g>
 <circle cx="23.5" cy="30.5" r="1.5" fill="#fff" style="paint-order:normal"/>
</svg>
