<?xml version="1.0" encoding="UTF-8"?>
<svg width="64" height="64" version="1.1" viewBox="0 0 16.933 16.933" xmlns="http://www.w3.org/2000/svg" xmlns:cc="http://creativecommons.org/ns#" xmlns:dc="http://purl.org/dc/elements/1.1/" xmlns:rdf="http://www.w3.org/1999/02/22-rdf-syntax-ns#">
 <metadata>
  <rdf:RDF>
   <cc:Work rdf:about="">
    <dc:format>image/svg+xml</dc:format>
    <dc:type rdf:resource="http://purl.org/dc/dcmitype/StillImage"/>
    <dc:title/>
   </cc:Work>
  </rdf:RDF>
 </metadata>
 <defs>
  <linearGradient id="a" x1="49.571" x2="51.714" y1="52.714" y2="54.857" gradientTransform="matrix(2.3333,0,0,2.3333,-68.667,-72.001)" gradientUnits="userSpaceOnUse">
   <stop offset="0"/>
   <stop stop-opacity="0" offset="1"/>
  </linearGradient>
 </defs>
 <g transform="scale(.26458)">
  <rect x="8" y="4" width="48" height="56" ry="5" fill="#808080" style="paint-order:stroke fill markers"/>
  <path d="m56 46-14 14h9c2.77 0 5-2.23 5-5z" fill="url(#a)" fill-rule="evenodd" opacity=".15" stroke-width="8.8191" style="paint-order:stroke fill markers"/>
 </g>
 <path transform="scale(.26458)" d="m32 18c-0.554 0-1 0.45403-1 1.0176v15.566l-6.7793-6.7773c-0.39174-0.39174-1.0223-0.39174-1.4141 0-0.39174 0.39174-0.39174 1.0223 0 1.4141l8.4844 8.4863h0.001953c0.058378 0.058186 0.1299 0.09003 0.19726 0.13086 0.043662 0.026981 0.079196 0.063956 0.12695 0.083984 0.002126 8.83e-4 0.003728 0.003039 0.005859 0.003906h0.001953c0.12034 0.048967 0.24719 0.074219 0.375 0.074219 0.13007 0 0.25866-0.027408 0.38086-0.078125 0.066903-0.027907 0.1191-0.075909 0.17774-0.11719 0.049063-0.033986 0.10467-0.053893 0.14844-0.097657l8.4863-8.4863c0.39174-0.39174 0.39174-1.0223 0-1.4141-0.39174-0.39174-1.0243-0.39174-1.416 0l-6.7773 6.7773v-15.566c0-0.56355-0.446-1.0176-1-1.0176zm-12 20v2c0 2.216 1.784 4 4 4h16c2.216 0 4-1.784 4-4v-2h-2v2c0 1.108-0.892 2-2 2h-16c-1.108 0-2-0.892-2-2v-2h-2z" fill="#fff" style="paint-order:stroke fill markers"/>
</svg>
