<svg width="64" height="64" version="1.1" xmlns="http://www.w3.org/2000/svg">
 <defs>
  <linearGradient id="a" x1="49.571" x2="51.714" y1="52.714" y2="54.857" gradientTransform="matrix(2.3333,0,0,2.3333,-68.667,-72.001)" gradientUnits="userSpaceOnUse">
   <stop offset="0"/>
   <stop stop-opacity="0" offset="1"/>
  </linearGradient>
 </defs>
 <rect x="8" y="4" width="48" height="56" ry="5" fill="#f4f4f4" style="paint-order:stroke fill markers"/>
 <path d="m56 46-14 14h9c2.77 0 5-2.23 5-5z" fill="url(#a)" fill-rule="evenodd" opacity=".1" stroke-width="8.8191" style="paint-order:stroke fill markers"/>
 <path d="m26.375 44c2.845-2.962 5.445-6.041 5.777-6.843 0.332-0.801 1.64-2.385 2.909-3.518 3.32-2.966 5.256-2.733 6.922 0.832 0.425 0.909 1.01 1.652 1.3 1.652 0.662 0 3.717-2.974 3.717-3.62 0-0.835-1.568-2.275-2.477-2.275-0.96 0-1.878-1.377-1.878-2.815 0-1.09-3-4.124-5.177-5.236-1.038-0.53-2.825-0.791-5.415-0.791-3.917 0-5.554 0.649-3.047 1.208 0.753 0.168 2.17 0.975 3.15 1.795 2.52 2.11 2.419 3.695-0.457 7.112-1.23 1.461-2.537 2.657-2.906 2.657-0.815 0-11.793 10.207-11.793 10.964 0 0.572 3.37 4.264 3.893 4.264 0.17 0 2.637-2.423 5.482-5.386z" color="#000000" fill="#919caf" overflow="visible" solid-color="#000000" style="isolation:auto;mix-blend-mode:normal"/>
</svg>
