<svg width="64" height="64" version="1.1" xmlns="http://www.w3.org/2000/svg">
 <defs>
  <linearGradient id="a" x1="49.571" x2="51.714" y1="52.714" y2="54.857" gradientTransform="matrix(2.3333,0,0,2.3333,-68.667,-72.001)" gradientUnits="userSpaceOnUse">
   <stop offset="0"/>
   <stop stop-opacity="0" offset="1"/>
  </linearGradient>
 </defs>
 <rect x="8" y="4" width="48" height="56" ry="5" fill="#f4f4f4" style="paint-order:stroke fill markers"/>
 <path d="m56 46-14 14h9c2.77 0 5-2.23 5-5z" fill="url(#a)" fill-rule="evenodd" opacity=".1" stroke-width="8.8191" style="paint-order:stroke fill markers"/>
 <g transform="translate(-.5 6.5)">
  <path d="m18 26h16c1.108 0 2 0.892 2 2v16c0 1.108-0.892 2-2 2h-16c-1.108 0-2-0.892-2-2v-16c0-1.108 0.892-2 2-2z" fill="#e6e6e6"/>
  <path d="m23.768 28.964a0.315 0.317 0 0 0-0.304 0.292l-0.048 0.452c-0.047 0.385-0.084 0.714-0.11 0.986a0.315 0.317 0 0 0 0 2e-3l-0.048 0.508a0.315 0.317 0 0 0 0 2e-3l-8e-3 0.08c-0.507 0.03-1.025 0.051-1.573 0.051-0.423 0-0.853-0.014-1.288-0.045a0.315 0.317 0 0 0-0.336 0.343l0.103 1.135a0.315 0.317 0 0 0 0.294 0.288c0.18 0.011 0.41 0.018 0.699 0.018 0.627 0 1.293-0.036 1.971-0.082a41.979 41.979 0 0 0-0.114 1.994c-0.452 0.254-0.854 0.493-1.143 0.705a0.315 0.317 0 0 0-4e-3 2e-3c-1.676 1.27-2.566 2.755-2.566 4.397 0 0.609 0.13 1.113 0.437 1.474 0.306 0.361 0.776 0.534 1.316 0.534 0.745 0 1.515-0.305 2.301-0.788 0.038 0.234 0.088 0.545 0.105 0.637a0.315 0.317 0 0 0 0.42 0.242l1.169-0.436a0.315 0.317 0 0 0 0.193-0.38 9.212 9.212 0 0 1-0.243-1.325c1.276-1.242 2.305-2.795 3.11-4.625 0.549 0.086 1.023 0.235 1.402 0.468a0.315 0.317 0 0 0 2e-3 2e-3c0.862 0.521 1.251 1.205 1.251 2.181 0 0.945-0.423 1.663-1.368 2.256-0.738 0.467-1.755 0.781-3.055 0.92a0.315 0.317 0 0 0-0.23 0.489l0.694 1.08a0.315 0.317 0 0 0 0.308 0.14c1.556-0.222 2.806-0.668 3.736-1.361 1.185-0.884 1.81-2.085 1.81-3.508 0-1.294-0.522-2.39-1.524-3.193a0.315 0.317 0 0 0-4e-3 -2e-3c-0.633-0.494-1.476-0.791-2.459-0.962 0.058-0.178 0.132-0.386 0.158-0.506a0.315 0.317 0 0 0-0.237-0.377l-1.192-0.278a0.315 0.317 0 0 0-0.377 0.232c-0.085 0.339-0.16 0.602-0.235 0.85-0.719 0.077-1.362 0.21-1.95 0.384 0.021-0.488 0.048-0.959 0.09-1.393 1.655-0.181 3.203-0.445 4.625-0.805a0.315 0.317 0 0 0 0.237-0.343l-0.126-1.12a0.315 0.317 0 0 0-0.397-0.27c-1.39 0.384-2.78 0.644-4.168 0.812 0.056-0.53 0.117-1.075 0.197-1.72a0.315 0.317 0 0 0-0.292-0.355l-1.2-0.08a0.315 0.317 0 0 0-0.03-2e-3zm2.303 6.592a12.162 12.162 0 0 1-1.267 2.091c-0.02-0.52-0.04-1.026-0.042-1.736 0.417-0.16 0.863-0.258 1.309-0.355zm-3.063 1.385c0.02 0.938 0.051 1.814 0.108 2.478-0.693 0.611-1.317 0.911-1.857 0.911-0.096 0-0.106-0.015-0.114-0.024s-0.036-0.055-0.036-0.182c0-0.07-0.013-0.135-0.026-0.2 8e-3 -0.052 0.026-0.106 0.026-0.158l-2e-3 0.024c0.056-0.72 0.46-1.493 1.27-2.317a0.315 0.317 0 0 0 3e-3 -4e-3c0.221-0.235 0.42-0.362 0.628-0.528z" fill="#999" font-size="16" font-weight="700" letter-spacing="0" word-spacing="0"/>
  <path d="m30 14c-1.108 0-2 0.892-2 2v16c0 1.108 0.892 2 2 2h16c1.108 0 2-0.892 2-2v-16c0-1.108-0.892-2-2-2z" color="#000000" fill="#44a5f3"/>
  <path d="m36.938 18-4.471 12h2.058l1.24-3.6h4.435l1.256 3.6h2.08l-4.472-12zm1.062 1.98 1.79 5.22h-3.614z" color="#000000" fill="#fff"/>
 </g>
</svg>
