<svg width="64" height="64" version="1.1" viewBox="0 0 16.933 16.933" xmlns="http://www.w3.org/2000/svg">
 <defs>
  <clipPath id="a">
   <path d="m102.92 44c-35.297 0-39.095 3.6254-38.922 38.994v146.01c-0.17299 35.368 3.6249 38.994 38.922 38.994h98.157c35.297 0 38.922-3.625 38.922-38.994v-146.01c0-35.369-3.6249-38.994-38.922-38.994z" color="#000000" fill="url(#linearGradient3288)"/>
  </clipPath>
  <linearGradient id="b" x1="49.571" x2="51.714" y1="52.714" y2="54.857" gradientTransform="matrix(2.3333,0,0,2.3333,-68.667,-72.001)" gradientUnits="userSpaceOnUse">
   <stop offset="0"/>
   <stop stop-opacity="0" offset="1"/>
  </linearGradient>
 </defs>
 <g transform="scale(.26458)">
  <rect x="8" y="4" width="48" height="56" ry="5" fill="#f4f4f4" style="paint-order:stroke fill markers"/>
  <path d="m56 46-14 14h9c2.77 0 5-2.23 5-5z" fill="url(#b)" fill-rule="evenodd" opacity=".1" stroke-width="8.8191" style="paint-order:stroke fill markers"/>
 </g>
 <g transform="translate(-7.9617 -24.175)" fill="#999">
  <path d="m16.958 29.467v0.26458h3.1749v-0.26458zm0 0.79373v0.26458h3.1749v-0.26458zm0 0.79374v0.26458h3.1749v-0.26458zm0 0.79373v0.26458h3.1749v-0.26458zm0 0.79373v0.26458h3.1749v-0.26458zm-4.2332 0.79373v0.26458h7.4082v-0.26458zm0 0.79374v0.26458h7.4082v-0.26458zm0 0.79373v0.26458h7.4082v-0.26458zm0 0.79374v0.26458h7.4082v-0.26458zm0 0.79373v0.26458h4.2332v-0.26458z" enable-background="new"/>
  <path d="m14.35 29.202-1.3053 3.4395h-0.32064v0.26458h0.92601v-0.26458h-0.29647l0.30928-0.79429h1.5347l0.30891 0.79429h-0.40052v0.26458h1.3283v-0.26458h-0.36644l-1.3056-3.4395zm0.08025 0.59547 0.67572 1.7863h-1.3401z" color="#bebebe" enable-background="new" font-size="13.717" font-weight="400" letter-spacing="0" overflow="visible" stroke-width=".066145" word-spacing="0"/>
 </g>
</svg>
