<?xml version="1.0" encoding="UTF-8"?>
<svg width="64" height="64" version="1.1" viewBox="0 0 16.933 16.933" xmlns="http://www.w3.org/2000/svg" xmlns:cc="http://creativecommons.org/ns#" xmlns:dc="http://purl.org/dc/elements/1.1/" xmlns:rdf="http://www.w3.org/1999/02/22-rdf-syntax-ns#">
 <metadata>
  <rdf:RDF>
   <cc:Work rdf:about="">
    <dc:format>image/svg+xml</dc:format>
    <dc:type rdf:resource="http://purl.org/dc/dcmitype/StillImage"/>
    <dc:title/>
   </cc:Work>
  </rdf:RDF>
 </metadata>
 <defs>
  <linearGradient id="a" x1="49.571" x2="51.714" y1="52.714" y2="54.857" gradientTransform="matrix(2.3333,0,0,2.3333,-68.667,-72.001)" gradientUnits="userSpaceOnUse">
   <stop offset="0"/>
   <stop stop-opacity="0" offset="1"/>
  </linearGradient>
 </defs>
 <g transform="scale(.26458)">
  <rect x="8" y="4" width="48" height="56" ry="5" fill="#e97cc8" style="paint-order:stroke fill markers"/>
  <path d="m56 46-14 14h9c2.77 0 5-2.23 5-5z" fill="url(#a)" fill-rule="evenodd" opacity=".15" stroke-width="8.8191" style="paint-order:stroke fill markers"/>
 </g>
 <path d="m11.524 8.9419c-0.29537 0.0015-0.55208 0.07268-0.76704 0.17784-0.07887-0.15619-0.15774-0.29537-0.17165-0.39744-0.01546-0.11908-0.03402-0.19176-0.01546-0.33403s0.10206-0.34486 0.10052-0.36032c-0.0016-0.01547-0.01856-0.08815-0.18867-0.08969-0.17011-0.0016-0.31702 0.03247-0.33403 0.07732s-0.04949 0.14691-0.07114 0.25207c-0.02938 0.15464-0.34022 0.70672-0.51806 0.99591-0.05722-0.11289-0.1067-0.21186-0.11753-0.29073-0.01547-0.11908-0.03402-0.19176-0.01547-0.33403 0.01856-0.14227 0.10206-0.34486 0.10052-0.36032-0.0016-0.01546-0.01856-0.08815-0.18867-0.08969-0.17011-0.0015-0.31702 0.03248-0.33403 0.07732-0.01701 0.04485-0.03557 0.15-0.07114 0.25207s-0.44847 1.0237-0.55672 1.2619c-0.05567 0.12217-0.10361 0.2196-0.13763 0.28609 0 0-0.0015 0.0046-0.0062 0.01237-0.02938 0.05722-0.04639 0.08815-0.04639 0.08815v0.0015c-0.0232 0.04175-0.04794 0.08042-0.06031 0.08042-0.0093 0-0.02629-0.11134 0.0031-0.26289 0.06186-0.32011 0.20877-0.81807 0.20722-0.83508 0-0.0093 0.02784-0.09588-0.09588-0.14073-0.12062-0.04485-0.16392 0.02938-0.17475 0.02938s-0.01856 0.02629-0.01856 0.02629 0.13454-0.55981-0.25671-0.55981c-0.24434 0-0.58146 0.26753-0.74848 0.50878-0.10516 0.05722-0.32939 0.17939-0.56909 0.31083-0.09124 0.05103-0.18557 0.10206-0.27372 0.15-0.0062-0.0062-0.01237-0.01392-0.01856-0.0201-0.47321-0.50569-1.3485-0.86291-1.3114-1.5418 0.01392-0.24743 0.09897-0.89694 1.681-1.6856 1.3021-0.64177 2.3382-0.46393 2.5176-0.06959 0.25671 0.5629-0.55517 1.6083-1.9006 1.7598-0.51342 0.05722-0.7825-0.14073-0.85054-0.21496-0.07114-0.07732-0.08196-0.08196-0.10825-0.0665-0.0433 0.0232-0.01546 0.09279 0 0.13299 0.04021 0.10516 0.20568 0.29073 0.48558 0.38197 0.24743 0.08041 0.849 0.12526 1.5774-0.15619 0.81498-0.31548 1.4521-1.1923 1.265-1.9269-0.18712-0.74538-1.4243-0.99127-2.5949-0.57528-0.6959 0.24743-1.4506 0.63713-1.9934 1.1444-0.64486 0.60311-0.74693 1.1274-0.70518 1.3469 0.15 0.7794 1.2248 1.2866 1.6547 1.6624-0.02165 0.01237-0.04175 0.0232-0.05877 0.03248-0.21496 0.1067-1.0346 0.53507-1.2387 0.98817-0.23197 0.51342 0.03712 0.88147 0.21496 0.93096 0.55208 0.1531 1.1196-0.12217 1.4243-0.57682 0.30465-0.45465 0.26753-1.0454 0.12681-1.316-0.0015-0.0031-0.0031-0.0062-0.0062-0.0093 0.05567-0.03247 0.11289-0.0665 0.16856-0.09897 0.1098-0.06495 0.21805-0.12526 0.31083-0.17475-0.05258 0.14382-0.09124 0.31547-0.1098 0.5629-0.0232 0.29073 0.09588 0.66806 0.25207 0.81652 0.06959 0.06495 0.15155 0.0665 0.20413 0.0665 0.18248 0 0.26444-0.15155 0.35568-0.33094 0.11134-0.21959 0.21186-0.47476 0.21186-0.47476s-0.12526 0.68971 0.21496 0.68971c0.12372 0 0.24898-0.16083 0.30465-0.24279v0.0015s0.0031-0.0046 0.0093-0.01546c0.01237-0.02011 0.02011-0.03248 0.02011-0.03248v-0.0031c0.04949-0.0866 0.16083-0.283 0.3263-0.6093 0.21341-0.42063 0.41909-0.94642 0.41909-0.94642s0.01856 0.12835 0.08196 0.34176c0.03711 0.12526 0.11444 0.2629 0.17629 0.39589-0.04949 0.06959-0.08041 0.10825-0.08041 0.10825l0.0016 0.0016c-0.04021 0.05258-0.08351 0.1098-0.13145 0.16547-0.16856 0.20104-0.3696 0.43146-0.39743 0.49795-0.03248 0.07887-0.02474 0.13609 0.03712 0.18248 0.04485 0.03402 0.12526 0.03866 0.20722 0.03402 0.15155-0.01083 0.25826-0.04794 0.31083-0.07114 0.08196-0.02938 0.17784-0.07423 0.26754-0.14073 0.16547-0.12217 0.26599-0.29692 0.25671-0.52733-0.0046-0.12681-0.04639-0.25362-0.09743-0.37269 0.01546-0.02165 0.02938-0.0433 0.04485-0.06495 0.26135-0.38197 0.46393-0.80106 0.46393-0.80106s0.01856 0.12836 0.08196 0.34176c0.03093 0.10825 0.09433 0.22578 0.15 0.34022-0.24588 0.19949-0.39744 0.43146-0.45156 0.58301-0.09743 0.28145-0.02165 0.40826 0.12217 0.43764 0.06495 0.01392 0.15774-0.01701 0.22578-0.04639 0.0866-0.02784 0.18866-0.07578 0.28609-0.14691 0.16547-0.12217 0.32475-0.29228 0.31548-0.5227-0.0046-0.10516-0.03248-0.20877-0.07114-0.30929 0.20877-0.0866 0.47785-0.13454 0.82116-0.09433 0.7361 0.0866 0.88147 0.54589 0.85363 0.7392s-0.18248 0.29846-0.23351 0.33094c-0.05103 0.03247-0.06804 0.0433-0.0634 0.0665 0.0062 0.03402 0.03093 0.03248 0.07423 0.02629 0.06031-0.01083 0.38661-0.15619 0.40053-0.51187 0.0232-0.45465-0.40981-0.95106-1.1753-0.94642zm-5.6785 1.9145c-0.24434 0.26599-0.58455 0.36651-0.73147 0.28145-0.15774-0.09124-0.09588-0.48404 0.20413-0.76549 0.18248-0.17166 0.41754-0.33094 0.57373-0.42836 0.03557-0.02165 0.08815-0.05258 0.15155-0.09124 0.01083-0.0062 0.01701-0.0093 0.01701-0.0093 0.01237-0.0077 0.02474-0.01546 0.03711-0.0232 0.1098 0.40207 0.0046 0.75621-0.25207 1.0361zm1.7784-1.2093c-0.08505 0.20722-0.2629 0.73765-0.37114 0.70827-0.09279-0.02474-0.15-0.42682-0.01856-0.82425 0.0665-0.19949 0.20722-0.43764 0.28918-0.53043 0.13299-0.14846 0.27991-0.19794 0.31547-0.13763 0.04485 0.07887-0.16238 0.65414-0.21496 0.78404zm1.4676 0.70208c-0.03557 0.01856-0.06959 0.03093-0.08505 0.02165-0.01083-0.0062 0.01546-0.03093 0.01546-0.03093s0.18403-0.19794 0.25671-0.28764c0.04175-0.05258 0.09124-0.11444 0.14382-0.18403v0.0201c0 0.23661-0.22887 0.39589-0.33094 0.46084zm1.132-0.25825c-0.02629-0.01856-0.02165-0.08042 0.0665-0.27372 0.03402-0.07578 0.11444-0.20258 0.25207-0.32475 0.01546 0.04949 0.02629 0.09742 0.02474 0.14227-0.0015 0.29846-0.21496 0.40981-0.34331 0.4562z" enable-background="new" fill="#fff" stroke-width=".015464"/>
</svg>
