<?xml version="1.0" encoding="UTF-8"?>
<svg width="64" height="64" version="1.1" viewBox="0 0 16.933 16.933" xmlns="http://www.w3.org/2000/svg" xmlns:cc="http://creativecommons.org/ns#" xmlns:dc="http://purl.org/dc/elements/1.1/" xmlns:rdf="http://www.w3.org/1999/02/22-rdf-syntax-ns#">
 <metadata>
  <rdf:RDF>
   <cc:Work rdf:about="">
    <dc:format>image/svg+xml</dc:format>
    <dc:type rdf:resource="http://purl.org/dc/dcmitype/StillImage"/>
    <dc:title/>
   </cc:Work>
  </rdf:RDF>
 </metadata>
 <defs>
  <linearGradient id="a" x1="49.571" x2="51.714" y1="52.714" y2="54.857" gradientTransform="matrix(2.3333,0,0,2.3333,-68.667,-72.001)" gradientUnits="userSpaceOnUse">
   <stop offset="0"/>
   <stop stop-opacity="0" offset="1"/>
  </linearGradient>
 </defs>
 <g transform="scale(.26458)">
  <rect x="8" y="4" width="48" height="56" ry="5" fill="#4d4d4d" style="paint-order:stroke fill markers"/>
  <path d="m56 46-14 14h9c2.77 0 5-2.23 5-5z" fill="url(#a)" fill-rule="evenodd" opacity=".2" stroke-width="8.8191" style="paint-order:stroke fill markers"/>
 </g>
 <path d="m9.4858 6.0859v0.15563h0.10376c0.27626 0 0.37147 0.03574 0.4669 0.17639l0.92343 1.4007-0.83005 1.2139c-0.07032 0.10046-0.21898 0.33202-0.72629 0.33202v0.15563l0.56028-0.02076c0.18585 0 0.46246 0.0057 0.64329 0.02076v-0.15563c-0.23106-5e-3 -0.32164-0.14823-0.32164-0.23864 0-0.0452 0.01672-0.05888 0.05188-0.11413l0.71592-1.0583 0.78854 1.2036c0.01005 0.02008 0.03113 0.03681 0.03113 0.05188 0 0.06027-0.11603 0.15061-0.33202 0.15563v0.15563c0.1758-0.01507 0.5458-0.02076 0.73667-0.02076l0.65366 0.02076v-0.15563h-0.09338c-0.26119 0-0.3718-0.03105-0.47728-0.18676l-1.0583-1.5978 0.68479-1.0064c0.1105-0.16073 0.28962-0.327 0.73667-0.33202v-0.15563l-0.56028 0.02075c-0.20092 0-0.44237-0.0057-0.64329-0.02075v0.15563c0.20092 5e-3 0.31127 0.11274 0.31127 0.22826 0 0.05023-0.0063 0.06925-0.0415 0.12451l-0.58104 0.84042-0.64329-0.96493c-0.01005-0.01507-0.03113-0.05254-0.03113-0.07263 0-0.06028 0.10566-0.15061 0.32164-0.15563v-0.15563c-0.1758 0.01507-0.5458 0.02075-0.73667 0.02075zm-5.4107 0-0.09338 1.1309h0.12451c0.07032-0.80869 0.14421-0.97531 0.90268-0.97531 0.09041 0 0.21954 3.25e-4 0.26977 0.01037 0.10548 0.02009 0.11413 0.07123 0.11413 0.18676v2.7037c0 0.17078-0.0018 0.25952-0.52916 0.24902h-0.20752v0.15563c0.20594-0.01507 0.7235-0.02076 0.95456-0.02076s0.74862 0.0057 0.95456 0.02076v-0.15563h-0.20751c-0.52741 0-0.51878-0.07824-0.51878-0.24902v-2.7037c0-0.10046-0.0074-0.16667 0.08301-0.18676 0.05525-0.01004 0.19508-0.01037 0.29052-0.01037 0.75846 0 0.83236 0.16662 0.90268 0.97531h0.12451l-0.09338-1.1309zm2.6944 1.3229v0.15563h0.12451c0.38676 0 0.39427 0.04744 0.39427 0.22826v2.6602c0 0.18082-0.0075 0.23864-0.39427 0.23864h-0.12451v0.15563h2.8948l0.21789-1.297h-0.13488c-0.12557 0.77353-0.23587 1.1413-1.0998 1.1413h-0.66404c-0.23608 0-0.24901-0.04176-0.24901-0.20751v-1.3509h0.44615c0.48722 0 0.54991 0.16446 0.54991 0.59141h0.12451v-1.3385h-0.12451c0 0.43197-0.06268 0.59141-0.54991 0.59141h-0.44615v-1.216c0-0.16576 0.01295-0.19714 0.24901-0.19714h0.64329c0.76851 0 0.90532 0.26674 0.98568 0.96493h0.12451l-0.14526-1.1206z" enable-background="new" fill="#fff"/>
</svg>
