<?xml version="1.0" encoding="UTF-8"?>
<svg width="64" height="64" version="1.1" viewBox="0 0 16.933 16.933" xmlns="http://www.w3.org/2000/svg" xmlns:cc="http://creativecommons.org/ns#" xmlns:dc="http://purl.org/dc/elements/1.1/" xmlns:rdf="http://www.w3.org/1999/02/22-rdf-syntax-ns#">
 <metadata>
  <rdf:RDF>
   <cc:Work rdf:about="">
    <dc:format>image/svg+xml</dc:format>
    <dc:type rdf:resource="http://purl.org/dc/dcmitype/StillImage"/>
    <dc:title/>
   </cc:Work>
  </rdf:RDF>
 </metadata>
 <defs>
  <linearGradient id="a" x1="49.571" x2="51.714" y1="52.714" y2="54.857" gradientTransform="matrix(2.3333,0,0,2.3333,-68.667,-72.001)" gradientUnits="userSpaceOnUse">
   <stop offset="0"/>
   <stop stop-opacity="0" offset="1"/>
  </linearGradient>
 </defs>
 <g transform="scale(.26458)">
  <rect x="8" y="4" width="48" height="56" ry="5" fill="#f2f2f2" style="paint-order:stroke fill markers"/>
  <path d="m56 46-14 14h9c2.77 0 5-2.23 5-5z" fill="url(#a)" fill-rule="evenodd" opacity=".15" stroke-width="8.8191" style="paint-order:stroke fill markers"/>
 </g>
 <path d="m8.5177 10.562q-0.39961 0-0.74799-0.14345-0.33813-0.14345-0.5943-0.40986-0.25616-0.26641-0.39961-0.65577-0.14345-0.39961-0.14345-0.90169 0-0.49183 0.1537-0.87095 0.16394-0.38936 0.43035-0.65577 0.26641-0.27665 0.61479-0.40986 0.34838-0.14345 0.7275-0.14345 0.50208 0 0.80947 0.14345 0.31764 0.1332 0.43035 0.21518l-0.19468 0.46109q-0.1537-0.08197-0.39961-0.17419-0.23567-0.10246-0.64553-0.10246-0.56355 0-0.94267 0.39961-0.36887 0.39961-0.36887 1.1374 0 0.75824 0.35863 1.1681 0.36887 0.39961 0.99391 0.39961 0.4406 0 0.68651-0.09222 0.25616-0.10246 0.36887-0.17419l0.17419 0.49183q-0.1332 0.08197-0.47134 0.20493-0.33813 0.11271-0.84021 0.11271zm3.4223-2.1005q0 0.8812-0.2869 1.5677-0.2869 0.68651-0.76848 1.1681-0.47134 0.47134-1.1066 0.7275-0.62503 0.24592-1.3115 0.24592-0.68651 0-1.3218-0.24592-0.62503-0.25616-1.1066-0.7275-0.47134-0.48158-0.75824-1.1681-0.2869-0.68651-0.2869-1.5677 0-0.87095 0.2869-1.5575 0.2869-0.69676 0.75824-1.1681 0.48158-0.47134 1.1066-0.71725 0.63528-0.25616 1.3218-0.25616 0.68651 0 1.3115 0.25616 0.63528 0.24592 1.1066 0.71725 0.48158 0.47134 0.76848 1.1681 0.2869 0.68651 0.2869 1.5575zm-0.60454 0q0-0.707-0.21518-1.2911-0.21518-0.58405-0.5943-0.99391-0.37912-0.4201-0.91193-0.64553-0.52257-0.22542-1.1476-0.22542t-1.1578 0.22542q-0.52257 0.22542-0.90169 0.64553-0.37912 0.40986-0.59429 0.99391-0.21518 0.58405-0.21518 1.2911t0.21518 1.2911q0.21518 0.58405 0.59429 1.0042 0.37912 0.40986 0.90169 0.64553 0.53282 0.22542 1.1578 0.22542 0.62503 0 1.1476-0.22542 0.53282-0.23567 0.91194-0.64553 0.37912-0.4201 0.5943-1.0042 0.21518-0.58405 0.21518-1.2911z" enable-background="new" fill="#808080"/>
</svg>
