<?xml version="1.0" encoding="UTF-8"?>
<svg width="64" height="64" version="1.1" viewBox="0 0 16.933 16.933" xmlns="http://www.w3.org/2000/svg" xmlns:cc="http://creativecommons.org/ns#" xmlns:dc="http://purl.org/dc/elements/1.1/" xmlns:rdf="http://www.w3.org/1999/02/22-rdf-syntax-ns#">
 <metadata>
  <rdf:RDF>
   <cc:Work rdf:about="">
    <dc:format>image/svg+xml</dc:format>
    <dc:type rdf:resource="http://purl.org/dc/dcmitype/StillImage"/>
    <dc:title/>
   </cc:Work>
  </rdf:RDF>
 </metadata>
 <defs>
  <linearGradient id="a" x1="49.571" x2="51.714" y1="52.714" y2="54.857" gradientTransform="matrix(2.3333,0,0,2.3333,-68.667,-72.001)" gradientUnits="userSpaceOnUse">
   <stop offset="0"/>
   <stop stop-opacity="0" offset="1"/>
  </linearGradient>
 </defs>
 <g transform="scale(.26458)">
  <rect x="8" y="4" width="48" height="56" ry="5" fill="#5884f4" style="paint-order:stroke fill markers"/>
  <path d="m56 46-14 14h9c2.77 0 5-2.23 5-5z" fill="url(#a)" fill-rule="evenodd" opacity=".15" stroke-width="8.8191" style="paint-order:stroke fill markers"/>
 </g>
 <g transform="translate(-22.43 -.41462)" fill="#fff">
  <path d="m29.122 4.6483c-0.20914 2e-3 -0.38722 0.02588-0.53247 0.07299-0.14762 0.0451-0.26644 0.11272-0.35666 0.20294-0.09021 0.08611-0.15389 0.19482-0.19079 0.32604-0.03691 0.13122-0.05529 0.28089-0.05529 0.44902v2.3638c0 0.07381-0.01234 0.1476-0.03695 0.22141-0.0205 0.06971-0.0553 0.13326-0.1045 0.19066-0.04511 0.05331-0.10261 0.09834-0.17232 0.13525-0.06076 0.02859-0.13303 0.04399-0.2156 0.04767v0.44631c0.08257 0.0041 0.15484 0.02131 0.2156 0.05348 0.06971 0.0328 0.12721 0.07797 0.17232 0.13538 0.04921 0.05331 0.084 0.11686 0.1045 0.19066 0.0246 0.06971 0.03695 0.14153 0.03695 0.21534v2.3637c0 0.16812 0.01838 0.31793 0.05529 0.44915 0.0369 0.13122 0.10058 0.24177 0.19079 0.33198s0.20904 0.15796 0.35666 0.20307c0.14525 0.04318 0.32333 0.06507 0.53247 0.06691h0.18731v-0.44967h-0.18731c-0.20656-0.0061-0.35784-0.04836-0.45251-0.12788-0.09841-0.08201-0.14765-0.2418-0.14765-0.47963v-2.2039c0-0.27064-0.0369-0.47979-0.1107-0.62741-0.06971-0.14762-0.17015-0.26237-0.30137-0.34438 0.13122-0.08201 0.23166-0.19689 0.30137-0.34451 0.07381-0.14762 0.1107-0.35677 0.1107-0.62741v-2.2039c0-0.23783 0.04924-0.39762 0.14765-0.47963 0.09467-0.07952 0.24595-0.12191 0.45251-0.12801h0.18731v-0.4494z" enable-background="new"/>
  <path d="m32.484 4.6483v0.4494h0.18731c0.20656 0.0061 0.35784 0.04849 0.45251 0.12801 0.09841 0.08201 0.14765 0.2418 0.14765 0.47963v2.2039c0 0.27064 0.0369 0.47979 0.1107 0.62741 0.06971 0.14762 0.17015 0.2625 0.30137 0.34451-0.13122 0.08201-0.23166 0.19676-0.30137 0.34438-0.07381 0.14762-0.1107 0.35678-0.1107 0.62741v2.2039c0 0.23783-0.04924 0.39762-0.14765 0.47963-0.09467 0.07952-0.24595 0.1218-0.45251 0.12788h-0.18731v0.44966h0.18731c0.20914-0.0018 0.38722-0.02373 0.53247-0.06691 0.14762-0.04511 0.26644-0.11285 0.35666-0.20307 0.09021-0.09021 0.15389-0.20076 0.19079-0.33198 0.03691-0.13122 0.05529-0.28102 0.05529-0.44915v-2.3637c0-0.07381 0.01234-0.14563 0.03694-0.21534 0.0205-0.07381 0.0553-0.13736 0.1045-0.19066 0.04511-0.05741 0.10261-0.10257 0.17232-0.13538 0.06076-0.03216 0.13303-0.04935 0.2156-0.05348v-0.44631c-0.08257-0.0037-0.15484-0.01907-0.2156-0.04767-0.06971-0.0369-0.12721-0.08194-0.17232-0.13525-0.0492-0.05741-0.084-0.12096-0.1045-0.19066-0.0246-0.07381-0.03694-0.1476-0.03694-0.22141v-2.3638c0-0.16812-0.01838-0.3178-0.05529-0.44902-0.0369-0.13122-0.10058-0.23993-0.19079-0.32604-0.09021-0.09021-0.20904-0.15783-0.35666-0.20294-0.14525-0.04711-0.32333-0.07097-0.53247-0.07299z" enable-background="new"/>
 </g>
</svg>
