<svg width="64" height="64" version="1.1" viewBox="0 0 16.933 16.933" xmlns="http://www.w3.org/2000/svg">
 <defs>
  <linearGradient id="a" x1="49.571" x2="51.714" y1="52.714" y2="54.857" gradientTransform="matrix(2.3333,0,0,2.3333,-68.667,-72.001)" gradientUnits="userSpaceOnUse">
   <stop offset="0"/>
   <stop stop-opacity="0" offset="1"/>
  </linearGradient>
 </defs>
 <g transform="scale(.26458)">
  <rect x="8" y="4" width="48" height="56" ry="5" fill="#f4f4f4" style="paint-order:stroke fill markers"/>
  <path d="m56 46-14 14h9c2.77 0 5-2.23 5-5z" fill="url(#a)" fill-rule="evenodd" opacity=".1" stroke-width="8.8191" style="paint-order:stroke fill markers"/>
 </g>
 <g transform="matrix(.066145 0 0 .066145 -1.5875 -1.7198)" enable-background="new">
  <path d="m96 92v4h72v-4zm0 12v4h112v-4zm0 12v4h56v-4z" fill="#5884f4"/>
  <path d="m96 200v4h112v-4zm0 12v4h56v-4z" fill="#b3b3b3"/>
  <path d="m136 128v4h66v-4zm0 12v4h72v-4zm0 12v4h56v-4z" fill="#c43ac4"/>
  <path d="m96 128v4h32v-4zm0 12v4h32v-4zm0 12v4h32v-4z" fill="#8c59d9"/>
  <path d="m136 164v4h72v-4zm0 12v4h56v-4z" fill="#76c22b"/>
  <path d="m96 164v4h32v-4zm0 12v4h32v-4zm0 12v4h32v-4z" fill="#f22c42"/>
  <path d="m136 188v4h72v-4z" fill="#b3b3b3"/>
 </g>
</svg>
