<?xml version="1.0" encoding="UTF-8"?>
<svg width="64" height="64" version="1.1" viewBox="0 0 16.933 16.933" xmlns="http://www.w3.org/2000/svg" xmlns:cc="http://creativecommons.org/ns#" xmlns:dc="http://purl.org/dc/elements/1.1/" xmlns:rdf="http://www.w3.org/1999/02/22-rdf-syntax-ns#">
 <metadata>
  <rdf:RDF>
   <cc:Work rdf:about="">
    <dc:format>image/svg+xml</dc:format>
    <dc:type rdf:resource="http://purl.org/dc/dcmitype/StillImage"/>
    <dc:title/>
   </cc:Work>
  </rdf:RDF>
 </metadata>
 <defs>
  <linearGradient id="a" x1="49.571" x2="51.714" y1="52.714" y2="54.857" gradientTransform="matrix(2.3333,0,0,2.3333,-68.667,-72.001)" gradientUnits="userSpaceOnUse">
   <stop offset="0"/>
   <stop stop-opacity="0" offset="1"/>
  </linearGradient>
 </defs>
 <g transform="scale(.26458)">
  <rect x="8" y="4" width="48" height="56" ry="5" fill="#dd4f37" style="paint-order:stroke fill markers"/>
  <path d="m56 46-14 14h9c2.77 0 5-2.23 5-5z" fill="url(#a)" fill-rule="evenodd" opacity=".15" stroke-width="8.8191" style="paint-order:stroke fill markers"/>
 </g>
 <path d="m9.2608 4.4978c0.33263 1.3104-1.1733 1.7062-1.7168 2.5223-0.37011 0.55604 0.18168 1.1535 0.93397 1.8322-0.29336-0.66316-1.2882-1.2433 4e-4 -2.2611 1.6069-1.2684 0.7824-2.0934 0.7824-2.0934zm0.99418 1.6213c1.8e-5 0-2.7172 0.67846-1.4195 2.1738 0.38309 0.44098-0.10049 0.83749-0.10049 0.83749s0.97214-0.50173 0.52578-1.1304c-0.41705-0.58598-0.73675-0.87708 0.99425-1.8809zm0.4812 2.6711c-0.09547 3.25e-4 -0.19685 0.01689-0.30085 0.05343-0.08338 0.02952-0.12714 0.09814-0.12714 0.09814s0.05272-0.02122 0.17025-0.04575c0.48064-0.10015 1.1693 0.64343-0.31995 1.4171-0.0069 0.01844-0.02978 0.0391-0.02976 0.0391 1.7711-0.46559 1.3849-1.5635 0.60744-1.562zm-3.191 0.07551c-0.11666-0.0027-0.621 0.0048-1.2237 0.29635-0.8148 0.39398 2.0151 0.57346 3.4802 0.18811 0.15232-0.10395 0.36272-0.1942 0.36272-0.1942s-0.59924 0.10713-1.1963 0.15724c-0.73082 0.06131-1.5148 0.07342-1.9083 0.02076-0.9317-0.12456 0.51076-0.46722 0.51076-0.46722s-0.00873-7e-4 -0.0254-1e-3zm-0.31047 0.90144c-1.3441 0.44609 0.74823 0.95234 2.6267 0.40286-0.19959-0.07036-0.32632-0.19911-0.32632-0.19911-0.91846 0.17676-1.449 0.17111-2.121 0.10174-0.51952-0.05369-0.17946-0.30549-0.17946-0.30549zm0.18998 0.86891c-1.2204 0.341 0.74253 1.0454 2.2965 0.37961-0.25451-0.0989-0.43705-0.21309-0.43705-0.21309-0.69296 0.13098-1.0144 0.1413-1.6434 0.06949-0.51913-0.05954-0.216-0.236-0.216-0.236zm-0.84766 0.57609c-0.54806 0.01691-1.6199 0.50969-0.63969 0.66876 3.168 0.51351 5.7749-0.2313 4.9532-0.60204 0 0 0.22444 0.18505-0.24714 0.32812-0.89672 0.27161-3.733 0.35353-4.5208 0.01087-0.28299-0.12326 0.24792-0.29411 0.41497-0.33019 0.17418-0.03768 0.27365-0.0308 0.27365-0.0308-0.04921-0.03465-0.13278-0.04784-0.23427-0.04471zm4.8165 0.47096s-0.09986 0.25639-1.1812 0.45982c-1.22 0.22968-2.725 0.2029-3.6173 0.05558 0 0 0.18277 0.15132 1.1221 0.21178 1.4292 0.09137 3.6245-0.05084 3.6765-0.72717z" clip-rule="evenodd" enable-background="new" fill="#fff" fill-rule="evenodd" stroke-width=".25371"/>
</svg>
