<?xml version="1.0" encoding="UTF-8"?>
<svg width="64" height="64" version="1.1" viewBox="0 0 16.933 16.933" xmlns="http://www.w3.org/2000/svg" xmlns:cc="http://creativecommons.org/ns#" xmlns:dc="http://purl.org/dc/elements/1.1/" xmlns:rdf="http://www.w3.org/1999/02/22-rdf-syntax-ns#">
 <metadata>
  <rdf:RDF>
   <cc:Work rdf:about="">
    <dc:format>image/svg+xml</dc:format>
    <dc:type rdf:resource="http://purl.org/dc/dcmitype/StillImage"/>
    <dc:title/>
   </cc:Work>
  </rdf:RDF>
 </metadata>
 <defs>
  <linearGradient id="a" x1="49.571" x2="51.714" y1="52.714" y2="54.857" gradientTransform="matrix(2.3333,0,0,2.3333,-68.667,-72.001)" gradientUnits="userSpaceOnUse">
   <stop offset="0"/>
   <stop stop-opacity="0" offset="1"/>
  </linearGradient>
 </defs>
 <g transform="scale(.26458)">
  <rect x="8" y="4" width="48" height="56" ry="5" fill="#1a7fd4" style="paint-order:stroke fill markers"/>
  <path d="m56 46-14 14h9c2.77 0 5-2.23 5-5z" fill="url(#a)" fill-rule="evenodd" opacity=".15" stroke-width="8.8191" style="paint-order:stroke fill markers"/>
 </g>
 <path class="st1" d="m10.96 6.0704c0.26821 0.06705 0.47273 0.18607 0.66048 0.38053 0.09723 0.10393 0.24139 0.29336 0.25313 0.33862 0.0034 0.01341-0.45596 0.32186-0.73424 0.49452-0.01006 0.0067-0.05029-0.03688-0.09555-0.10393-0.13578-0.19781-0.27827-0.2833-0.4962-0.29839-0.32018-0.02179-0.52637 0.14584-0.52469 0.42579 0 0.08214 0.01174 0.13076 0.04526 0.19781 0.07041 0.14584 0.20116 0.23301 0.61186 0.4107 0.75603 0.32521 1.0796 0.53978 1.2807 0.84487 0.22463 0.3403 0.27492 0.88343 0.12237 1.2874-0.16763 0.4392-0.58337 0.73759-1.1684 0.83649-0.18104 0.03185-0.61019 0.02682-0.80464-0.0084-0.42411-0.07544-0.82643-0.28498-1.0745-0.5599-0.09723-0.10729-0.28665-0.38723-0.27492-0.40735 5e-3 -0.0067 0.04861-0.03353 0.09723-0.06202 0.04694-0.02682 0.22463-0.12908 0.39226-0.2263l0.30342-0.17602 0.0637 0.09388c0.08885 0.13578 0.2833 0.32186 0.40064 0.38388 0.33694 0.17769 0.79961 0.15255 1.0276-0.05197 0.09723-0.08885 0.13746-0.18104 0.13746-0.31683 0-0.12237-0.01509-0.17602-0.07879-0.26822-0.08214-0.11734-0.24978-0.21625-0.72585-0.42244-0.54481-0.23469-0.7795-0.38053-0.99407-0.61186-0.12405-0.13411-0.24139-0.34868-0.29001-0.52805-0.04023-0.14919-0.05029-0.52302-0.01844-0.67389 0.11231-0.52637 0.50961-0.89349 1.0829-1.0024 0.18607-0.0352 0.61857-0.02179 0.80129 0.02347zm-2.4793 0.44088 0.0034 0.4325h-1.3746v3.9059h-0.97232v-3.9059h-1.3746v-0.42411c0-0.23469 5e-3 -0.43082 0.01173-0.43585 5e-3 -0.0067 0.84152-0.01006 1.8557-0.0084l1.8456 5e-3z" enable-background="new" fill="#fff" stroke-width=".0066144"/>
</svg>
