<svg width="64" height="64" version="1.1" viewBox="0 0 16.933 16.933" xmlns="http://www.w3.org/2000/svg">
 <defs>
  <linearGradient id="a" x1="49.571" x2="51.714" y1="52.714" y2="54.857" gradientTransform="matrix(2.3333,0,0,2.3333,-68.667,-72.001)" gradientUnits="userSpaceOnUse">
   <stop offset="0"/>
   <stop stop-opacity="0" offset="1"/>
  </linearGradient>
 </defs>
 <g transform="scale(.26458)">
  <rect x="8" y="4" width="48" height="56" ry="5" fill="#f4f4f4" style="paint-order:stroke fill markers"/>
  <path d="m56 46-14 14h9c2.77 0 5-2.23 5-5z" fill="url(#a)" fill-rule="evenodd" opacity=".1" stroke-width="8.8191" style="paint-order:stroke fill markers"/>
 </g>
 <g transform="translate(-.13159 .92509)">
  <path d="m5.026 9.129h0.53c0.073 0 0.132 0.059 0.132 0.132v0.53a0.132 0.132 0 0 1-0.133 0.132h-0.529a0.132 0.132 0 0 1-0.132-0.132v-0.53c0-0.073 0.059-0.132 0.132-0.132zm1.302 0c-0.06 4e-3 -0.112 0.051-0.111 0.102v0.59c0 0.054 0.058 0.102 0.122 0.102h4.518c0.064 0 0.123-0.048 0.122-0.102v-0.59c0-0.054-0.058-0.102-0.122-0.102h-4.528z" color="#000000" fill="#a2aab9" overflow="visible"/>
  <path d="m5.555 10.717h0.53c0.073 0 0.132 0.059 0.132 0.132v0.529a0.132 0.132 0 0 1-0.133 0.132h-0.529a0.132 0.132 0 0 1-0.132-0.132v-0.53c0-0.072 0.059-0.131 0.132-0.131zm1.302 0c-0.06 4e-3 -0.112 0.05-0.111 0.101v0.59c0 0.054 0.058 0.103 0.123 0.102h4.517c0.064 0 0.123-0.048 0.122-0.101v-0.59c0-0.054-0.058-0.103-0.122-0.102z" color="#000000" fill="#abd56b" overflow="visible"/>
  <path d="m5.026 12.304h0.53c0.073 0 0.132 0.06 0.132 0.132v0.53a0.132 0.132 0 0 1-0.133 0.132h-0.529a0.132 0.132 0 0 1-0.132-0.132v-0.53c0-0.073 0.059-0.132 0.132-0.132zm1.302 0c-0.06 4e-3 -0.112 0.051-0.111 0.102v0.59c0 0.054 0.058 0.102 0.122 0.102h4.518c0.064 0 0.123-0.048 0.122-0.102v-0.59c0-0.054-0.058-0.102-0.122-0.102h-4.528zm-1.302-9.525h0.53c0.073 0 0.132 0.059 0.132 0.132v0.53a0.132 0.132 0 0 1-0.133 0.132h-0.529a0.132 0.132 0 0 1-0.132-0.132v-0.53c0-0.073 0.059-0.132 0.132-0.132zm1.302 0c-0.06 4e-3 -0.112 0.051-0.111 0.102v0.59c0 0.054 0.058 0.102 0.122 0.102h4.518c0.064 0 0.123-0.048 0.122-0.102v-0.59c0-0.054-0.058-0.102-0.122-0.102h-4.528z" color="#000000" fill="#a2aab9" overflow="visible"/>
  <path d="m5.555 4.367h0.53c0.073 0 0.132 0.059 0.132 0.132v0.529a0.132 0.132 0 0 1-0.133 0.132h-0.529a0.132 0.132 0 0 1-0.132-0.132v-0.53c0-0.072 0.059-0.131 0.132-0.131zm1.302 0c-0.06 4e-3 -0.112 0.05-0.111 0.101v0.59c0 0.054 0.058 0.103 0.123 0.102h4.517c0.064 0 0.123-0.048 0.122-0.101v-0.59c0-0.054-0.058-0.103-0.122-0.102zm-1.302 3.175h0.53c0.073 0 0.132 0.059 0.132 0.132v0.529a0.132 0.132 0 0 1-0.133 0.132h-0.529a0.132 0.132 0 0 1-0.132-0.132v-0.53c0-0.072 0.059-0.131 0.132-0.131zm1.302 0c-0.06 4e-3 -0.112 0.05-0.111 0.101v0.59c0 0.054 0.058 0.103 0.123 0.102h4.517c0.064 0 0.123-0.048 0.122-0.101v-0.59c0-0.054-0.058-0.103-0.122-0.102z" color="#000000" fill="#abd56b" overflow="visible"/>
  <path d="m6.084 5.954h0.53c0.073 0 0.132 0.06 0.132 0.132v0.53a0.132 0.132 0 0 1-0.132 0.132h-0.53a0.132 0.132 0 0 1-0.132-0.132v-0.53c0-0.073 0.06-0.132 0.132-0.132zm1.303 0c-0.061 4e-3 -0.113 0.051-0.112 0.102v0.59c0 0.054 0.058 0.102 0.123 0.102h4.517c0.064 0 0.123-0.048 0.123-0.102v-0.59c0-0.054-0.059-0.102-0.123-0.102z" color="#000000" fill="#efb458" overflow="visible"/>
 </g>
</svg>
