<?xml version="1.0" encoding="UTF-8"?>
<svg width="64" height="64" version="1.1" viewBox="0 0 16.933 16.933" xmlns="http://www.w3.org/2000/svg" xmlns:cc="http://creativecommons.org/ns#" xmlns:dc="http://purl.org/dc/elements/1.1/" xmlns:rdf="http://www.w3.org/1999/02/22-rdf-syntax-ns#">
 <metadata>
  <rdf:RDF>
   <cc:Work rdf:about="">
    <dc:format>image/svg+xml</dc:format>
    <dc:type rdf:resource="http://purl.org/dc/dcmitype/StillImage"/>
    <dc:title/>
   </cc:Work>
  </rdf:RDF>
 </metadata>
 <defs>
  <linearGradient id="a" x1="49.571" x2="51.714" y1="52.714" y2="54.857" gradientTransform="matrix(2.3333,0,0,2.3333,-68.667,-72.001)" gradientUnits="userSpaceOnUse">
   <stop offset="0"/>
   <stop stop-opacity="0" offset="1"/>
  </linearGradient>
 </defs>
 <g transform="scale(.26458)">
  <rect x="8" y="4" width="48" height="56" ry="5" fill="#da1636" style="paint-order:stroke fill markers"/>
  <path d="m56 46-14 14h9c2.77 0 5-2.23 5-5z" fill="url(#a)" fill-rule="evenodd" opacity=".15" stroke-width="8.8191" style="paint-order:stroke fill markers"/>
 </g>
 <path d="m6.2156 4.6301v7.6728h1.3281c0.0048-0.9999-0.01045-2.0002 0.0092-2.9998 0.03292-0.46957 0.05889-1.0676 0.5063-1.3248 0.24627-0.14154 0.57594-0.17596 0.84722-0.08789 0.39762 0.1291 0.46434 0.64142 0.48136 1.0105 0.0065 1.1339 1e-3 2.268 0.0028 3.402h1.3229c-0.0028-1.2743 0.01-2.5622-2e-6 -3.8364-0.01374-0.64031-0.27596-1.3416-0.88853-1.6338-0.52357-0.24968-1.1434-0.17516-1.6747 0.02621-0.25085 0.09507-0.59703 0.5577-0.59703 0.5577-0.0032-0.92882-0.0063-1.8576-0.0095-2.7865h-1.3281z" color="#000000" fill="#f9f9f9"/>
</svg>
