<?xml version="1.0" encoding="UTF-8"?>
<svg width="64" height="64" version="1.1" xmlns="http://www.w3.org/2000/svg" xmlns:cc="http://creativecommons.org/ns#" xmlns:dc="http://purl.org/dc/elements/1.1/" xmlns:rdf="http://www.w3.org/1999/02/22-rdf-syntax-ns#">
 <metadata>
  <rdf:RDF>
   <cc:Work rdf:about="">
    <dc:format>image/svg+xml</dc:format>
    <dc:type rdf:resource="http://purl.org/dc/dcmitype/StillImage"/>
    <dc:title/>
   </cc:Work>
  </rdf:RDF>
 </metadata>
 <defs>
  <linearGradient id="a" x1="49.571" x2="51.714" y1="52.714" y2="54.857" gradientTransform="matrix(2.3333,0,0,2.3333,-68.667,-72.001)" gradientUnits="userSpaceOnUse">
   <stop offset="0"/>
   <stop stop-opacity="0" offset="1"/>
  </linearGradient>
 </defs>
 <rect x="8" y="4" width="48" height="56" ry="5" fill="#f55" style="paint-order:stroke fill markers"/>
 <path d="m56 46-14 14h9c2.77 0 5-2.23 5-5z" fill="url(#a)" fill-rule="evenodd" opacity=".15" stroke-width="8.8191" style="paint-order:stroke fill markers"/>
 <g transform="translate(0 3.3336)" fill="#f9f9f9" aria-label="SPEC">
  <path d="m17.115 34.519c2.6062 0 4.1456-1.5698 4.1456-3.414 0-1.6308-0.89923-2.4995-2.2709-3.0635l-1.4784-0.62489c-0.96019-0.38103-1.768-0.67061-1.768-1.4784 0-0.74682 0.64013-1.1888 1.6308-1.1888 0.92971 0 1.6765 0.3353 2.3929 0.92971l1.1431-1.4174c-0.91447-0.92971-2.2252-1.4479-3.5359-1.4479-2.2862 0-3.9017 1.4174-3.9017 3.2616 0 1.646 1.1431 2.5605 2.2862 3.033l1.5089 0.64013c1.0059 0.42675 1.6918 0.68585 1.6918 1.5241 0 0.79254-0.62489 1.2955-1.7985 1.2955-0.99067 0-2.0576-0.50296-2.8653-1.2498l-1.2955 1.5546c1.0974 1.0516 2.6062 1.646 4.1151 1.646z"/>
  <path d="m23.243 34.306h2.2557v-4.0084h1.5089c2.4233 0 4.359-1.1583 4.359-3.7341 0-2.6672-1.9204-3.5359-4.4199-3.5359h-3.7036zm2.2557-5.7916v-3.7036h1.2803c1.5546 0 2.3776 0.44199 2.3776 1.7527 0 1.2955-0.74682 1.9509-2.3014 1.9509z"/>
  <path d="m33.423 34.306h7.0871v-1.8899h-4.8314v-3.0177h3.9627v-1.8899h-3.9627v-2.6062h4.6638v-1.8747h-6.9195z"/>
  <path d="m47.403 34.519c1.4632 0 2.6672-0.57916 3.5969-1.6613l-1.1888-1.4022c-0.60965 0.65537-1.3717 1.1126-2.3319 1.1126-1.7832 0-2.9415-1.4784-2.9415-3.9322 0-2.4233 1.2803-3.8865 2.9873-3.8865 0.8535 0 1.5089 0.39627 2.0728 0.94495l1.1888-1.4327c-0.73158-0.76206-1.8747-1.4479-3.3073-1.4479-2.8501 0-5.243 2.1795-5.243 5.8983 0 3.7646 2.3167 5.8069 5.1668 5.8069z"/>
 </g>
</svg>
