<svg width="64" height="64" version="1.1" viewBox="0 0 16.933 16.933" xmlns="http://www.w3.org/2000/svg">
 <defs>
  <linearGradient id="a" x1="49.571" x2="51.714" y1="52.714" y2="54.857" gradientTransform="matrix(2.3333,0,0,2.3333,-68.667,-72.001)" gradientUnits="userSpaceOnUse">
   <stop offset="0"/>
   <stop stop-opacity="0" offset="1"/>
  </linearGradient>
 </defs>
 <g transform="scale(.26458)">
  <rect x="8" y="4" width="48" height="56" ry="5" fill="#f4f4f4" style="paint-order:stroke fill markers"/>
  <path d="m56 46-14 14h9c2.77 0 5-2.23 5-5z" fill="url(#a)" fill-rule="evenodd" opacity=".1" stroke-width="8.8191" style="paint-order:stroke fill markers"/>
 </g>
 <path d="m8.2284 3.7041c-0.42332 0-0.81144 0.048441-1.1642 0.14545-0.34395 0.097012-0.60845 0.19845-0.79366 0.30428l0.25126 0.71436c0.48506-0.26458 1.023-0.39683 1.6139-0.39683 0.21166 0 0.41453 0.017627 0.60856 0.052903 0.19402 0.035277 0.36164 0.10146 0.50275 0.19847 0.14993 0.097011 0.26899 0.22926 0.35718 0.39683 0.08819 0.15875 0.1322 0.36162 0.1322 0.60856 0 0.2734-0.05288 0.52027-0.15871 0.74075-0.10583 0.21166-0.23808 0.41453-0.39683 0.60856-0.15875 0.18521-0.3308 0.37045-0.516 0.55565-0.1852 0.17638-0.35714 0.36595-0.51589 0.56879s-0.291 0.42334-0.39683 0.66146c-0.10583 0.2293-0.15882 0.49392-0.15882 0.79377 0 0.10583 0.0044 0.21158 0.01326 0.31742 0.0088 0.09701 0.02201 0.18969 0.03965 0.27788h0.68797c-0.0088-0.0441-0.01325-0.08822-0.01325-0.13231v-0.22487c0-0.29104 0.05731-0.55565 0.17196-0.79377s0.26021-0.45861 0.43659-0.66146c0.17638-0.21166 0.36163-0.41453 0.55565-0.60856 0.20284-0.19402 0.39241-0.39678 0.56879-0.60844 0.17639-0.21166 0.32194-0.44103 0.43659-0.68797s0.17196-0.52918 0.17196-0.84668c0-0.2293-0.03969-0.46299-0.11906-0.70111-0.079386-0.23812-0.21175-0.44974-0.39696-0.63495-0.1852-0.19402-0.43652-0.34834-0.75401-0.46299-0.30868-0.12347-0.69667-0.18522-1.1641-0.18522zm-0.17196 8.0696c-0.2293 0-0.41011 0.07062-0.5424 0.21173-0.12347 0.14111-0.18522 0.31304-0.18522 0.51589 0 0.20284 0.06175 0.37478 0.18522 0.51589 0.13229 0.14111 0.3131 0.21173 0.5424 0.21173s0.40567-0.07062 0.52914-0.21173c0.13229-0.14111 0.19836-0.31304 0.19836-0.51589 0-0.20284-0.06607-0.37478-0.19836-0.51589-0.12347-0.14111-0.29984-0.21173-0.52914-0.21173z" enable-background="new" fill="#999"/>
</svg>
