<svg width="120" height="120" viewBox="0 0 120 120" fill="none" xmlns="http://www.w3.org/2000/svg">
<g clip-path="url(#clip0_420:1626)">
<path d="M105.303 90.2303C101.758 84.7641 96.8971 80.2755 91.1663 77.1761C85.4355 74.0767 79.0183 72.4657 72.5032 72.4909H47.5032C40.9874 72.4663 34.5698 74.0782 28.839 77.1787C23.1082 80.2792 18.2477 84.769 14.7032 90.2363C13.5758 91.9796 12.5966 93.8143 11.7759 95.7212C13.5427 98.0944 15.4812 100.335 17.5759 102.424C28.8279 113.675 44.0882 119.996 60.0001 119.996C75.9121 119.996 91.1724 113.675 102.424 102.424C104.515 100.333 106.452 98.0929 108.218 95.7212C107.398 93.8145 106.423 91.978 105.303 90.2303Z" fill="#585858"/>
<path d="M102.424 17.5757C94.0333 9.18545 83.3428 3.4717 71.7045 1.15695C60.0662 -1.15781 48.0028 0.0303833 37.0398 4.57128C26.0768 9.11219 16.7064 16.8019 10.1134 26.668C3.5205 36.5342 0.0010934 48.1337 0.000237319 60C-0.0360734 72.8664 4.09527 85.3987 11.776 95.7212C13.5428 98.0944 15.4813 100.335 17.576 102.424C28.828 113.675 44.0883 119.996 60.0002 119.996C75.9122 119.996 91.1725 113.675 102.424 102.424C104.516 100.333 106.452 98.0929 108.218 95.7212C116.773 84.1613 120.894 69.9144 119.83 55.5727C118.767 41.231 112.591 27.7476 102.424 17.5757ZM105.297 90.2303C103.301 93.1993 101.022 95.9678 98.4911 98.4969C88.2822 108.7 74.4396 114.431 60.0063 114.431C45.573 114.431 31.7304 108.7 21.5215 98.4969C18.9927 95.97 16.7154 93.2035 14.7214 90.2363C7.24501 78.996 4.21031 65.3792 6.20611 52.0277C8.20191 38.6763 15.0859 26.5422 25.5226 17.9795C35.9592 9.41683 49.2044 5.03605 62.6885 5.68711C76.1725 6.33817 88.9341 11.9746 98.4972 21.503C107.396 30.4094 112.936 42.1221 114.177 54.6509C115.418 67.1796 112.282 79.7515 105.303 90.2303H105.297Z" fill="#585858"/>
<path d="M39.0305 44.8545C39.0305 47.6083 39.5729 50.3351 40.6267 52.8793C41.6806 55.4234 43.2252 57.7351 45.1724 59.6823C47.1196 61.6296 49.4313 63.1742 51.9755 64.228C54.5196 65.2818 57.2464 65.8242 60.0002 65.8242C62.754 65.8242 65.4808 65.2818 68.025 64.228C70.5691 63.1742 72.8808 61.6296 74.828 59.6823C76.7752 57.7351 78.3199 55.4234 79.3737 52.8793C80.4275 50.3351 80.9699 47.6083 80.9699 44.8545C80.9699 42.1007 80.4275 39.3739 79.3737 36.8298C78.3199 34.2856 76.7752 31.9739 74.828 30.0267C72.8808 28.0795 70.5691 26.5349 68.025 25.4811C65.4808 24.4272 62.754 23.8848 60.0002 23.8848C57.2464 23.8848 54.5196 24.4272 51.9755 25.4811C49.4313 26.5349 47.1196 28.0795 45.1724 30.0267C43.2252 31.9739 41.6806 34.2856 40.6267 36.8298C39.5729 39.3739 39.0305 42.1007 39.0305 44.8545Z" fill="#585858"/>
<circle cx="60" cy="60" r="60" fill="#2276F3"/>
<circle cx="59.9998" cy="45.0001" r="20" fill="white"/>
<path fill-rule="evenodd" clip-rule="evenodd" d="M15.2061 99.9198C21.2482 82.8587 39.0184 70.5001 59.9998 70.5001C80.9812 70.5001 98.7515 82.8589 104.794 99.9201C93.805 112.242 77.8085 120 60 120C42.1912 120 26.1946 112.241 15.2061 99.9198Z" fill="white"/>
</g>
<defs>
<clipPath id="clip0_420:1626">
<rect width="120" height="120" fill="white"/>
</clipPath>
</defs>
</svg>
