<svg width="64" height="64" version="1.1" viewBox="0 0 16.933 16.933" xmlns="http://www.w3.org/2000/svg">
 <defs>
  <linearGradient id="a" x1="49.571" x2="51.714" y1="52.714" y2="54.857" gradientTransform="matrix(2.3333,0,0,2.3333,-68.667,-72.001)" gradientUnits="userSpaceOnUse">
   <stop offset="0"/>
   <stop stop-opacity="0" offset="1"/>
  </linearGradient>
 </defs>
 <g transform="matrix(0 .26458 .26458 0 -5.9992e-5 -5.9978e-5)">
  <rect x="8" y="4" width="48" height="56" ry="5" fill="#4c37d1" style="paint-order:stroke fill markers"/>
  <path d="m56 46-14 14h9c2.77 0 5-2.23 5-5z" fill="url(#a)" fill-rule="evenodd" opacity=".25" stroke-width="8.8191" style="paint-order:stroke fill markers"/>
 </g>
 <path d="m8.4665 4.7624c-2.0457 0-3.7041 1.6584-3.7041 3.7041s1.6584 3.7041 3.7041 3.7041 3.7041-1.6584 3.7041-3.7041-1.6584-3.7041-3.7041-3.7041zm0 0.79373c1.6073 0 2.9104 1.303 2.9104 2.9104 0 1.6073-1.303 2.9104-2.9104 2.9104-1.6073 0-2.9104-1.303-2.9104-2.9104 0-1.6073 1.303-2.9104 2.9104-2.9104zm-1.0583 1.1906v3.4395l2.9104-1.7198z" fill="#fff"/>
</svg>
