<svg width="64" height="64" version="1.1" viewBox="0 0 16.933 16.933" xmlns="http://www.w3.org/2000/svg">
 <defs>
  <linearGradient id="a" x1="49.571" x2="51.714" y1="52.714" y2="54.857" gradientTransform="matrix(2.3333,0,0,2.3333,-68.667,-72.001)" gradientUnits="userSpaceOnUse">
   <stop offset="0"/>
   <stop stop-opacity="0" offset="1"/>
  </linearGradient>
 </defs>
 <g transform="scale(.26458)">
  <rect x="8" y="4" width="48" height="56" ry="5" fill="#3c56a1" style="paint-order:stroke fill markers"/>
  <path d="m56 46-14 14h9c2.77 0 5-2.23 5-5z" fill="url(#a)" fill-rule="evenodd" opacity=".15" stroke-width="8.8191" style="paint-order:stroke fill markers"/>
 </g>
 <g fill="#fff">
  <rect x="9.261" y="1.0583" width="1.0583" height="14.816" color="#000000" opacity=".25"/>
  <rect x="9.782" y="1.0583" width=".53659" height="14.816" color="#000000" opacity=".25"/>
  <path d="m4.2332 10.054c-0.29315 0-0.52916 0.236-0.52916 0.52916v3.175c0 0.29316 0.23601 0.52916 0.52916 0.52916h3.175c0.29315 0 0.52916-0.236 0.52916-0.52916v-3.175c0-0.29316-0.23601-0.52916-0.52916-0.52916zm0 0.52916h3.175v0.52916h-3.175zm0 1.0583h2.3812v0.79374h-2.3812zm2.6458 0h0.52916v0.79374h-0.52916zm-2.6458 1.3229h2.3812v0.79374h-2.3812zm2.6458 0h0.52916v0.79374h-0.52916z" opacity=".5" stroke-width=".26458" style="paint-order:fill markers stroke"/>
 </g>
</svg>
