<svg width="64" height="64" version="1.1" viewBox="0 0 64 64" xmlns="http://www.w3.org/2000/svg">
 <defs>
  <linearGradient id="a" x1="49.571" x2="51.714" y1="52.714" y2="54.857" gradientTransform="matrix(2.3333,0,0,2.3333,-68.667,-72.001)" gradientUnits="userSpaceOnUse">
   <stop offset="0"/>
   <stop stop-opacity="0" offset="1"/>
  </linearGradient>
 </defs>
 <g transform="scale(1)">
  <rect x="8" y="4" width="48" height="56" ry="5" fill="#8e4ba9" style="paint-order:stroke fill markers"/>
  <path d="m56 46-14 14h9c2.77 0 5-2.23 5-5z" fill="url(#a)" fill-rule="evenodd" opacity=".15" stroke-width="8.8191" style="paint-order:stroke fill markers"/>
 </g>
 <path d="m32 23c-2.77 0-5 2.23-5 5v5c0 2.77 2.23 5 5 5s5-2.23 5-5v-5c0-2.77-2.23-5-5-5m-4 4h3v1h-3zm5 0h3v1h-3zm-5 3h3v1h-3zm5 0h3v1h-3zm-5 3h3v1h-3zm5 0h3v1h-3zm-7.922 1c0.437 3.072 2.851 5.485 5.922 5.922v1.078h0.5v2h-1.5v1h4v-1h-1.5v-2h0.5v-1.078c3.071-0.437 5.485-2.85 5.922-5.922h-1.012c-0.474 2.844-2.928 5-5.91 5s-5.436-2.156-5.91-5z" color="#4d4d4d" color-rendering="auto" fill="#fff" image-rendering="auto" opacity=".75" shape-rendering="auto" solid-color="#000000" style="isolation:auto;mix-blend-mode:normal"/>
</svg>
