<svg width="64" height="64" version="1.1" viewBox="0 0 16.933 16.933" xmlns="http://www.w3.org/2000/svg">
 <defs>
  <linearGradient id="a" x1="49.571" x2="51.714" y1="52.714" y2="54.857" gradientTransform="matrix(2.3333,0,0,2.3333,-68.667,-72.001)" gradientUnits="userSpaceOnUse">
   <stop offset="0"/>
   <stop stop-opacity="0" offset="1"/>
  </linearGradient>
 </defs>
 <g transform="scale(.26458)">
  <rect x="8" y="4" width="48" height="56" ry="5" fill="#f9ce1d" style="paint-order:stroke fill markers"/>
  <path d="m56 46-14 14h9c2.77 0 5-2.23 5-5z" fill="url(#a)" fill-rule="evenodd" opacity=".15" stroke-width="8.8191" style="paint-order:stroke fill markers"/>
 </g>
 <path d="m6.3498 7.5847c-0.7793 0-1.411 0.63174-1.411 1.4111 0 0.77932 0.63175 1.4111 1.411 1.4111 0.7793 0 1.411-0.63174 1.411-1.4111h-1.411zm2.1167 0.35268v0.52916h3.4395v-0.52916zm0.03797 1.5875-0.03797 0.52916h3.4395v-0.52916zm-3.2129 2.1166v0.52914h5.2914l1.34e-4 -0.52914z" color="#000000" enable-background="new" fill="#fff" style="text-decoration-line:none;text-indent:0;text-transform:none"/>
</svg>
